<svg width="213" height="32" viewBox="0 0 213 32" fill="none" xmlns="http://www.w3.org/2000/svg">
<g clip-path="url(#clip0_342_1118)">
<path d="M46.4665 23.5416V7.45831H49.7232L55.7697 15.4464H54.2611L60.14 7.45831H63.3967V23.5416H60.0322V11.1488L61.3732 11.4583L55.1471 19.4464H54.7161L48.6935 11.4583L49.831 11.1488V23.5416H46.4665Z" fill="#E9E6E3"/>
<path d="M69.6752 23.8035C68.8191 23.8035 68.0827 23.6666 67.4601 23.3988C66.8375 23.122 66.3586 22.7291 66.0233 22.2202C65.694 21.7053 65.5324 21.0952 65.5324 20.3869C65.5324 19.7291 65.6821 19.1458 65.9874 18.6369C66.2897 18.122 66.7567 17.6934 67.3883 17.3512C68.0169 17.0029 68.8041 16.7559 69.747 16.6131L73.3629 16.0297V18.4107L70.3337 18.9464C69.8608 19.0357 69.5016 19.1815 69.2561 19.3869C69.0166 19.5952 68.8969 19.8928 68.8969 20.2797C68.8969 20.6458 69.0316 20.9285 69.304 21.125C69.5824 21.3244 69.9266 21.4226 70.3337 21.4226C70.8665 21.4226 71.3335 21.3095 71.7346 21.0774C72.1417 20.8482 72.456 20.5387 72.6805 20.1488C72.902 19.7529 73.0157 19.3154 73.0157 18.8393V15.7678C73.0157 15.3244 72.8361 14.9524 72.4769 14.6488C72.1237 14.3482 71.6448 14.1964 71.0401 14.1964C70.4654 14.1964 69.9535 14.3571 69.5075 14.6726C69.0675 14.991 68.7472 15.4077 68.5497 15.9226L65.9395 14.6964C66.17 14.0297 66.5382 13.4643 67.041 12.994C67.5499 12.5178 68.1605 12.1488 68.873 11.8869C69.5824 11.625 70.3576 11.494 71.1958 11.494C72.1926 11.494 73.0756 11.6785 73.8419 12.0416C74.6082 12.3988 75.2008 12.8988 75.6259 13.5416C76.0569 14.1785 76.2724 14.9196 76.2724 15.7678V23.5416H73.2312V21.6369L73.9736 21.5178C73.6293 22.0357 73.2462 22.4643 72.8241 22.8035C72.3991 23.1369 71.9291 23.3869 71.4113 23.5535C70.8905 23.7202 70.3127 23.8035 69.6752 23.8035Z" fill="#E9E6E3"/>
<path d="M78.6586 23.5416V11.7559H81.6998V14.5892L81.4724 14.1726C81.7358 13.1815 82.1668 12.5118 82.7655 12.1607C83.3701 11.8035 84.0855 11.6249 84.9087 11.6249H85.6031V14.4345H84.5854C83.7862 14.4345 83.1396 14.6785 82.6457 15.1607C82.1578 15.6368 81.9154 16.3154 81.9154 17.1964V23.5416H78.6586Z" fill="#E9E6E3"/>
<path d="M87.0324 23.5416V7.20831H90.2891V17.6726L89.0679 17.2797L94.3002 11.7559H98.3112L94.0248 16.5059L98.2993 23.5416H94.5995L91.0195 17.5655L92.9113 17.0893L89.2834 21.0178L90.2891 19.1369V23.5416H87.0324Z" fill="#E9E6E3"/>
<path d="M105.456 23.8035C104.193 23.8035 103.1 23.5268 102.175 22.9702C101.247 22.4166 100.529 21.6696 100.02 20.7321C99.5172 19.7976 99.2658 18.7619 99.2658 17.625C99.2658 16.4524 99.5292 15.4047 100.056 14.4821C100.583 13.5625 101.292 12.8363 102.187 12.3035C103.088 11.7649 104.103 11.494 105.229 11.494C106.168 11.494 107.004 11.6458 107.731 11.9464C108.455 12.241 109.066 12.6547 109.563 13.1845C110.066 13.7172 110.443 14.3333 110.7 15.0297C110.964 15.7291 111.095 16.4881 111.095 17.3035C111.095 17.5357 111.083 17.7619 111.059 17.9821C111.036 18.2053 110.994 18.3958 110.94 18.5535H102.068V16.1845H109.096L107.551 17.3035C107.701 16.6845 107.698 16.1369 107.539 15.6607C107.378 15.1785 107.099 14.7976 106.701 14.5178C106.3 14.2321 105.809 14.0893 105.229 14.0893C104.669 14.0893 104.187 14.2291 103.78 14.5059C103.373 14.7768 103.064 15.1785 102.858 15.7083C102.657 16.241 102.582 16.8869 102.63 17.6488C102.573 18.3095 102.654 18.8928 102.87 19.3988C103.085 19.8988 103.415 20.2916 103.864 20.5774C104.31 20.8571 104.851 20.994 105.492 20.994C106.073 20.994 106.57 20.8809 106.977 20.6488C107.39 20.4196 107.713 20.1012 107.946 19.6964L110.557 20.9345C110.323 21.5059 109.958 22.0119 109.455 22.4464C108.952 22.875 108.36 23.2083 107.683 23.4464C107.004 23.6845 106.261 23.8035 105.456 23.8035Z" fill="#E9E6E3"/>
<path d="M118.711 23.6726C117.274 23.6726 116.16 23.2886 115.37 22.5178C114.58 21.75 114.185 20.6726 114.185 19.2916V14.5654H112.197V11.7559H112.305C112.91 11.7559 113.374 11.6071 113.694 11.3035C114.02 11.0029 114.185 10.5505 114.185 9.94638V9.07733H117.442V11.7559H120.219V14.5654H117.442V19.0773C117.442 19.4761 117.513 19.8095 117.657 20.0773C117.807 20.3482 118.034 20.5476 118.34 20.6726C118.642 20.8005 119.016 20.863 119.465 20.863C119.567 20.863 119.684 20.8601 119.812 20.8511C119.938 20.8363 120.076 20.8214 120.219 20.8035V23.5416C120.004 23.5714 119.755 23.6011 119.477 23.625C119.205 23.6547 118.95 23.6726 118.711 23.6726Z" fill="#E9E6E3"/>
<path d="M122.132 23.5416V11.7559H125.389V23.5416H122.132ZM122.132 10.6964V7.45831H125.389V10.6964H122.132Z" fill="#E9E6E3"/>
<path d="M127.773 23.5416V11.7559H130.814V14.0893L130.634 13.5654C130.904 12.869 131.347 12.3482 131.963 12.0059C132.586 11.6666 133.307 11.494 134.13 11.494C135.022 11.494 135.807 11.6845 136.477 12.0654C137.154 12.4404 137.681 12.9583 138.058 13.625C138.432 14.2916 138.62 15.0744 138.62 15.9702V23.5416H135.364V16.6607C135.364 16.2024 135.271 15.8035 135.088 15.4702C134.912 15.1369 134.66 14.8809 134.334 14.6964C134.005 14.5059 133.628 14.4107 133.197 14.4107C132.771 14.4107 132.394 14.5059 132.059 14.6964C131.73 14.8809 131.475 15.1369 131.293 15.4702C131.116 15.8035 131.029 16.2024 131.029 16.6607V23.5416H127.773Z" fill="#E9E6E3"/>
<path d="M146.586 28.2916C145.667 28.2916 144.817 28.1399 144.036 27.8393C143.26 27.5357 142.593 27.116 142.036 26.5774C141.476 26.0357 141.072 25.3988 140.827 24.6607L143.844 23.6012C144.003 24.1488 144.326 24.5803 144.814 24.8988C145.308 25.2143 145.898 25.375 146.586 25.375C147.119 25.375 147.583 25.2738 147.975 25.0774C148.364 24.8869 148.663 24.6041 148.873 24.2321C149.079 23.8571 149.184 23.4196 149.184 22.9107V20.2202L149.819 20.994C149.412 21.6547 148.888 22.1458 148.25 22.4702C147.61 22.7976 146.864 22.9583 146.011 22.9583C144.916 22.9583 143.934 22.7143 143.066 22.2202C142.195 21.7202 141.512 21.0387 141.018 20.1726C140.53 19.3006 140.288 18.3095 140.288 17.1964C140.288 16.0863 140.53 15.1071 141.018 14.2559C141.512 13.3988 142.186 12.7262 143.042 12.2321C143.895 11.741 144.865 11.494 145.951 11.494C146.804 11.494 147.55 11.6666 148.19 12.0059C148.828 12.3482 149.37 12.8631 149.819 13.5535L149.4 14.3274V11.7559H152.441V22.9107C152.441 23.9494 152.183 24.875 151.675 25.6845C151.172 26.5 150.48 27.1399 149.603 27.6012C148.732 28.0595 147.726 28.2916 146.586 28.2916ZM146.478 20.0178C147.02 20.0178 147.496 19.9047 147.903 19.6726C148.31 19.4434 148.624 19.122 148.849 18.7083C149.07 18.2887 149.184 17.8006 149.184 17.244C149.184 16.6815 149.067 16.1904 148.837 15.7678C148.603 15.3393 148.286 15.0059 147.879 14.7678C147.478 14.5297 147.011 14.4107 146.478 14.4107C145.927 14.4107 145.437 14.5297 145.006 14.7678C144.58 15.0059 144.251 15.3393 144.012 15.7678C143.772 16.1904 143.653 16.6815 143.653 17.244C143.653 17.7857 143.772 18.2649 144.012 18.6845C144.251 19.1071 144.58 19.4345 145.006 19.6726C145.437 19.9047 145.927 20.0178 146.478 20.0178Z" fill="#E9E6E3"/>
<path d="M155.542 23.5417V7.4613H160.862C162.469 7.4613 163.864 7.78868 165.052 8.44345C166.238 9.09821 167.157 10.0268 167.809 11.2292C168.459 12.4286 168.785 13.8512 168.785 15.4911C168.785 17.1161 168.459 18.5357 167.809 19.744C167.157 20.9524 166.238 21.8869 165.052 22.5476C163.864 23.2113 162.469 23.5417 160.862 23.5417H155.542ZM157.279 21.9226H160.862C162.107 21.9226 163.184 21.6607 164.097 21.1339C165.007 20.6101 165.714 19.8661 166.214 18.9018C166.711 17.9375 166.962 16.8006 166.962 15.4911C166.962 14.1815 166.708 13.0476 166.202 12.0923C165.696 11.1339 164.986 10.3929 164.073 9.86904C163.163 9.34226 162.092 9.08035 160.862 9.08035H157.279V21.9226Z" fill="#E9E6E3"/>
<path d="M176.85 23.8005C175.749 23.8005 174.752 23.5386 173.854 23.0119C172.956 22.488 172.244 21.7678 171.717 20.8541C171.187 19.9404 170.924 18.9017 170.924 17.7351C170.924 16.5833 171.184 15.5565 171.705 14.6488C172.226 13.744 172.932 13.0267 173.821 12.5029C174.71 11.9761 175.722 11.7142 176.85 11.7142C177.979 11.7142 178.988 11.9732 179.877 12.491C180.769 13.0089 181.469 13.7202 181.984 14.6279C182.496 15.5327 182.753 16.5714 182.753 17.7351C182.753 18.9166 182.487 19.9613 181.951 20.8749C181.415 21.7886 180.703 22.5059 179.814 23.0238C178.922 23.5416 177.934 23.8005 176.85 23.8005ZM176.85 22.1815C177.632 22.1815 178.335 21.988 178.967 21.5982C179.595 21.2113 180.095 20.6785 180.463 20.0029C180.831 19.3244 181.017 18.5714 181.017 17.7351C181.017 16.9017 180.831 16.1517 180.463 15.491C180.095 14.8303 179.595 14.3035 178.967 13.9166C178.335 13.5267 177.632 13.3333 176.85 13.3333C176.069 13.3333 175.363 13.5267 174.734 13.9166C174.102 14.3035 173.6 14.8303 173.225 15.491C172.848 16.1517 172.66 16.9017 172.66 17.7351C172.66 18.5714 172.848 19.3244 173.225 20.0029C173.6 20.6785 174.102 21.2113 174.734 21.5982C175.363 21.988 176.069 22.1815 176.85 22.1815Z" fill="#E9E6E3"/>
<path d="M191.122 28.2886C190.329 28.2886 189.593 28.1666 188.919 27.9226C188.249 27.6785 187.668 27.3452 187.183 26.9196C186.698 26.494 186.327 26.0029 186.067 25.4404L187.563 24.6428C187.794 25.1904 188.207 25.6636 188.8 26.0654C189.395 26.4702 190.156 26.6726 191.08 26.6726C191.79 26.6726 192.439 26.5357 193.035 26.2619C193.628 25.988 194.104 25.5863 194.466 25.0535C194.828 24.5208 195.011 23.866 195.011 23.0892V20.5208L195.271 20.7559C194.864 21.5922 194.265 22.2351 193.469 22.6904C192.673 23.1428 191.805 23.369 190.862 23.369C189.778 23.369 188.8 23.1101 187.932 22.5922C187.063 22.0744 186.381 21.372 185.881 20.488C185.381 19.6011 185.133 18.622 185.133 17.5416C185.133 16.4464 185.381 15.4613 185.881 14.5833C186.381 13.7053 187.06 13.0089 187.923 12.491C188.782 11.9732 189.763 11.7142 190.862 11.7142C191.805 11.7142 192.661 11.9285 193.436 12.3601C194.209 12.7916 194.822 13.3749 195.271 14.1101L195.011 14.5624V11.9732H196.636V23.0892C196.636 24.0803 196.403 24.9702 195.933 25.7529C195.463 26.5386 194.81 27.1577 193.978 27.6101C193.146 28.0624 192.194 28.2886 191.122 28.2886ZM190.949 21.7499C191.703 21.7499 192.383 21.5595 192.99 21.1785C193.598 20.7976 194.086 20.2857 194.457 19.6458C194.825 19.0059 195.011 18.3035 195.011 17.5416C195.011 16.7797 194.825 16.0773 194.457 15.4374C194.086 14.7976 193.598 14.2857 192.99 13.9047C192.383 13.5238 191.703 13.3333 190.949 13.3333C190.182 13.3333 189.488 13.5238 188.865 13.9047C188.243 14.2857 187.755 14.7916 187.402 15.4255C187.045 16.0595 186.869 16.7648 186.869 17.5416C186.869 18.3035 187.045 19.0059 187.402 19.6458C187.755 20.2857 188.24 20.7976 188.856 21.1785C189.47 21.5595 190.168 21.7499 190.949 21.7499Z" fill="#E9E6E3"/>
<path d="M204.008 23.8005C202.894 23.8005 201.918 23.5208 201.077 22.9583C200.239 22.3988 199.631 21.6339 199.254 20.6696L200.622 20.0238C200.955 20.7291 201.421 21.2886 202.023 21.7083C202.622 22.1249 203.286 22.3333 204.008 22.3333C204.702 22.3333 205.289 22.1636 205.768 21.8244C206.244 21.488 206.483 21.0446 206.483 20.497C206.483 20.0952 206.366 19.7767 206.136 19.5386C205.905 19.3005 205.636 19.116 205.334 18.988C205.028 18.8571 204.762 18.7648 204.529 18.7083L202.858 18.2321C201.787 17.9285 201.014 17.5059 200.535 16.9583C200.057 16.4107 199.82 15.7797 199.82 15.0595C199.82 14.3839 199.994 13.7916 200.341 13.2886C200.688 12.7857 201.158 12.3958 201.751 12.1249C202.343 11.8511 203.002 11.7142 203.726 11.7142C204.711 11.7142 205.603 11.9702 206.408 12.4791C207.211 12.991 207.779 13.6994 208.112 14.6071L206.723 15.2529C206.432 14.6071 206.016 14.0982 205.474 13.7321C204.933 13.366 204.328 13.1815 203.661 13.1815C203.011 13.1815 202.49 13.3482 202.098 13.6785C201.709 14.0089 201.511 14.4255 201.511 14.9285C201.511 15.3184 201.613 15.6279 201.817 15.8571C202.02 16.0892 202.254 16.2619 202.523 16.3749C202.789 16.491 203.026 16.5773 203.226 16.6339L205.16 17.1964C206.1 17.4702 206.833 17.8928 207.363 18.4702C207.89 19.0446 208.153 19.7202 208.153 20.497C208.153 21.1309 207.977 21.6994 207.624 22.2023C207.267 22.7083 206.78 23.0982 206.157 23.3809C205.534 23.6607 204.819 23.8005 204.008 23.8005Z" fill="#E9E6E3"/>
<path d="M26.8303 15.261C26.8467 15.1869 26.8341 15.1073 26.7926 15.0222C26.51 14.4414 26.2312 13.8559 25.9564 13.266C25.3386 11.9391 24.729 10.6421 24.1277 9.37481C23.6859 8.44415 23.0696 7.75093 22.0758 7.39818C21.9146 7.34086 21.737 7.29901 21.5429 7.27263C21.3589 7.24761 21.1793 7.21691 21.0039 7.18052C20.7409 7.12594 20.6307 7.32653 20.5396 7.52167C20.3423 7.94652 20.141 8.37228 19.9355 8.79894C19.93 8.81037 19.9213 8.82002 19.9105 8.82678C19.8998 8.83353 19.8873 8.83713 19.8746 8.83715L17.5487 8.83442C17.4765 8.83442 17.4407 8.87013 17.4411 8.94154C17.4425 9.10666 17.4288 9.26154 17.4781 9.42393C17.7279 10.2404 18.2511 10.7913 19.0479 11.0765C19.4323 11.2138 19.8341 11.2368 20.2533 11.1454C20.9245 10.9987 21.4779 10.5784 21.8053 9.98751C21.9388 9.74598 22.1306 9.36048 22.1367 9.06641C22.1372 9.03866 22.1491 9.03252 22.1723 9.04798C22.5865 9.32409 22.8666 9.72233 23.0127 10.2427C23.1314 10.663 23.1038 11.0822 22.9298 11.5002C22.5929 12.3121 21.8388 12.8082 21.0649 13.1984C19.7166 13.8789 18.7417 14.3831 18.1404 14.7111C16.4501 15.6336 15.0324 16.9995 14.129 18.6896C14.003 18.925 13.9064 19.172 13.7866 19.4074C13.751 19.477 13.7343 19.4729 13.7366 19.3951C13.7496 18.9441 13.7263 18.4713 13.7825 18.038C13.9884 16.4537 14.5566 15.0265 15.4872 13.7566C15.7262 13.4311 16.0063 13.1411 16.2556 12.8191C16.3054 12.7549 16.2988 12.6976 16.2357 12.6471C15.2367 11.8402 14.6299 10.8022 14.4153 9.5331C14.3943 9.40801 14.3836 9.15783 14.3831 8.78257C14.3818 7.80051 14.3811 6.83209 14.3811 5.87732C14.3811 5.83502 14.4023 5.81387 14.4448 5.81387L17.7993 5.81728C17.8527 5.81725 17.9049 5.80206 17.9497 5.77351C17.9945 5.74497 18.03 5.70427 18.0521 5.65626L18.6904 4.26845C18.6989 4.24998 18.7127 4.23436 18.7299 4.22347C18.7472 4.21258 18.7672 4.20688 18.7876 4.20705C19.6017 4.21296 20.4145 4.21296 21.2258 4.20705C21.4354 4.20568 21.6101 4.28142 21.8183 4.27118C21.9342 4.26572 22.0527 4.28142 22.1737 4.31826C22.3317 4.36602 22.4102 4.31257 22.4093 4.15792C22.4048 3.40147 22.4054 2.6614 22.4114 1.93771C22.4118 1.89677 22.4319 1.88198 22.4716 1.89336C22.9374 2.02982 23.3725 2.19289 23.777 2.38257C24.7338 2.83152 25.3201 3.78606 25.4105 4.79928C25.4306 5.02444 25.4628 5.26257 25.5071 5.51365C25.5988 6.02948 25.9091 6.44705 26.2324 6.89873C26.4639 7.22078 26.6769 7.58922 26.8453 7.94879C28.4471 11.3708 30.068 14.81 31.708 18.2666C31.7373 18.3289 31.7174 18.3628 31.6484 18.3682C31.5407 18.3773 31.4243 18.3817 31.2992 18.3812C28.4172 18.3753 25.5397 18.3742 22.6668 18.3778C22.3239 18.3782 21.9788 18.411 21.6313 18.476C20.4567 18.6944 19.4116 19.4463 18.713 20.4029C18.4988 20.6958 18.2845 21.0738 18.0699 21.5369C17.4151 22.9479 16.7357 24.4285 16.0337 25.8756C15.342 27.3016 14.8148 28.4222 14.4523 29.2373C14.4322 29.2814 14.4183 29.3313 14.4105 29.3867C14.4037 29.4345 14.376 29.4584 14.3277 29.4584L9.27113 29.4632C9.24191 29.4632 9.23186 29.4493 9.24099 29.4215C9.52317 28.5905 9.79712 27.8379 10.4361 27.2259C10.9306 26.7531 11.6121 26.5504 12.2894 26.4085C12.3251 26.4011 12.3586 26.3855 12.3871 26.363C12.4157 26.3405 12.4385 26.3117 12.4538 26.2789C12.9186 25.2927 13.3823 24.309 13.8448 23.3279C14.3653 22.2253 14.9559 20.9892 15.6166 19.6196C16.5439 17.6982 18.3438 16.2838 20.3437 15.6595C21.1786 15.3989 21.9744 15.3388 22.8935 15.345C23.567 15.3495 24.2311 15.3511 24.8859 15.3497C25.4975 15.3477 26.118 15.3804 26.7399 15.3388C26.7613 15.3375 26.7817 15.3292 26.7981 15.3151C26.8144 15.3011 26.8257 15.2821 26.8303 15.261Z" fill="#E9E6E3"/>
<path d="M36.1865 22.5685C36.1742 22.5818 36.1652 22.5977 36.1601 22.6151C36.1551 22.6324 36.1542 22.6507 36.1576 22.6685C36.1609 22.6862 36.1683 22.703 36.1793 22.7174C36.1903 22.7318 36.2045 22.7434 36.2207 22.7514C36.8817 23.0727 37.5289 23.2105 38.2809 23.2576C38.6375 23.2795 38.9557 23.2911 39.2356 23.2924C40.6629 23.2979 42.0571 23.2979 43.4182 23.2924C43.5616 23.292 43.6646 23.3588 43.7271 23.493C44.1134 24.3195 44.5067 25.1612 44.9072 26.0182C44.9428 26.0946 44.9741 26.1676 45.001 26.2372C45.0524 26.3682 44.9935 26.4876 44.9394 26.6043C44.5412 27.4631 44.1296 28.3319 43.7045 29.2107C43.6716 29.2789 43.6531 29.3601 43.6175 29.4243C43.6047 29.447 43.5853 29.4584 43.5593 29.4584L38.472 29.4632C38.4391 29.4632 38.4325 29.4502 38.4521 29.4243C38.4822 29.384 38.5158 29.3253 38.5316 29.2783C38.863 28.2623 39.2753 27.273 40.2992 26.8138C40.5444 26.7042 40.7816 26.5966 41.0108 26.4911C41.0307 26.4819 41.0475 26.4673 41.0593 26.449C41.0711 26.4307 41.0775 26.4094 41.0777 26.3876C41.078 26.3659 41.072 26.3445 41.0605 26.326C41.049 26.3074 41.0325 26.2925 41.0129 26.283C40.938 26.247 40.8494 26.2372 40.7472 26.2536C40.5376 26.2877 40.3447 26.3048 40.1684 26.3048C39.7566 26.3039 39.3386 26.3043 38.9144 26.3061C38.6158 26.3071 38.3174 26.2916 38.0193 26.2598C37.6097 26.2161 37.2104 26.2031 36.8077 26.126C34.8708 25.7548 33.3216 24.7341 32.0477 23.2099C31.9505 23.0932 31.8334 23.0591 31.6882 23.0591C30.2216 23.0591 28.7781 23.0591 27.3576 23.0591C27.2124 23.0591 27.1035 23.143 27.0152 23.2481C26.2467 24.161 25.2776 24.9886 24.1921 25.5051C23.5455 25.8126 22.8666 26.0266 22.1552 26.1472C21.9351 26.1845 21.703 26.2093 21.4587 26.2215C21.2971 26.2297 21.1386 26.245 20.9834 26.2673C20.8377 26.2886 20.6971 26.2916 20.5615 26.2761C20.2857 26.2447 20.007 26.2204 19.7252 26.2031C19.3951 26.1833 19.0794 26.1096 18.7582 26.0373C18.5096 25.9807 18.2767 25.8818 18.0288 25.8395C18.0231 25.8385 18.0177 25.8363 18.013 25.8329C18.0083 25.8295 18.0044 25.8252 18.0017 25.8201C17.999 25.815 17.9975 25.8094 17.9973 25.8036C17.9972 25.7979 17.9983 25.7922 18.0007 25.7869C18.4098 24.8854 18.8413 23.974 19.2951 23.0529C19.3061 23.0297 19.3223 23.0252 19.3438 23.0393C19.3684 23.0557 19.3947 23.0679 19.4225 23.0761C20.1752 23.2897 20.8875 23.3381 21.6669 23.1689C23.1325 22.851 24.2617 22.0108 25.0543 20.6485C25.1562 20.4738 25.2434 20.2996 25.316 20.1259C25.3283 20.0964 25.3492 20.0713 25.3759 20.0537C25.4026 20.0361 25.4339 20.0267 25.466 20.0269C28.1315 20.0406 30.7935 20.0424 33.4517 20.0324C33.7627 20.031 34.1086 20.0494 34.4058 19.9696C35.5619 19.6585 36.4899 18.7053 36.7597 17.5345C36.8091 17.3202 36.7878 17.1046 36.8467 16.8951C36.8762 16.7894 36.807 16.7 36.8036 16.5929C36.7881 16.1608 36.6883 15.7671 36.5043 15.4118C36.0653 14.563 35.1968 13.8145 34.2264 13.6692C33.9241 13.6242 33.6342 13.5826 33.3565 13.5444C32.636 13.4461 32.0998 13.1984 31.5724 12.701C31.2195 12.3681 30.9647 11.9798 30.8081 11.5363C30.6976 11.2243 30.588 10.9134 30.4793 10.6036C30.4725 10.5841 30.4727 10.5647 30.48 10.5456C30.4919 10.5138 30.5149 10.4979 30.5492 10.4979C31.3697 10.4961 32.1429 10.4947 32.8689 10.4938C33.2328 10.4933 33.6122 10.5124 34.0072 10.5511C35.6721 10.7148 37.1378 11.3972 38.2494 12.5966C39.1361 13.5532 39.6655 14.704 39.8376 16.0491C40.1842 18.7503 38.763 21.3444 36.2735 22.505C36.2406 22.5201 36.2116 22.5412 36.1865 22.5685Z" fill="#E9E6E3"/>
<path d="M9.24784 20.2957C9.03598 20.7643 8.83439 21.177 8.64308 21.5341C8.63967 21.5405 8.63484 21.546 8.62895 21.5502C8.62307 21.5544 8.61629 21.5572 8.60914 21.5584C8.60199 21.5596 8.59466 21.5591 8.58772 21.5571C8.58078 21.555 8.57441 21.5513 8.56911 21.5464C8.16503 21.178 7.76506 20.7972 7.46644 20.338C7.02446 19.6598 6.87379 18.9077 7.01442 18.0817C7.0651 17.7851 7.1829 17.4474 7.36782 17.0684C7.63675 16.5162 7.8913 15.9863 8.13147 15.4787C8.17165 15.3932 8.23923 15.3504 8.3342 15.3504C9.63137 15.35 10.9756 15.35 12.3668 15.3504C12.4444 15.3504 12.52 15.3445 12.5935 15.3327C12.5995 15.3318 12.6057 15.3324 12.6114 15.3346C12.6171 15.3367 12.6222 15.3403 12.6261 15.345C12.63 15.3496 12.6327 15.3552 12.6338 15.3612C12.6349 15.3671 12.6345 15.3733 12.6325 15.3791C12.4225 15.9754 12.2675 16.5851 12.1675 17.2083C12.1538 17.2929 12.1362 17.3768 12.1148 17.4601C12.0511 17.7119 12.0648 18.0025 12.0682 18.2693C12.0691 18.3357 12.0365 18.3696 11.9703 18.371C11.3749 18.3842 10.7936 18.3819 10.2265 18.3641C10.1981 18.3631 10.17 18.3705 10.1458 18.3853C10.1215 18.4001 10.1022 18.4217 10.0902 18.4474C9.80305 19.0719 9.52225 19.688 9.24784 20.2957Z" fill="#E9E6E3"/>
<path d="M31.3012 24.9095L29.1192 29.4133C29.1124 29.4272 29.1018 29.4389 29.0888 29.4471C29.0757 29.4553 29.0606 29.4597 29.0452 29.4597H24.0517C24.0449 29.4597 24.0382 29.458 24.0322 29.4549C24.0262 29.4517 24.021 29.4473 24.0171 29.4418C24.0132 29.4363 24.0107 29.43 24.0098 29.4234C24.0089 29.4168 24.0097 29.41 24.012 29.4038C24.3147 28.5455 24.6078 27.7103 25.2804 27.1576C25.6415 26.8606 26.0778 26.6525 26.5892 26.5333C26.744 26.4972 26.8618 26.4098 27.0241 26.4385C27.052 26.4435 27.0778 26.4385 27.1015 26.4235C27.1595 26.3871 27.2024 26.3393 27.2303 26.2802C27.4325 25.8517 27.6346 25.4235 27.8364 24.9954C27.8516 24.9634 27.8755 24.9363 27.9055 24.9174C27.9354 24.8984 27.9701 24.8883 28.0055 24.8883L31.2909 24.8924C31.293 24.8924 31.2949 24.8929 31.2967 24.8939C31.2984 24.8949 31.2999 24.8963 31.3009 24.898C31.302 24.8997 31.3025 24.9017 31.3026 24.9037C31.3026 24.9057 31.3022 24.9077 31.3012 24.9095Z" fill="#E9E6E3"/>
</g>
<defs>
<clipPath id="clip0_342_1118">
<rect width="212" height="32" fill="white" transform="translate(0.770203)"/>
</clipPath>
</defs>
</svg>
