<svg width="156" height="32" viewBox="0 0 156 32" fill="none" xmlns="http://www.w3.org/2000/svg">
<rect width="156" height="32" fill="#1E1E1E"/>
<g id="Main Page" clip-path="url(#clip0_0_1)">
<rect width="1920" height="3554" transform="translate(-133 -763)" fill="#121216"/>
<g id="Logo 1" clip-path="url(#clip1_0_1)">
<g id="Group">
<path id="Vector" d="M10.3803 21.396L9.16846 20.7014" stroke="#E9E6E3" stroke-width="0.266667"/>
<path id="Vector_2" d="M20.0426 20.8467L18.8024 21.544" stroke="#E9E6E3" stroke-width="0.266667"/>
</g>
<path id="Vector_3" d="M14.8497 7.05603C15.6972 4.71736 17.3908 1.1027 20.3907 0.993364C23.4162 0.881364 24.4634 4.05336 24.5458 6.43336C24.6573 9.61914 23.9722 12.6156 22.4905 15.4227C22.4698 15.4618 22.473 15.4987 22.4999 15.5334C22.8157 15.928 23.0609 16.2671 23.2354 16.5507C25.0694 19.5387 24.9034 23.2534 22.7078 26.0174C18.7187 31.0374 10.7568 30.9347 6.83786 25.9534C4.38991 22.8427 4.62202 18.528 7.1307 15.5174C7.15949 15.4818 7.16354 15.4436 7.14285 15.4027C5.61119 12.4907 4.85278 9.1747 5.11728 5.90003C5.19645 4.92047 5.45285 3.98981 5.88648 3.10803C7.03894 0.765364 9.73115 0.325364 11.7068 2.00936C13.2128 3.2947 14.175 5.2227 14.7917 7.0547C14.8106 7.10981 14.8299 7.11025 14.8497 7.05603ZM16.0292 14.2667C15.2258 14.1503 14.4224 14.1494 13.619 14.264C13.5731 14.2711 13.552 14.252 13.5556 14.2067C13.8201 11.196 13.2636 8.34625 11.8863 5.65736C11.4355 4.77603 10.6569 3.6107 9.72036 3.2067C8.47479 2.66936 7.69883 3.8507 7.44648 4.8507C7.20447 5.80359 7.11586 6.80892 7.18063 7.8667C7.34797 10.56 8.18735 13.5507 9.88499 15.696C9.91288 15.7307 9.90928 15.7627 9.8742 15.792C9.53593 16.0765 9.29032 16.2956 9.13738 16.4494C7.46672 18.1307 6.82842 20.4427 7.49776 22.6934C8.34928 25.5547 11.1967 27.368 14.1278 27.6174C16.9765 27.8614 19.944 26.5854 21.4581 24.1467C23.2368 21.2827 22.3488 17.7854 19.7362 15.8107C19.6993 15.7831 19.6957 15.7516 19.7254 15.716C21.6349 13.4294 22.4541 9.9507 22.4581 7.03336C22.4595 5.89603 22.1977 2.92136 20.388 3.09203C19.3165 3.19336 18.3233 4.57603 17.8631 5.4347C16.457 8.05736 15.7539 11.2094 16.1128 14.188C16.12 14.2503 16.0922 14.2765 16.0292 14.2667Z" fill="#E9E6E3"/>
<path id="Vector_4" d="M29.7804 7.53068C29.7804 7.92709 29.621 8.30726 29.3373 8.58757C29.0536 8.86787 28.6689 9.02534 28.2676 9.02534C27.8664 9.02534 27.4817 8.86787 27.198 8.58757C26.9143 8.30726 26.7549 7.92709 26.7549 7.53068C26.7549 7.13427 26.9143 6.75409 27.198 6.47379C27.4817 6.19348 27.8664 6.03601 28.2676 6.03601C28.6689 6.03601 29.0536 6.19348 29.3373 6.47379C29.621 6.75409 29.7804 7.13427 29.7804 7.53068ZM29.5901 7.52801C29.5901 7.18181 29.451 6.8498 29.2032 6.605C28.9554 6.3602 28.6194 6.22268 28.269 6.22268C27.9186 6.22268 27.5826 6.3602 27.3348 6.605C27.087 6.8498 26.9479 7.18181 26.9479 7.52801C26.9479 7.87421 27.087 8.20622 27.3348 8.45102C27.5826 8.69582 27.9186 8.83334 28.269 8.83334C28.6194 8.83334 28.9554 8.69582 29.2032 8.45102C29.451 8.20622 29.5901 7.87421 29.5901 7.52801Z" fill="#E9E6E3"/>
<path id="Vector_5" d="M28.5201 7.69333L28.8035 8.18C28.8359 8.236 28.8192 8.26444 28.7535 8.26533L28.6847 8.26666C28.6262 8.26666 28.5822 8.24177 28.5525 8.192C28.4688 8.05155 28.3824 7.90088 28.2934 7.74C28.238 7.64 28.1584 7.58666 28.0491 7.61066C28.0086 7.61866 27.9884 7.64311 27.9884 7.684V8.20933C27.9884 8.24488 27.9704 8.26311 27.9344 8.264L27.8399 8.26533C27.7932 8.26622 27.7698 8.24355 27.7698 8.19733L27.7711 6.804C27.7711 6.76488 27.7909 6.74266 27.8305 6.73733C28.3298 6.67733 29.1584 6.77733 28.7697 7.428C28.7436 7.47155 28.7077 7.504 28.6618 7.52533L28.5579 7.57333C28.5012 7.6 28.4886 7.64 28.5201 7.69333ZM27.987 6.92933L27.9924 7.42266C27.9924 7.43398 27.997 7.44483 28.0051 7.45283C28.0132 7.46083 28.0242 7.46533 28.0356 7.46533L28.3379 7.46266C28.4138 7.46191 28.4862 7.43383 28.5394 7.38457C28.5925 7.33531 28.622 7.26892 28.6213 7.2V7.14133C28.621 7.10717 28.6132 7.07342 28.5985 7.04199C28.5838 7.01057 28.5625 6.9821 28.5357 6.9582C28.5088 6.9343 28.4771 6.91545 28.4422 6.90272C28.4074 6.88998 28.3701 6.88362 28.3325 6.884L28.0302 6.88666C28.0188 6.88666 28.0078 6.89116 27.9997 6.89916C27.9916 6.90716 27.987 6.91801 27.987 6.92933Z" fill="#E9E6E3"/>
<path id="Vector_6" d="M34.7858 19.8307C34.8182 19.9436 34.8506 19.9436 34.883 19.8307L37.3418 11.3107C37.3544 11.2662 37.384 11.244 37.4308 11.244L40.2566 11.2454C40.2953 11.2454 40.3201 11.2636 40.3309 11.3L42.7923 19.8334C42.8247 19.9454 42.8571 19.9454 42.8895 19.8334L45.3496 11.2987C45.3595 11.2631 45.3833 11.2454 45.4211 11.2454L48.9365 11.244C48.9407 11.244 48.9449 11.245 48.9487 11.2469C48.9525 11.2488 48.9557 11.2517 48.9582 11.2552C48.9607 11.2587 48.9624 11.2627 48.963 11.2671C48.9637 11.2714 48.9634 11.2758 48.9621 11.28L45.0662 23.104C45.0527 23.1458 45.0239 23.1667 44.9798 23.1667H41.2026C41.1567 23.1667 41.127 23.1445 41.1136 23.1L38.8748 15.368C38.8451 15.264 38.8149 15.264 38.7843 15.368L36.5591 23.104C36.5465 23.1458 36.5186 23.1667 36.4754 23.1667H32.7022C32.6537 23.1667 32.6217 23.1436 32.6064 23.0974L28.7064 11.3134C28.692 11.268 28.7087 11.2454 28.7564 11.2454L32.2218 11.244C32.2686 11.244 32.2987 11.2662 32.3122 11.3107L34.7858 19.8307Z" fill="#E9E6E3"/>
<path id="Vector_7" d="M53.4775 15.832L60.6918 15.8333C60.704 15.8333 60.7156 15.8381 60.7242 15.8466C60.7328 15.8551 60.7377 15.8666 60.7377 15.8787V18.196C60.7377 18.2019 60.7365 18.2078 60.7342 18.2133C60.7319 18.2188 60.7285 18.2238 60.7242 18.228C60.72 18.2323 60.7149 18.2356 60.7093 18.2379C60.7038 18.2402 60.6978 18.2413 60.6918 18.2413L53.4775 18.24C53.4653 18.24 53.4536 18.2448 53.445 18.2533C53.4364 18.2618 53.4316 18.2733 53.4316 18.2853V20.704C53.4316 20.716 53.4364 20.7275 53.445 20.736C53.4536 20.7445 53.4653 20.7493 53.4775 20.7493H61.349C61.3612 20.7493 61.3728 20.7541 61.3814 20.7626C61.39 20.7711 61.3949 20.7826 61.3949 20.7947L61.3962 23.1213C61.3962 23.1333 61.3914 23.1449 61.3828 23.1534C61.3742 23.1619 61.3625 23.1667 61.3503 23.1667H50.0525C50.0403 23.1667 50.0286 23.1619 50.02 23.1534C50.0114 23.1449 50.0066 23.1333 50.0066 23.1213V11.2853C50.0066 11.2733 50.0114 11.2618 50.02 11.2533C50.0286 11.2448 50.0403 11.24 50.0525 11.24L61.1978 11.244C61.21 11.244 61.2217 11.2488 61.2303 11.2573C61.2389 11.2658 61.2437 11.2773 61.2437 11.2893V13.616C61.2437 13.628 61.2389 13.6395 61.2303 13.648C61.2217 13.6565 61.21 13.6613 61.1978 13.6613H53.4802C53.468 13.6613 53.4563 13.6661 53.4477 13.6746C53.4391 13.6831 53.4343 13.6946 53.4343 13.7067L53.4316 15.7867C53.4316 15.7987 53.4364 15.8102 53.445 15.8187C53.4536 15.8272 53.4653 15.832 53.4775 15.832Z" fill="#E9E6E3"/>
<path id="Vector_8" d="M74.0825 16.8027C74.0651 16.8071 74.0496 16.8172 74.0387 16.8315C74.0279 16.8457 74.0222 16.8631 74.0227 16.8809C74.0231 16.8987 74.0297 16.9159 74.0413 16.9295C74.0529 16.9431 74.0689 16.9525 74.0866 16.956C75.4388 17.1773 76.3928 18.016 76.5143 19.4133C76.8193 22.9107 73.4051 23.1587 70.8573 23.164C68.3032 23.1693 65.749 23.1693 63.1949 23.164C63.1499 23.164 63.1274 23.1418 63.1274 23.0973V11.3067C63.1274 11.2684 63.1468 11.2489 63.1855 11.248C66.0635 11.2382 68.9347 11.2356 71.7992 11.24C72.4847 11.2409 73.1509 11.3284 73.7978 11.5027C75.3753 11.928 76.158 12.8267 76.0663 14.4653C76.0001 15.672 75.2809 16.5427 74.0825 16.8027ZM66.5484 13.7293V16.012C66.5484 16.0307 66.5559 16.0487 66.5693 16.062C66.5827 16.0752 66.6009 16.0827 66.6199 16.0827H71.5442C71.8605 16.0827 72.164 15.9721 72.3877 15.7753C72.6114 15.5785 72.7371 15.3116 72.7371 15.0333V14.708C72.7371 14.4297 72.6114 14.1628 72.3877 13.966C72.164 13.7692 71.8605 13.6587 71.5442 13.6587H66.6199C66.6009 13.6587 66.5827 13.6661 66.5693 13.6794C66.5559 13.6926 66.5484 13.7106 66.5484 13.7293ZM66.5524 18.2507L66.547 20.6827C66.547 20.6982 66.5533 20.7131 66.5644 20.7241C66.5756 20.7352 66.5907 20.7413 66.6064 20.7413L71.7209 20.7493C71.8925 20.7497 72.0625 20.7219 72.2211 20.6676C72.3797 20.6133 72.524 20.5334 72.6455 20.4326C72.7671 20.3318 72.8636 20.2121 72.9295 20.0802C72.9955 19.9483 73.0296 19.8069 73.0299 19.664V19.2907C73.0301 19.0024 72.893 18.7257 72.6486 18.5215C72.4042 18.3173 72.0725 18.2021 71.7263 18.2013L66.6118 18.192C66.5961 18.192 66.581 18.1982 66.5698 18.2092C66.5587 18.2202 66.5524 18.2351 66.5524 18.2507Z" fill="#E9E6E3"/>
<path id="Vector_9" d="M93.6731 16.8173C93.5256 16.876 93.5296 16.9209 93.6853 16.952C95.0847 17.232 96.001 18.0026 96.1251 19.4666C96.1782 20.0951 96.086 20.6702 95.8485 21.192C94.9875 23.0866 92.3412 23.1626 90.5167 23.164C87.9239 23.1675 85.3338 23.168 82.7464 23.1653C82.7381 23.1653 82.7302 23.1621 82.7244 23.1563C82.7186 23.1506 82.7153 23.1428 82.7153 23.1346V11.2986C82.7153 11.2844 82.721 11.2707 82.7311 11.2604C82.7411 11.2502 82.7549 11.2443 82.7693 11.244C85.6482 11.236 88.5262 11.2404 91.4033 11.2573C92.9903 11.2666 95.1319 11.5866 95.5813 13.4333C95.9241 14.8386 95.4544 16.22 93.9754 16.7106C93.8423 16.7542 93.7415 16.7897 93.6731 16.8173ZM86.1417 13.744V16.0053C86.1417 16.0279 86.1508 16.0496 86.167 16.0656C86.1832 16.0816 86.2051 16.0906 86.228 16.0906H91.1266C91.4509 16.0906 91.7619 15.9754 91.9912 15.7704C92.2205 15.5654 92.3493 15.2873 92.3493 14.9973V14.752C92.3493 14.462 92.2205 14.1839 91.9912 13.9789C91.7619 13.7738 91.4509 13.6586 91.1266 13.6586H86.228C86.2051 13.6586 86.1832 13.6676 86.167 13.6836C86.1508 13.6996 86.1417 13.7213 86.1417 13.744ZM86.1336 18.288L86.139 20.664C86.139 20.6884 86.1488 20.7118 86.1662 20.729C86.1837 20.7463 86.2074 20.756 86.2321 20.756L91.2683 20.748C91.6337 20.7472 91.9838 20.6271 92.2417 20.414C92.4996 20.201 92.6441 19.9125 92.6435 19.612V19.3186C92.6432 19.1698 92.6072 19.0225 92.5377 18.8851C92.4681 18.7477 92.3663 18.6229 92.2381 18.5179C92.1099 18.4129 91.9578 18.3298 91.7905 18.2731C91.6232 18.2165 91.4439 18.1876 91.2629 18.188L86.2267 18.196C86.202 18.196 86.1783 18.2057 86.1608 18.2229C86.1434 18.2402 86.1336 18.2636 86.1336 18.288Z" fill="#E9E6E3"/>
<path id="Vector_10" d="M110.397 11.3107C110.436 13.6067 110.397 15.9013 110.432 18.1987C110.449 19.2636 110.267 20.1862 109.884 20.9667C109.148 22.4733 107.71 23.092 106.109 23.2813C104.578 23.4618 103.095 23.4507 101.658 23.248C98.8861 22.8587 97.6904 21.0173 97.6797 18.38C97.6698 16.0245 97.6693 13.6685 97.6783 11.312C97.6783 11.2685 97.7008 11.2467 97.7458 11.2467L101.018 11.2427C101.07 11.2427 101.096 11.268 101.095 11.3187C101.092 13.4173 101.092 15.4849 101.097 17.5213C101.099 18.9093 101.071 20.476 102.806 20.8653C103.621 21.0485 104.441 21.0498 105.269 20.8693C106.515 20.5987 106.948 19.588 106.955 18.4333C106.966 16.0511 106.974 13.6698 106.978 11.2893C106.978 11.2836 106.979 11.2778 106.981 11.2725C106.983 11.2672 106.986 11.2623 106.991 11.2582C106.995 11.2541 107 11.2509 107.005 11.2487C107.01 11.2465 107.016 11.2453 107.022 11.2453H110.33C110.374 11.2453 110.396 11.2671 110.397 11.3107Z" fill="#E9E6E3"/>
<path id="Vector_11" d="M115.871 23.1667H112.527C112.516 23.1667 112.505 23.1623 112.497 23.1546C112.489 23.1468 112.485 23.1363 112.485 23.1253V11.2747C112.485 11.2637 112.489 11.2532 112.497 11.2454C112.505 11.2377 112.516 11.2333 112.527 11.2333L116.122 11.2387C116.128 11.2388 116.134 11.2403 116.14 11.243C116.145 11.2458 116.15 11.2498 116.154 11.2547L122.193 19.076C122.198 19.0831 122.206 19.0883 122.214 19.091C122.223 19.0936 122.232 19.0935 122.24 19.0907C122.249 19.0879 122.256 19.0825 122.261 19.0753C122.266 19.0681 122.269 19.0595 122.269 19.0507L122.267 11.2773C122.267 11.2664 122.272 11.2559 122.28 11.2481C122.287 11.2404 122.298 11.236 122.309 11.236L125.656 11.2467C125.667 11.2467 125.678 11.251 125.685 11.2588C125.693 11.2665 125.698 11.277 125.698 11.288L125.696 23.1253C125.696 23.1363 125.692 23.1468 125.684 23.1546C125.676 23.1623 125.666 23.1667 125.654 23.1667H122.041C122.034 23.1666 122.028 23.1651 122.023 23.1623C122.017 23.1595 122.012 23.1556 122.008 23.1507L115.989 15.3533C115.984 15.3462 115.977 15.341 115.968 15.3383C115.96 15.3357 115.951 15.3358 115.942 15.3386C115.934 15.3414 115.927 15.3469 115.921 15.3541C115.916 15.3613 115.914 15.3699 115.914 15.3787L115.913 23.1253C115.913 23.1363 115.908 23.1468 115.9 23.1546C115.892 23.1623 115.882 23.1667 115.871 23.1667Z" fill="#E9E6E3"/>
<path id="Vector_12" d="M131.179 15.38V23.1213C131.179 23.1334 131.174 23.1449 131.166 23.1534C131.157 23.1619 131.146 23.1667 131.133 23.1667H127.8C127.788 23.1667 127.776 23.1619 127.768 23.1534C127.759 23.1449 127.754 23.1334 127.754 23.1213L127.753 11.28C127.753 11.268 127.758 11.2565 127.766 11.248C127.775 11.2395 127.787 11.2347 127.799 11.2347L131.391 11.236C131.398 11.236 131.405 11.2375 131.411 11.2405C131.418 11.2435 131.423 11.2479 131.428 11.2533L137.457 19.0613C137.463 19.0689 137.471 19.0745 137.48 19.0772C137.489 19.0799 137.499 19.0798 137.508 19.0767C137.518 19.0736 137.525 19.0677 137.531 19.0599C137.537 19.0522 137.539 19.0429 137.539 19.0333L137.533 11.2853C137.533 11.2733 137.537 11.2618 137.546 11.2533C137.555 11.2448 137.566 11.24 137.579 11.24L140.918 11.2427C140.931 11.2427 140.942 11.2475 140.951 11.256C140.96 11.2645 140.964 11.276 140.964 11.288V23.1213C140.964 23.1334 140.96 23.1449 140.951 23.1534C140.942 23.1619 140.931 23.1667 140.918 23.1667H137.318C137.311 23.1667 137.304 23.1652 137.298 23.1622C137.291 23.1592 137.286 23.1548 137.282 23.1493L131.262 15.352C131.256 15.3445 131.248 15.3389 131.238 15.3362C131.229 15.3334 131.219 15.3336 131.21 15.3367C131.201 15.3398 131.193 15.3456 131.188 15.3534C131.182 15.3612 131.179 15.3705 131.179 15.38Z" fill="#E9E6E3"/>
<path id="Vector_13" d="M149.314 16.252L152.679 11.2654C152.683 11.2589 152.689 11.2535 152.696 11.2498C152.703 11.2461 152.711 11.2441 152.718 11.244L156.487 11.2454C156.496 11.2455 156.504 11.248 156.512 11.2525C156.519 11.257 156.525 11.2633 156.529 11.2708C156.532 11.2784 156.534 11.2868 156.534 11.2952C156.533 11.3036 156.53 11.3118 156.525 11.3187L150.998 18.9414C150.992 18.9491 150.989 18.9584 150.988 18.968L150.994 23.12C150.994 23.1324 150.989 23.1443 150.98 23.153C150.971 23.1618 150.959 23.1667 150.946 23.1667H147.623C147.61 23.1667 147.598 23.1618 147.589 23.153C147.58 23.1443 147.575 23.1324 147.575 23.12V18.9654C147.575 18.9557 147.572 18.9464 147.566 18.9387L142.039 11.3187C142.034 11.3118 142.031 11.3036 142.03 11.2952C142.03 11.2868 142.031 11.2784 142.035 11.2708C142.039 11.2633 142.045 11.257 142.052 11.2525C142.059 11.248 142.068 11.2455 142.076 11.2454L145.831 11.244C145.838 11.2441 145.846 11.2461 145.853 11.2498C145.86 11.2535 145.865 11.2589 145.87 11.2654L149.235 16.252C149.24 16.2583 149.245 16.2635 149.252 16.2671C149.259 16.2707 149.267 16.2726 149.274 16.2726C149.282 16.2726 149.29 16.2707 149.297 16.2671C149.303 16.2635 149.309 16.2583 149.314 16.252Z" fill="#E9E6E3"/>
<path id="Vector_14" d="M10.3803 21.396L9.16846 20.7014L12.7081 18.672C12.713 18.6693 12.7186 18.6679 12.7242 18.668C12.7299 18.6681 12.7354 18.6697 12.7403 18.6727C12.7452 18.6756 12.7493 18.6798 12.7522 18.6849C12.7551 18.6899 12.7566 18.6956 12.7567 18.7014L12.7581 19.964C12.7581 20.0129 12.7365 20.0498 12.6933 20.0747L10.3803 21.396Z" fill="#E9E6E3"/>
<path id="Vector_15" d="M16.3532 20.376L13.1211 24.2893C13.1155 24.2962 13.1079 24.3012 13.0994 24.3038C13.0909 24.3065 13.0817 24.3066 13.0731 24.3042C13.0645 24.3018 13.0568 24.297 13.051 24.2903C13.0451 24.2836 13.0414 24.2754 13.0402 24.2667L12.831 22.836C12.8301 22.8296 12.8306 22.823 12.8325 22.8168C12.8343 22.8106 12.8375 22.8049 12.8418 22.8L16.0941 18.952C16.0998 18.9456 16.1073 18.9409 16.1156 18.9385C16.1239 18.9361 16.1328 18.9361 16.1411 18.9385C16.1494 18.9409 16.1569 18.9455 16.1627 18.9519C16.1684 18.9583 16.1723 18.9662 16.1737 18.9747L16.3626 20.3413C16.3635 20.3474 16.3631 20.3537 16.3615 20.3596C16.3599 20.3656 16.357 20.3711 16.3532 20.376Z" fill="#E9E6E3"/>
<path id="Vector_16" d="M20.0426 20.8467L18.8024 21.544L16.6784 20.524C16.659 20.5151 16.6422 20.5013 16.6297 20.484C16.6172 20.4667 16.6093 20.4466 16.6068 20.4254L16.4287 19.072C16.428 19.0657 16.429 19.0594 16.4316 19.0536C16.4343 19.0479 16.4385 19.0429 16.4437 19.0394C16.449 19.0358 16.4552 19.0337 16.4616 19.0334C16.468 19.033 16.4743 19.0344 16.48 19.0374L20.0426 20.8467Z" fill="#E9E6E3"/>
<path id="Vector_17" d="M9.16846 20.7014L10.3803 21.396L12.5354 22.6534C12.5561 22.6649 12.5682 22.6822 12.5718 22.7054L12.7783 24.14C12.7792 24.146 12.7783 24.1521 12.7758 24.1576C12.7733 24.1631 12.7693 24.1678 12.7642 24.1711C12.7591 24.1745 12.7532 24.1763 12.7471 24.1765C12.741 24.1766 12.735 24.1751 12.7297 24.172L9.21704 22.1587C9.20306 22.1506 9.19148 22.1389 9.18344 22.1249C9.17539 22.1108 9.17116 22.0949 9.17116 22.0787L9.16846 20.7014Z" fill="#E9E6E3"/>
<path id="Vector_18" d="M20.0427 20.8467L20.0562 22.1067C20.0571 22.1582 20.0346 22.1973 19.9887 22.224L16.1967 24.388C16.176 24.4005 16.1657 24.3947 16.1657 24.3707L16.1643 23.036C16.1643 23.0129 16.1747 22.9956 16.1953 22.984L18.8025 21.544L20.0427 20.8467Z" fill="#E9E6E3"/>
</g>
</g>
<defs>
<clipPath id="clip0_0_1">
<rect width="1920" height="3554" fill="white" transform="translate(-133 -763)"/>
</clipPath>
<clipPath id="clip1_0_1">
<rect width="156" height="32" fill="white"/>
</clipPath>
</defs>
</svg>
