<svg width="718" height="394" viewBox="0 0 718 394" fill="none" xmlns="http://www.w3.org/2000/svg">
<g opacity="0.7" filter="url(#filter0_i_115_2196)">
<path fill-rule="evenodd" clip-rule="evenodd" d="M637.052 1.09176C603.497 5.97249 565.672 23.0638 536.921 46.3378C520.927 59.285 502.445 79.505 493.264 94.1011C491.37 97.1127 490.858 100.792 491.857 104.206L492.095 105.022C494.414 112.949 499.109 122.169 504.199 128.794C507.85 133.548 507.981 133.948 505.658 133.267C496.327 130.525 478.107 116.373 473.333 108.157C468.63 100.063 468.053 95.8444 470.783 89.5387C473.094 84.2002 481.706 72.0939 489.642 63.0263L489.827 62.8158C492.034 60.2941 492.487 56.6835 490.969 53.6951C487.573 47.002 482.03 30.5572 480.279 21.9759C479.457 17.9478 475.807 15.131 471.702 15.3574L467.223 15.6044C426.028 17.8768 390.771 42.0411 372.789 80.3272C360.673 106.127 358.387 134.59 366.126 163.323C371.586 183.596 383.941 204.445 399.917 220.35C408.198 228.593 420.473 238.715 423.705 239.964C424.395 240.23 427.835 238.618 431.353 236.383C440.1 230.823 450.332 226.348 459.212 224.198C468.024 222.063 489.829 221.683 493.167 223.605C494.515 224.381 494.779 224.888 493.844 224.909C491.395 224.962 475.118 233.533 466.522 239.297C454.528 247.339 434.891 266.697 430.09 275.212C429.496 276.268 415.148 268.648 404.776 261.768C363.624 234.471 338.441 192.049 333.714 142.06C333.201 136.626 332.944 124.916 333.144 116.038L333.412 104.191C333.469 101.667 331.802 99.4272 329.368 98.7567C327.091 98.1288 319.83 97.0322 313.234 96.3186C291.082 93.9221 263.193 98.1508 238.9 107.588C211.173 118.36 190.737 131.054 149.004 163.431C108.836 194.593 93.5392 204.146 72.6598 211.106C51.4081 218.19 28.3002 217.51 7.57327 209.191C3.68752 207.632 0.308914 206.554 0.0658472 206.797C-0.674401 207.532 4.99122 219.055 8.79521 224.548C14.6509 233.005 26.9633 245.177 35.8021 251.248C47.0329 258.962 62.7549 266.184 75.7777 269.612C85.1777 272.085 88.8735 272.462 104.257 272.513C118.891 272.561 123.614 272.156 131.691 270.163C150.642 265.485 167.64 257.201 183.101 245.109C191.742 238.35 192.093 238.188 192.093 240.956C192.093 250.361 182.899 272.044 173.828 284.034C167.914 291.853 157.733 300.791 148.163 306.567C144.029 309.063 141.355 313.401 140.984 318.215L140.833 320.161C140.425 325.451 139.822 333.238 139.494 337.464C139.166 341.691 137.998 355.77 136.9 368.751C135.801 381.732 135.121 392.723 135.389 393.177C135.657 393.63 160.676 394 190.988 394C221.299 394 246.31 393.63 246.565 393.177C246.821 392.723 245.905 381.238 244.531 367.653C243.155 354.068 242.354 342.648 242.75 342.275C243.144 341.902 252.29 335.121 263.073 327.205L269.167 322.731C277.737 316.44 288.638 314.234 298.98 316.698C325.049 322.91 348.192 328.133 349.646 328.133C350.384 328.133 353.437 325.046 356.429 321.272C359.421 317.499 364.313 312.002 367.302 309.059C372.743 303.699 383.982 295.576 384.81 296.405C385.052 296.648 382.809 305.492 379.826 316.058C376.842 326.624 374.594 336.103 374.828 337.123C375.063 338.144 382.347 351.358 391.015 366.489C400.762 383.504 418.871 394 438.48 394H461.293C491.279 394 515.813 393.719 515.813 393.376C515.813 393.034 510.616 385.889 504.263 377.498C485.652 352.918 478.492 334.738 481.21 318.967C486.246 289.759 514.387 270.847 552.707 270.916C578.819 270.963 598.716 277.128 616.904 290.808C624.997 296.893 625.17 296.909 634.032 292.368C656.002 281.11 672.701 253.924 672.701 229.417C672.701 218.362 670.833 211.08 665.292 200.547L664.625 199.279C662.691 195.6 663.234 191.109 665.99 187.998C671.254 182.057 676.211 172.193 678.321 163.466C680.134 155.964 680.129 138.669 678.312 130.216C677.712 127.423 674.292 126.356 672.21 128.312L667.264 132.96C650.863 148.375 637.74 154.557 619.387 155.514C600.987 156.474 582.212 150.004 563.874 136.385C550.885 126.739 551.311 127.688 554.967 116.535C562.592 93.2689 579.616 68.2659 610.839 34.4774C618.65 26.0245 629.513 15.1565 634.979 10.3263C644.116 2.251 646.432 -0.321084 644.251 0.0313033C643.795 0.104855 640.556 0.582392 637.052 1.09176ZM693.141 58.1971C649.84 62.7211 612.917 78.5521 587.16 103.637C582.82 107.864 577.851 113.185 576.118 115.463C573.111 119.413 573.054 119.7 574.874 121.698C578.133 125.277 596.633 133.814 604.753 135.487C617.669 138.149 617.147 138.355 627.513 126.546C649.276 101.752 681.336 76.3412 707 63.5444C713.05 60.5277 718 57.8173 718 57.5209C718 56.7316 703.353 57.1301 693.141 58.1971ZM521.6 171.918C521.152 173.006 520.84 176.731 520.906 180.198C521.323 201.709 546.38 213.571 563.55 200.387C566.013 198.495 569.075 195.13 570.357 192.907L570.797 192.144C571.919 190.199 571.63 187.748 570.088 186.116C563.732 179.394 545.311 172.422 529.334 170.691C523.288 170.036 522.313 170.19 521.6 171.918ZM536.085 293.465C523.548 296.486 509.852 306.114 504.503 315.666C503.501 317.455 504.354 319.715 506.288 320.396L512.789 322.684C518.402 324.66 523.339 326.57 523.761 326.93C524.182 327.29 521.871 334.158 518.624 342.193L515.058 351.017C513.753 354.247 515.232 357.931 518.409 359.361C521.539 360.769 538.934 369.139 557.065 377.96C575.196 386.782 590.484 394 591.039 394C591.593 394 592.047 393.167 592.047 392.149C592.047 391.132 595.309 373.801 599.295 353.636C607.598 311.638 607.827 315.386 596.444 306.884C587.975 300.559 577.965 295.756 568.748 293.598C560.304 291.62 544.014 291.554 536.085 293.465ZM284.094 341.245C279.702 341.657 275.872 342.227 275.584 342.512C275.297 342.798 282.397 354.376 291.363 368.242C301.538 383.977 318.946 393.54 337.684 393.687L344.343 393.74C364.516 393.899 381.022 393.756 381.022 393.423C381.022 392.124 376.093 383.281 372.134 377.475C360.853 360.933 336.997 346.303 315.145 342.527C305.746 340.903 293.264 340.388 284.094 341.245Z" fill="#FBFAF9"/>
</g>
<defs>
<filter id="filter0_i_115_2196" x="0" y="0" width="718" height="394" filterUnits="userSpaceOnUse" color-interpolation-filters="sRGB">
<feFlood flood-opacity="0" result="BackgroundImageFix"/>
<feBlend mode="normal" in="SourceGraphic" in2="BackgroundImageFix" result="shape"/>
<feColorMatrix in="SourceAlpha" type="matrix" values="0 0 0 0 0 0 0 0 0 0 0 0 0 0 0 0 0 0 127 0" result="hardAlpha"/>
<feOffset dy="-8"/>
<feComposite in2="hardAlpha" operator="arithmetic" k2="-1" k3="1"/>
<feColorMatrix type="matrix" values="0 0 0 0 0.921569 0 0 0 0 0.905882 0 0 0 0 0.878431 0 0 0 1 0"/>
<feBlend mode="normal" in2="shape" result="effect1_innerShadow_115_2196"/>
</filter>
</defs>
</svg>
