<svg width="156" height="40" viewBox="0 0 156 40" fill="none" xmlns="http://www.w3.org/2000/svg">
<path d="M55.7061 19.324H55.7308C56.8631 19.324 57.0354 19.1517 60.9492 14.4501L61.0723 14.4747L59.3984 21.9086H59.3L58.34 20.3086H49.5031V20.2101L51.7184 18.4624V4.35782L49.5031 2.61013V2.51167H56.8877V2.61013L54.6723 4.35782V18.0932C54.6723 19.0286 54.9184 19.2747 55.7061 19.324ZM69.5458 20.3086V19.004C68.635 20.0132 67.5027 20.5794 66.0996 20.5794C63.9088 20.5794 62.8011 19.1763 62.8011 17.0594V9.52705L60.8319 8.12398V8.0009H65.4104V16.4932C65.4104 18.2655 65.755 19.2009 66.9858 19.2009C67.8227 19.2009 68.8073 18.4132 69.2996 16.9117V9.52705L67.3304 8.12398V8.0009H71.9088V18.7824L73.8781 20.1855V20.3086H69.5458ZM78.8209 8.0009V9.57629H78.8702C79.8056 8.34552 80.864 7.73013 82.2671 7.73013C84.4579 7.73013 85.5656 9.13321 85.5656 11.2501V18.7824L87.5348 20.2101V20.3086H82.9563V11.8163C82.9563 10.044 82.6117 9.10859 81.4548 9.10859C80.544 9.10859 79.5594 10.044 79.0671 11.644V18.7824L81.0363 20.2101V20.3086H74.4886V20.2101L76.4579 18.7824V9.52705L74.4886 8.09936V8.0009H78.8209ZM77.8117 18.5855L77.4425 19.2501H77.8117L77.5163 19.8163H77.5656L78.0086 19.1517H77.6148L77.8609 18.5855H77.8117ZM98.6098 3.02859L93.2929 6.64705H93.1698L94.2775 2.93013H98.6098V3.02859ZM99.9636 13.4163C99.9636 13.6624 99.939 13.8594 99.9144 14.0071H90.1421C90.6098 16.5671 93.0467 18.1424 95.5575 18.1424C97.2806 18.1424 98.4867 17.724 99.7175 16.764L99.8159 16.7886C98.979 19.4963 96.9852 20.6778 94.3513 20.6778C90.5606 20.6778 88.2713 17.9209 88.2713 14.3271C88.2713 10.7332 90.3636 7.73013 94.3267 7.73013C98.1175 7.73013 99.9636 10.4132 99.9636 13.4163ZM90.0683 12.8747H98.3883C97.3544 10.7824 95.6806 9.30552 93.4898 9.30552C91.4713 9.30552 90.1667 10.8317 90.0683 12.8747ZM91.2252 17.6009L90.8559 18.2655H91.2252L90.9298 18.8317H90.979L91.4221 18.1671H91.0283L91.2744 17.6009H91.2252ZM100.91 9.15782V8.0009H102.584V6.86859C103.396 5.95782 104.356 4.55475 105.094 3.17628H105.193V8.0009H108.048V9.15782H105.193V16.8132C105.193 18.7578 105.267 19.4471 106.005 19.4471C106.768 19.4471 107.088 17.8963 107.433 15.2624H107.531L108.294 19.3978C107.507 20.3086 106.547 20.6778 105.439 20.6778C103.101 20.6778 102.584 19.1024 102.584 17.2317V9.15782H100.91ZM110.338 4.82552C110.338 3.66859 111.347 2.75782 112.406 2.75782C113.243 2.75782 113.834 3.37321 113.834 4.21013C113.834 5.26859 112.898 6.25321 111.766 6.25321C110.929 6.25321 110.338 5.63782 110.338 4.82552ZM112.209 3.89013L111.84 4.55475H112.209L111.914 5.1209H111.963L112.406 4.45628H112.012L112.258 3.89013H112.209ZM108.96 8.0009H113.538V18.7824L115.507 20.2101V20.3086H108.96V20.2101L110.929 18.7824V9.52705L108.96 8.09936V8.0009ZM124.298 8.0009H128.631V8.09936L126.908 9.87167V23.5824L128.877 25.0101V25.1086H124.298V18.684H124.2C124.2 18.684 123.24 20.6286 120.877 20.6286C117.972 20.6286 116.495 17.5024 116.495 14.3763C116.495 10.1424 118.686 7.73013 121.738 7.73013C122.748 7.73013 123.658 7.85321 124.298 8.0009ZM124.298 18.044V10.6347C123.56 9.69936 122.477 9.20705 121.271 9.20705C119.425 9.20705 118.342 10.4624 118.342 12.7024C118.342 15.8778 120.335 18.1671 123.092 18.1671C123.683 18.1671 124.298 18.044 124.298 18.044ZM137.478 20.3086V19.004C136.568 20.0132 135.435 20.5794 134.032 20.5794C131.842 20.5794 130.734 19.1763 130.734 17.0594V9.52705L128.765 8.12398V8.0009H133.343V16.4932C133.343 18.2655 133.688 19.2009 134.918 19.2009C135.755 19.2009 136.74 18.4132 137.232 16.9117V9.52705L135.263 8.12398V8.0009H139.842V18.7824L141.811 20.1855V20.3086H137.478ZM154.242 13.4163C154.242 13.6624 154.218 13.8594 154.193 14.0071H144.421C144.889 16.5671 147.326 18.1424 149.836 18.1424C151.559 18.1424 152.766 17.724 153.996 16.764L154.095 16.7886C153.258 19.4963 151.264 20.6778 148.63 20.6778C144.839 20.6778 142.55 17.9209 142.55 14.3271C142.55 10.7332 144.642 7.73013 148.606 7.73013C152.396 7.73013 154.242 10.4132 154.242 13.4163ZM144.347 12.8747H152.667C151.633 10.7824 149.959 9.30552 147.769 9.30552C145.75 9.30552 144.446 10.8317 144.347 12.8747ZM145.504 17.6009L145.135 18.2655H145.504L145.209 18.8317H145.258L145.701 18.1671H145.307L145.553 17.6009H145.504Z" fill="url(#paint0_linear_543_4061)"/>
<path d="M52.176 36.2512C51.8099 36.2512 51.4473 36.1758 51.0883 36.0251C50.7365 35.8671 50.4709 35.6661 50.2914 35.422V36.1543H49.3868V28.1851H50.2914V31.4158C50.4637 31.1646 50.7222 30.9599 51.0668 30.802C51.4186 30.6369 51.7883 30.5543 52.176 30.5543C52.9514 30.5543 53.5904 30.8235 54.0929 31.362C54.5955 31.9005 54.8504 32.5789 54.8575 33.3974C54.8504 34.2661 54.5955 34.9589 54.0929 35.4758C53.5975 35.9928 52.9586 36.2512 52.176 36.2512ZM50.7652 31.9651C50.435 32.3528 50.2699 32.8302 50.2699 33.3974C50.2699 33.9646 50.435 34.4456 50.7652 34.8405C51.1027 35.2281 51.5514 35.422 52.1114 35.422C52.6642 35.422 53.1058 35.2281 53.436 34.8405C53.7734 34.4528 53.9422 33.9717 53.9422 33.3974C53.9422 32.8302 53.7734 32.3528 53.436 31.9651C53.1058 31.5774 52.6642 31.3835 52.1114 31.3835C51.5514 31.3835 51.1027 31.5774 50.7652 31.9651ZM56.6432 38.6205L57.7417 36.1112L55.3401 30.6512H56.3417L58.2263 35.0451L60.0355 30.6512H61.0586L57.6232 38.6205H56.6432ZM67.0672 36.1543L64.2349 28.6158H65.2472L67.5625 34.8943L69.8456 28.6158H70.8687L68.0256 36.1543H67.0672ZM71.9433 36.1543V28.1851H72.8479V36.1543H71.9433ZM76.1017 36.262C75.5489 36.262 75.093 36.104 74.734 35.7881C74.375 35.4651 74.1956 35.0522 74.1956 34.5497C74.1956 34.0687 74.3607 33.6702 74.6909 33.3543C75.0212 33.0384 75.4915 32.8589 76.1017 32.8158L77.8032 32.6974V32.622C77.8032 32.2917 77.6668 32.001 77.394 31.7497C77.1284 31.4912 76.7694 31.362 76.3171 31.362C75.915 31.362 75.592 31.4661 75.3479 31.6743C75.1109 31.8753 74.9458 32.1158 74.8525 32.3958L74.1417 32.0297C74.2638 31.6492 74.5043 31.3081 74.8632 31.0066C75.2294 30.7051 75.714 30.5543 76.3171 30.5543C77.035 30.5543 77.6094 30.7589 78.0402 31.1681C78.4709 31.5774 78.6863 32.062 78.6863 32.622V36.1543H77.8032V35.4866C77.6453 35.7163 77.4084 35.903 77.0925 36.0466C76.7838 36.1902 76.4535 36.262 76.1017 36.262ZM75.0894 34.5497C75.0894 34.8297 75.1899 35.0522 75.3909 35.2174C75.5991 35.3825 75.854 35.4651 76.1556 35.4651C76.694 35.4651 77.1068 35.3143 77.394 35.0128C77.6812 34.704 77.8248 34.3415 77.8248 33.9251V33.4835L76.1663 33.5912C75.8432 33.6128 75.5812 33.7025 75.3802 33.8605C75.1863 34.0184 75.0894 34.2481 75.0894 34.5497ZM82.6037 36.2512C81.8212 36.2512 81.1786 35.9928 80.676 35.4758C80.1806 34.9589 79.9294 34.2661 79.9222 33.3974C79.9294 32.5789 80.1842 31.9005 80.6868 31.362C81.1894 30.8235 81.8283 30.5543 82.6037 30.5543C82.9914 30.5543 83.3576 30.6369 83.7022 30.802C84.054 30.9599 84.316 31.1646 84.4883 31.4158V28.1851H85.3929V36.1543H84.4883V35.422C84.3088 35.6661 84.0396 35.8671 83.6806 36.0251C83.3288 36.1758 82.9699 36.2512 82.6037 36.2512ZM80.8376 33.3974C80.8376 33.9717 81.0027 34.4528 81.3329 34.8405C81.6704 35.2281 82.1155 35.422 82.6683 35.422C83.2283 35.422 83.6735 35.2281 84.0037 34.8405C84.3412 34.4456 84.5099 33.9646 84.5099 33.3974C84.5099 32.8302 84.3412 32.3528 84.0037 31.9651C83.6735 31.5774 83.2283 31.3835 82.6683 31.3835C82.1155 31.3835 81.6704 31.5774 81.3329 31.9651C81.0027 32.3528 80.8376 32.8302 80.8376 33.3974ZM89.9641 36.1543V28.6158H91.1918L93.701 34.9481L96.2102 28.6158H97.4164V36.1543H96.5118V30.1558L94.1102 36.1543H93.2594L90.8687 30.1558V36.1543H89.9641ZM103.787 35.4435C103.256 35.982 102.571 36.2512 101.731 36.2512C100.891 36.2512 100.201 35.982 99.6628 35.4435C99.1316 34.9051 98.8659 34.2266 98.8659 33.4081C98.8659 32.5969 99.1352 31.9184 99.6736 31.3728C100.212 30.8271 100.898 30.5543 101.731 30.5543C102.563 30.5543 103.249 30.8271 103.787 31.3728C104.326 31.9184 104.595 32.5969 104.595 33.4081C104.595 34.2194 104.326 34.8979 103.787 35.4435ZM100.341 31.9543C99.968 32.3348 99.7813 32.8194 99.7813 33.4081C99.7813 33.9969 99.968 34.4815 100.341 34.862C100.715 35.2353 101.178 35.422 101.731 35.422C102.283 35.422 102.746 35.2353 103.12 34.862C103.493 34.4815 103.68 33.9969 103.68 33.4081C103.68 32.8194 103.493 32.3348 103.12 31.9543C102.746 31.5738 102.283 31.3835 101.731 31.3835C101.178 31.3835 100.715 31.5738 100.341 31.9543ZM105.565 36.1543V35.3574L108.753 31.4481H105.576V30.6512H109.873V31.4481L106.674 35.3574H109.894V36.1543H105.565ZM111.345 36.1543V28.1851H112.25V31.3405C112.602 30.8163 113.154 30.5543 113.908 30.5543C114.511 30.5543 115.007 30.7589 115.394 31.1681C115.789 31.5702 115.987 32.0835 115.987 32.7081V36.1543H115.082V32.8697C115.082 32.4102 114.949 32.0476 114.684 31.782C114.418 31.5163 114.081 31.3835 113.671 31.3835C113.269 31.3835 112.932 31.5199 112.659 31.7928C112.386 32.0656 112.25 32.4246 112.25 32.8697V36.1543H111.345ZM119.235 36.262C118.682 36.262 118.226 36.104 117.867 35.7881C117.508 35.4651 117.328 35.0522 117.328 34.5497C117.328 34.0687 117.494 33.6702 117.824 33.3543C118.154 33.0384 118.624 32.8589 119.235 32.8158L120.936 32.6974V32.622C120.936 32.2917 120.8 32.001 120.527 31.7497C120.261 31.4912 119.902 31.362 119.45 31.362C119.048 31.362 118.725 31.4661 118.481 31.6743C118.244 31.8753 118.079 32.1158 117.985 32.3958L117.275 32.0297C117.397 31.6492 117.637 31.3081 117.996 31.0066C118.362 30.7051 118.847 30.5543 119.45 30.5543C120.168 30.5543 120.742 30.7589 121.173 31.1681C121.604 31.5774 121.819 32.062 121.819 32.622V36.1543H120.936V35.4866C120.778 35.7163 120.541 35.903 120.225 36.0466C119.917 36.1902 119.586 36.262 119.235 36.262ZM118.222 34.5497C118.222 34.8297 118.323 35.0522 118.524 35.2174C118.732 35.3825 118.987 35.4651 119.288 35.4651C119.827 35.4651 120.24 35.3143 120.527 35.0128C120.814 34.704 120.958 34.3415 120.958 33.9251V33.4835L119.299 33.5912C118.976 33.6128 118.714 33.7025 118.513 33.8605C118.319 34.0184 118.222 34.2481 118.222 34.5497ZM123.54 36.1543V30.6512H124.444V31.6528L126.609 30.5328V31.5128L124.444 32.5897V36.1543H123.54ZM132.076 35.4435C131.544 35.982 130.859 36.2512 130.019 36.2512C129.179 36.2512 128.489 35.982 127.951 35.4435C127.42 34.9051 127.154 34.2266 127.154 33.4081C127.154 32.5969 127.423 31.9184 127.962 31.3728C128.5 30.8271 129.186 30.5543 130.019 30.5543C130.852 30.5543 131.537 30.8271 132.076 31.3728C132.614 31.9184 132.883 32.5969 132.883 33.4081C132.883 34.2194 132.614 34.8979 132.076 35.4435ZM128.629 31.9543C128.256 32.3348 128.069 32.8194 128.069 33.4081C128.069 33.9969 128.256 34.4815 128.629 34.862C129.003 35.2353 129.466 35.422 130.019 35.422C130.572 35.422 131.035 35.2353 131.408 34.862C131.781 34.4815 131.968 33.9969 131.968 33.4081C131.968 32.8194 131.781 32.3348 131.408 31.9543C131.035 31.5738 130.572 31.3835 130.019 31.3835C129.466 31.3835 129.003 31.5738 128.629 31.9543ZM135.569 36.1543L133.319 30.6512H134.309L136.054 35.0881L137.734 30.6512H138.736L136.506 36.1543H135.569ZM141.643 36.2512C140.997 36.2512 140.48 36.1005 140.092 35.7989C139.704 35.4902 139.45 35.1456 139.328 34.7651L140.092 34.3774C140.157 34.643 140.325 34.8871 140.598 35.1097C140.878 35.3322 141.227 35.4435 141.643 35.4435C142.023 35.4435 142.325 35.3681 142.548 35.2174C142.777 35.0666 142.892 34.8692 142.892 34.6251C142.892 34.2302 142.627 33.9789 142.095 33.8712L141.051 33.6666C140.598 33.5805 140.247 33.4081 139.995 33.1497C139.751 32.884 139.629 32.5466 139.629 32.1374C139.629 31.6851 139.816 31.3081 140.189 31.0066C140.57 30.7051 141.061 30.5543 141.664 30.5543C142.275 30.5543 142.749 30.6907 143.086 30.9635C143.431 31.2363 143.657 31.5451 143.764 31.8897L143.011 32.2558C142.953 32.0117 142.81 31.7999 142.58 31.6205C142.35 31.4338 142.045 31.3405 141.664 31.3405C141.305 31.3405 141.018 31.4158 140.803 31.5666C140.595 31.7174 140.491 31.9076 140.491 32.1374C140.491 32.5179 140.728 32.7548 141.201 32.8481L142.332 33.0743C142.806 33.1676 143.169 33.3543 143.42 33.6343C143.678 33.9071 143.808 34.2374 143.808 34.6251C143.808 35.1133 143.603 35.5081 143.194 35.8097C142.792 36.104 142.275 36.2512 141.643 36.2512ZM145.205 36.1543V28.1851H146.109V32.5897H147.089L148.629 30.6512H149.717L147.811 33.0635L149.782 36.1543H148.705L146.949 33.4297H146.109V36.1543H145.205ZM151.41 38.6205L152.508 36.1112L150.106 30.6512H151.108L152.993 35.0451L154.802 30.6512H155.825L152.39 38.6205H151.41Z" fill="url(#paint1_linear_543_4061)"/>
<path d="M30.9329 33.2634C32.1506 33.841 33.7299 34.2834 35.0969 34.0914C35.1801 34.0794 35.2569 34.0397 35.315 33.9785C35.3731 33.9174 35.409 33.8384 35.4171 33.7542C35.437 33.5538 35.4121 33.358 35.3425 33.1665C34.8249 31.7375 34.2243 30.2634 35.5813 29.0514C37.0031 27.7827 38.4945 26.4806 39.6193 24.9914C39.7597 24.8045 39.7985 24.8239 39.7354 25.0499C39.2034 26.9519 38.4364 28.7014 37.4344 30.2985C36.9002 31.1516 36.7542 31.821 37.1043 32.7358C37.3775 33.4481 37.6451 34.1387 37.9072 34.8076C38.5658 36.4903 37.3432 37.1881 35.9082 36.9411C34.6009 36.7157 33.3766 36.3217 32.0312 36.512C31.6396 36.5666 31.0446 36.798 30.2461 37.2065C27.9932 38.3567 25.6607 39.4669 23.1523 39.9009C22.2814 40.0512 21.3474 40.1296 20.7734 39.3801C20.4914 39.0117 20.2408 38.5643 20.0219 38.0379C19.8814 37.7018 19.6762 37.4614 19.4064 37.3167C19.3574 37.2909 19.2999 37.2849 19.2455 37.3C19.0022 37.369 18.7743 37.4931 18.562 37.6723C18.0466 38.1074 17.519 38.5376 16.9793 38.9627C15.2308 40.3416 13.5701 40.1714 11.5711 39.2181C10.2406 38.5826 9.09367 37.8982 8.13036 37.1648C4.34625 34.285 1.49946 30.0781 0.0860122 25.357C-0.117488 24.677 0.040115 24.0443 0.55882 23.4589C1.31863 22.6025 1.99217 21.7879 2.01374 20.5859C2.02369 19.9882 1.91973 19.3188 1.70185 18.5776C1.24729 17.0317 0.739646 15.556 0.58868 13.9283C0.479188 12.7447 0.820936 11.6111 1.37171 10.5594C4.09077 5.36088 8.77073 1.4695 14.4494 0.0020868C14.4715 -0.00347789 14.4914 0.00208654 14.5091 0.0187806C14.5146 0.0239556 14.5189 0.0303208 14.5216 0.0373977C14.5243 0.0444745 14.5254 0.0520776 14.5247 0.0596332C14.5241 0.0671887 14.5218 0.0745005 14.5179 0.0810153C14.514 0.0875302 14.5088 0.093079 14.5025 0.097243C13.4507 0.786152 12.4752 1.63588 11.576 2.64643C9.11911 5.40429 7.39046 8.81155 6.93922 12.4709C6.79323 13.6562 6.78107 14.9956 6.90272 16.4892C7.17148 19.7645 8.40243 22.9314 10.2223 25.6492C11.5346 27.6074 13.2151 29.1566 15.3004 30.2484C15.9264 30.5756 16.5176 30.7899 17.0739 30.8911C18.3922 31.1315 19.7415 31.1799 21.1218 31.0364C22.2864 30.9145 23.4128 30.4053 24.5442 30.003C25.3195 29.727 26.0732 29.9017 26.8054 30.5272C28.1624 31.688 29.5383 32.6 30.9329 33.2634Z" fill="url(#paint2_linear_543_4061)"/>
<defs>
<linearGradient id="paint0_linear_543_4061" x1="101.73" y1="2.30859" x2="101.73" y2="27.3086" gradientUnits="userSpaceOnUse">
<stop stop-color="#E9E5E1"/>
<stop offset="1" stop-color="#E9E5E1" stop-opacity="0.7"/>
</linearGradient>
<linearGradient id="paint1_linear_543_4061" x1="102.23" y1="26.1543" x2="102.23" y2="39.1543" gradientUnits="userSpaceOnUse">
<stop stop-color="#E9E5E1"/>
<stop offset="1" stop-color="#E9E5E1" stop-opacity="0.7"/>
</linearGradient>
<linearGradient id="paint2_linear_543_4061" x1="19.8824" y1="0" x2="19.8824" y2="40" gradientUnits="userSpaceOnUse">
<stop stop-color="#E9E5E1"/>
<stop offset="1" stop-color="#E9E5E1" stop-opacity="0.7"/>
</linearGradient>
</defs>
</svg>
