<svg width="32" height="32" viewBox="0 0 32 32" fill="none" xmlns="http://www.w3.org/2000/svg">
<path d="M20.9442 11.1067C22.2013 12.3524 20.19 22.4831 18.1261 22.6616C16.3946 22.8113 15.8551 19.3965 15.4904 18.3141C15.1305 17.2459 14.73 16.8613 13.6706 16.5109C10.9793 15.6205 9.6336 15.1753 9.36717 14.4704C8.66167 12.6038 19.3386 9.51577 20.9442 11.1067Z" stroke="#F4D4C1" stroke-width="2"/>
<path d="M29.3337 15.9993C29.3337 23.3631 23.3641 29.3327 16.0003 29.3327C8.63653 29.3327 2.66699 23.3631 2.66699 15.9993C2.66699 8.63555 8.63653 2.66602 16.0003 2.66602C23.3641 2.66602 29.3337 8.63555 29.3337 15.9993Z" stroke="#F4D4C1" stroke-width="2"/>
</svg>
