<svg width="32" height="32" viewBox="0 0 32 32" fill="none" xmlns="http://www.w3.org/2000/svg">
<path d="M6.85682 18.668C5.88947 17.0789 5.33301 15.217 5.33301 13.2264C5.33301 7.39516 10.1086 2.66797 15.9997 2.66797C21.8907 2.66797 26.6663 7.39516 26.6663 13.2264C26.6663 15.217 26.1099 17.0789 25.1425 18.668" stroke="#F4D4C1" stroke-width="2" stroke-linecap="round"/>
<path d="M18.6663 13.3346C17.8496 14.1922 16.9477 14.668 15.9996 14.668C15.0515 14.668 14.1495 14.1922 13.3329 13.3346" stroke="#F4D4C1" stroke-width="2" stroke-linecap="round"/>
<path d="M9.84367 22.7983C9.72117 22.4295 9.65993 22.2451 9.66706 22.0957C9.68216 21.7797 9.88136 21.5023 10.1753 21.388C10.3142 21.334 10.5079 21.334 10.8953 21.334H21.1044C21.4918 21.334 21.6855 21.334 21.8244 21.388C22.1183 21.5023 22.3175 21.7797 22.3326 22.0957C22.3397 22.2451 22.2785 22.4295 22.156 22.7983C21.9296 23.4799 21.8164 23.8207 21.6418 24.0967C21.2761 24.6748 20.7027 25.0896 20.0406 25.255C19.7245 25.334 19.3666 25.334 18.6507 25.334H13.349C12.6331 25.334 12.2752 25.334 11.9591 25.255C11.2969 25.0896 10.7236 24.6748 10.3578 24.0967C10.1832 23.8207 10.07 23.4799 9.84367 22.7983Z" stroke="#F4D4C1" stroke-width="2"/>
<path d="M19.9995 25.334L19.8271 26.1961C19.6385 27.1389 19.5443 27.6102 19.333 27.9827C19.0064 28.5587 18.4772 28.9926 17.8483 29.1999C17.4416 29.334 16.9609 29.334 15.9995 29.334C15.0381 29.334 14.5574 29.334 14.1507 29.1999C13.5219 28.9926 12.9926 28.5587 12.666 27.9827C12.4548 27.6102 12.3605 27.1389 12.1719 26.1961L11.9995 25.334" stroke="#F4D4C1" stroke-width="2"/>
<path d="M15.9998 20.668V14.668" stroke="#F4D4C1" stroke-width="2" stroke-linecap="round" stroke-linejoin="round"/>
</svg>
