<svg width="32" height="32" viewBox="0 0 32 32" fill="none" xmlns="http://www.w3.org/2000/svg">
<path d="M6.74722 28.0802C5.96617 28.8613 4.69984 28.8613 3.91879 28.0802C3.13775 27.2992 3.13775 26.0329 3.91879 25.2518C4.69984 24.4708 5.96617 24.4708 6.74722 25.2518C7.52827 26.0329 7.52827 27.2992 6.74722 28.0802Z" stroke="#F4D4C1" stroke-width="2"/>
<path d="M10.6663 21.332L7.33301 24.6654" stroke="#F4D4C1" stroke-width="2" stroke-linecap="round" stroke-linejoin="round"/>
<path d="M12.6664 21.9987L26.7641 9.60294C27.1339 9.28248 27.3924 8.85292 27.5024 8.37614L28.6664 3.33203L23.6223 4.49606C23.1455 4.60608 22.716 4.8646 22.3955 5.23436L9.99976 19.332" stroke="#F4D4C1" stroke-width="2" stroke-linejoin="round"/>
<path d="M5.33301 17.332H6.09511C6.80235 17.332 7.48063 17.613 7.98072 18.1131L13.8853 24.0176C14.3854 24.5177 14.6663 25.196 14.6663 25.9033V26.6654" stroke="#F4D4C1" stroke-width="2" stroke-linecap="round" stroke-linejoin="round"/>
</svg>
