<svg width="32" height="32" viewBox="0 0 32 32" fill="none" xmlns="http://www.w3.org/2000/svg">
<path d="M9.40217 21.3346C5.50205 20.1357 2.66699 16.5045 2.66699 12.2112C2.66699 6.94063 6.93965 2.66797 12.2102 2.66797C16.5035 2.66797 20.1347 5.50303 21.3337 9.40315" stroke="#F4D4C1" stroke-width="2" stroke-linecap="round"/>
<path d="M8.59308 13.3353C8.21922 12.7876 8.00049 12.1248 8.00049 11.4107C8.00049 9.52808 9.52058 8.00195 11.3957 8.00195C12.1162 8.00195 12.7843 8.22726 13.3338 8.61152" stroke="#F4D4C1" stroke-width="2" stroke-linecap="round"/>
<path d="M12.4131 12.5064C14.4001 10.3666 29.3462 15.6084 29.3338 17.5222C29.3198 19.6924 23.497 20.36 21.883 20.8128C20.9125 21.0851 20.6525 21.3642 20.4287 22.3819C19.4152 26.9912 18.9063 29.2837 17.7466 29.335C15.898 29.4166 10.4739 14.5947 12.4131 12.5064Z" stroke="#F4D4C1" stroke-width="2"/>
</svg>
