<svg width="32" height="32" viewBox="0 0 32 32" fill="none" xmlns="http://www.w3.org/2000/svg">
<path d="M26.667 13.3327C26.667 8.30437 26.667 5.79021 25.1049 4.22811C23.5428 2.66602 21.0286 2.66602 16.0003 2.66602H13.3337C8.30534 2.66602 5.79119 2.66602 4.22909 4.22811C2.66699 5.79021 2.66699 8.30437 2.66699 13.3327V15.9993C2.66699 21.0277 2.66699 23.5418 4.22909 25.1039C5.64655 26.5214 7.84792 26.6526 12.0003 26.6648H12.667" stroke="#F4D4C1" stroke-width="2" stroke-linecap="round" stroke-linejoin="round"/>
<path d="M19.3718 28.0785C17.1754 28.2303 14.9991 17.9869 16.4935 16.4923C17.9878 14.9978 28.232 17.1725 28.0802 19.3689C27.9756 20.8074 25.5409 21.3764 25.612 22.6548C25.6328 23.0292 26.1058 23.3704 27.0518 24.053C27.7091 24.5272 28.3793 24.9877 29.0254 25.4772C29.2833 25.6726 29.3851 26.001 29.3094 26.3107C28.9458 27.7979 27.8059 28.9427 26.3126 29.3079C26.0029 29.3837 25.6745 29.2818 25.4792 29.0239C24.9899 28.3777 24.5294 27.7074 24.0552 27.05C23.3728 26.1039 23.0316 25.6308 22.6572 25.61C21.379 25.5389 20.81 27.974 19.3718 28.0785Z" stroke="#F4D4C1" stroke-width="2"/>
<path d="M2.66699 9.33301H26.667" stroke="#F4D4C1" stroke-width="2" stroke-linejoin="round"/>
</svg>
