<svg width="32" height="32" viewBox="0 0 32 32" fill="none" xmlns="http://www.w3.org/2000/svg">
<path d="M15.9995 21.9997V19.333" stroke="#F4D4C1" stroke-width="2" stroke-linecap="round"/>
<path d="M5.69009 25.1253C5.98993 27.3523 7.83452 29.097 10.0792 29.2002C11.968 29.2871 13.8867 29.3324 15.9997 29.3324C18.1126 29.3324 20.0313 29.2871 21.9201 29.2002C24.1648 29.097 26.0094 27.3523 26.3093 25.1254C26.5049 23.6719 26.6663 22.1825 26.6663 20.6657C26.6663 19.1489 26.5049 17.6594 26.3093 16.206C26.0094 13.9791 24.1648 12.2343 21.9201 12.1311C20.0313 12.0443 18.1126 11.999 15.9997 11.999C13.8867 11.999 11.968 12.0443 10.0792 12.1311C7.83451 12.2343 5.98993 13.9791 5.69009 16.206C5.4944 17.6594 5.33301 19.1489 5.33301 20.6657C5.33301 22.1825 5.4944 23.6719 5.69009 25.1253Z" stroke="#F4D4C1" stroke-width="2"/>
<path d="M9.99976 11.9993V8.66602C9.99976 5.35231 12.686 2.66602 15.9998 2.66602C18.6122 2.66602 20.6664 4.66602 21.3331 6.66602" stroke="#F4D4C1" stroke-width="2" stroke-linecap="round" stroke-linejoin="round"/>
</svg>
