<svg width="28" height="28" viewBox="0 0 28 28" fill="none" xmlns="http://www.w3.org/2000/svg">
<g id="diamond">
<g id="elements">
<path id="Vector" d="M6.74585 4.87891C7.50167 4.29706 7.87958 4.00613 8.31578 3.81877C8.51356 3.73382 8.7192 3.66517 8.93027 3.61364C9.39579 3.5 9.8894 3.5 10.8766 3.5H17.1232C18.1104 3.5 18.604 3.5 19.0696 3.61364C19.2806 3.66517 19.4863 3.73382 19.6841 3.81877C20.1203 4.00613 20.4982 4.29706 21.254 4.87891C23.7584 6.8069 25.0106 7.77089 25.4399 9.01924C25.6308 9.57452 25.7022 10.1585 25.65 10.7387C25.5327 12.0431 24.5442 13.2369 22.5671 15.6246L17.908 21.2512C16.1146 23.4171 15.2179 24.5 13.9999 24.5C12.782 24.5 11.8852 23.4171 10.0918 21.2512L5.43275 15.6246C3.45568 13.2369 2.46714 12.0431 2.34982 10.7387C2.29764 10.1585 2.369 9.57452 2.55994 9.01924C2.9892 7.77089 4.24142 6.8069 6.74585 4.87891Z" stroke="#F4D4C1" stroke-width="1.75"/>
<path id="Vector_2" d="M11.6663 9.91699H16.3329" stroke="#F4D4C1" stroke-width="1.75" stroke-linecap="round" stroke-linejoin="round"/>
</g>
</g>
</svg>
