<svg width="28" height="28" viewBox="0 0 28 28" fill="none" xmlns="http://www.w3.org/2000/svg">
<path d="M4.6665 14.0003C4.6665 9.60055 4.6665 7.40066 6.03334 6.03383C7.40017 4.66699 9.60006 4.66699 13.9998 4.66699C18.3996 4.66699 20.5995 4.66699 21.9663 6.03383C23.3332 7.40066 23.3332 9.60055 23.3332 14.0003C23.3332 18.4001 23.3332 20.6 21.9663 21.9668C20.5995 23.3337 18.3996 23.3337 13.9998 23.3337C9.60006 23.3337 7.40017 23.3337 6.03334 21.9668C4.6665 20.6 4.6665 18.4001 4.6665 14.0003Z" stroke="#F4D4C1" stroke-width="1.75" stroke-linejoin="round"/>
<path d="M11.083 2.33398V4.66732" stroke="#F4D4C1" stroke-width="1.75" stroke-linecap="round" stroke-linejoin="round"/>
<path d="M16.9163 2.33398V4.66732" stroke="#F4D4C1" stroke-width="1.75" stroke-linecap="round" stroke-linejoin="round"/>
<path d="M11.083 23.334V25.6673" stroke="#F4D4C1" stroke-width="1.75" stroke-linecap="round" stroke-linejoin="round"/>
<path d="M16.9163 23.334V25.6673" stroke="#F4D4C1" stroke-width="1.75" stroke-linecap="round" stroke-linejoin="round"/>
<path d="M15.1662 10.501L10.4995 15.1676" stroke="#F4D4C1" stroke-width="1.75" stroke-linecap="round" stroke-linejoin="round"/>
<path d="M17.4998 15.167L15.1665 17.5003" stroke="#F4D4C1" stroke-width="1.75" stroke-linecap="round" stroke-linejoin="round"/>
<path d="M25.6665 16.917L23.3332 16.917" stroke="#F4D4C1" stroke-width="1.75" stroke-linecap="round" stroke-linejoin="round"/>
<path d="M4.66626 11.084L2.33293 11.084" stroke="#F4D4C1" stroke-width="1.75" stroke-linecap="round" stroke-linejoin="round"/>
<path d="M4.6665 16.917L2.33317 16.917" stroke="#F4D4C1" stroke-width="1.75" stroke-linecap="round" stroke-linejoin="round"/>
<path d="M25.6663 11.084L23.3329 11.084" stroke="#F4D4C1" stroke-width="1.75" stroke-linecap="round" stroke-linejoin="round"/>
</svg>
