<svg width="28" height="28" viewBox="0 0 28 28" fill="none" xmlns="http://www.w3.org/2000/svg">
<path d="M2.91699 9.55058C3.0384 7.10091 3.40159 5.57359 4.48808 4.4871C5.57456 3.40061 7.10189 3.03742 9.55156 2.91602M25.0837 9.55058C24.9623 7.10091 24.5991 5.57359 23.5126 4.4871C22.4261 3.40061 20.8988 3.03742 18.4491 2.91602M18.4491 25.0827C20.8988 24.9613 22.4261 24.5981 23.5126 23.5116C24.5991 22.4251 24.9623 20.8978 25.0837 18.4481M9.55155 25.0827C7.10188 24.9613 5.57456 24.5981 4.48808 23.5116C3.40159 22.4251 3.0384 20.8978 2.91699 18.4481" stroke="#F4D4C1" stroke-width="1.75" stroke-linecap="round" stroke-linejoin="round"/>
<path d="M19.0747 14.2318L19.9412 14.11L19.0747 14.2318ZM16.9145 12.3119L16.9529 11.4378L16.9145 12.3119ZM16.9145 20.3541L16.9529 21.2282L16.9145 20.3541ZM19.0747 18.4342L18.2083 18.3123L19.0747 18.4342ZM11.0865 12.3119L11.125 13.1861L11.0865 12.3119ZM8.92624 14.2318L9.79271 14.3537L8.92624 14.2318ZM11.0865 20.3541L11.048 21.2282L11.0865 20.3541ZM8.92624 18.4342L9.79271 18.3123L8.92624 18.4342ZM10.2088 12.2497C10.2088 12.7329 10.6006 13.1247 11.0838 13.1247C11.5671 13.1247 11.9588 12.7329 11.9588 12.2497H10.2088ZM16.0422 12.2497C16.0422 12.7329 16.4339 13.1247 16.9172 13.1247C17.4004 13.1247 17.7922 12.7329 17.7922 12.2497H16.0422ZM14.0005 19.5413C12.973 19.5413 12.0414 19.5203 11.125 19.4799L11.048 21.2282C11.9909 21.2697 12.9481 21.2913 14.0005 21.2913V19.5413ZM16.876 19.4799C15.9595 19.5203 15.028 19.5413 14.0005 19.5413V21.2913C15.0529 21.2913 16.0101 21.2697 16.9529 21.2282L16.876 19.4799ZM19.9412 18.5561C20.0393 17.8588 20.1255 17.1093 20.1255 16.333H18.3755C18.3755 16.9861 18.3028 17.6401 18.2083 18.3123L19.9412 18.5561ZM20.1255 16.333C20.1255 15.5568 20.0393 14.8073 19.9412 14.11L18.2083 14.3537C18.3028 15.026 18.3755 15.6799 18.3755 16.333H20.1255ZM14.0005 13.1247C15.028 13.1247 15.9595 13.1457 16.876 13.1861L16.9529 11.4378C16.0101 11.3963 15.0529 11.3747 14.0005 11.3747V13.1247ZM11.125 13.1861C12.0414 13.1457 12.973 13.1247 14.0005 13.1247V11.3747C12.9481 11.3747 11.9909 11.3963 11.048 11.4378L11.125 13.1861ZM8.05977 14.11C7.96169 14.8073 7.87549 15.5568 7.87549 16.333H9.62549C9.62549 15.6799 9.69816 15.026 9.79271 14.3537L8.05977 14.11ZM7.87549 16.333C7.87549 17.1093 7.96169 17.8588 8.05977 18.5561L9.79271 18.3123C9.69816 17.6401 9.62549 16.9861 9.62549 16.333H7.87549ZM19.9412 14.11C19.7332 12.6309 18.4664 11.5044 16.9529 11.4378L16.876 13.1861C17.5721 13.2167 18.1211 13.7342 18.2083 14.3537L19.9412 14.11ZM16.9529 21.2282C18.4664 21.1616 19.7332 20.0351 19.9412 18.5561L18.2083 18.3123C18.1211 18.9318 17.5721 19.4493 16.876 19.4799L16.9529 21.2282ZM11.048 11.4378C9.53455 11.5044 8.26779 12.6309 8.05977 14.11L9.79271 14.3537C9.87984 13.7342 10.4289 13.2167 11.125 13.1861L11.048 11.4378ZM11.125 19.4799C10.4289 19.4493 9.87984 18.9318 9.79271 18.3123L8.05977 18.5561C8.26779 20.0351 9.53455 21.1616 11.048 21.2282L11.125 19.4799ZM11.9588 12.2497V10.4997H10.2088V12.2497H11.9588ZM16.0422 10.4997V12.2497H17.7922V10.4997H16.0422ZM17.7922 10.4997C17.7922 8.40559 16.0946 6.70801 14.0005 6.70801V8.45801C15.1281 8.45801 16.0422 9.37209 16.0422 10.4997H17.7922ZM11.9588 10.4997C11.9588 9.37209 12.8729 8.45801 14.0005 8.45801V6.70801C11.9064 6.70801 10.2088 8.40559 10.2088 10.4997H11.9588Z" fill="#F4D4C1"/>
</svg>
