<svg width="32" height="32" viewBox="0 0 32 32" fill="none" xmlns="http://www.w3.org/2000/svg">
<path d="M3.33301 16.0007C3.33301 10.0295 3.33301 7.04397 5.188 5.18897C7.04299 3.33398 10.0286 3.33398 15.9997 3.33398C21.9708 3.33398 24.9564 3.33398 26.8114 5.18897C28.6663 7.04397 28.6663 10.0295 28.6663 16.0007C28.6663 21.9718 28.6663 24.9573 26.8114 26.8123C24.9564 28.6673 21.9708 28.6673 15.9997 28.6673C10.0286 28.6673 7.04299 28.6673 5.188 26.8123C3.33301 24.9573 3.33301 21.9718 3.33301 16.0007Z" stroke="#F4D4C1" stroke-width="2"/>
<path d="M13.333 12.0007C13.333 10.5279 14.5269 9.33398 15.9997 9.33398C17.4724 9.33398 18.6663 10.5279 18.6663 12.0007C18.6663 12.5315 18.5112 13.0262 18.2438 13.4417C17.4469 14.6802 15.9997 15.8612 15.9997 17.334V18.0007" stroke="#F4D4C1" stroke-width="2" stroke-linecap="round"/>
<path d="M15.989 22.667H16.001" stroke="#F4D4C1" stroke-width="2" stroke-linecap="round" stroke-linejoin="round"/>
</svg>
