<svg width="40" height="40" viewBox="0 0 40 40" fill="none" xmlns="http://www.w3.org/2000/svg">
<path d="M30.9329 33.2634C32.1506 33.841 33.7299 34.2834 35.0969 34.0914C35.1801 34.0794 35.2569 34.0397 35.315 33.9785C35.3731 33.9174 35.409 33.8384 35.4171 33.7542C35.437 33.5538 35.4121 33.358 35.3425 33.1665C34.8249 31.7375 34.2243 30.2634 35.5813 29.0514C37.0031 27.7827 38.4945 26.4806 39.6193 24.9914C39.7597 24.8045 39.7985 24.8239 39.7354 25.0499C39.2034 26.9519 38.4364 28.7014 37.4344 30.2985C36.9002 31.1516 36.7542 31.821 37.1043 32.7358C37.3775 33.4481 37.6451 34.1387 37.9072 34.8076C38.5658 36.4903 37.3432 37.1881 35.9082 36.9411C34.6009 36.7157 33.3766 36.3217 32.0312 36.512C31.6396 36.5666 31.0446 36.798 30.2461 37.2065C27.9932 38.3567 25.6607 39.4669 23.1523 39.9009C22.2814 40.0512 21.3474 40.1296 20.7734 39.3801C20.4914 39.0117 20.2408 38.5643 20.0219 38.0379C19.8814 37.7018 19.6762 37.4614 19.4064 37.3167C19.3574 37.2909 19.2999 37.2849 19.2455 37.3C19.0022 37.369 18.7743 37.4931 18.562 37.6723C18.0466 38.1074 17.519 38.5376 16.9793 38.9627C15.2308 40.3416 13.5701 40.1714 11.5711 39.2181C10.2406 38.5826 9.09367 37.8982 8.13036 37.1648C4.34625 34.285 1.49946 30.0781 0.0860122 25.357C-0.117488 24.677 0.040115 24.0443 0.55882 23.4589C1.31863 22.6025 1.99217 21.7879 2.01374 20.5859C2.02369 19.9882 1.91973 19.3188 1.70185 18.5776C1.24729 17.0317 0.739646 15.556 0.58868 13.9283C0.479188 12.7447 0.820936 11.6111 1.37171 10.5594C4.09077 5.36088 8.77073 1.4695 14.4494 0.0020868C14.4715 -0.00347789 14.4914 0.00208654 14.5091 0.0187806C14.5146 0.0239556 14.5189 0.0303208 14.5216 0.0373977C14.5243 0.0444745 14.5254 0.0520776 14.5247 0.0596332C14.5241 0.0671887 14.5218 0.0745005 14.5179 0.0810153C14.514 0.0875302 14.5088 0.093079 14.5025 0.097243C13.4507 0.786152 12.4752 1.63588 11.576 2.64643C9.11911 5.40429 7.39046 8.81155 6.93922 12.4709C6.79323 13.6562 6.78107 14.9956 6.90272 16.4892C7.17148 19.7645 8.40243 22.9314 10.2223 25.6492C11.5346 27.6074 13.2151 29.1566 15.3004 30.2484C15.9264 30.5756 16.5176 30.7899 17.0739 30.8911C18.3922 31.1315 19.7415 31.1799 21.1218 31.0364C22.2864 30.9145 23.4128 30.4053 24.5442 30.003C25.3195 29.727 26.0732 29.9017 26.8054 30.5272C28.1624 31.688 29.5383 32.6 30.9329 33.2634Z" fill="url(#paint0_linear_337_1933)"/>
<defs>
<linearGradient id="paint0_linear_337_1933" x1="19.8824" y1="0" x2="19.8824" y2="40" gradientUnits="userSpaceOnUse">
<stop stop-color="#E9E5E1"/>
<stop offset="1" stop-color="#E9E5E1" stop-opacity="0.7"/>
</linearGradient>
</defs>
</svg>
