<svg width="56" height="56" viewBox="0 0 56 56" fill="none" xmlns="http://www.w3.org/2000/svg">
<rect x="0.5" y="0.5" width="55" height="55" rx="27.5" stroke="url(#paint0_linear_115_9219)"/>
<mask id="mask0_115_9219" style="mask-type:luminance" maskUnits="userSpaceOnUse" x="12" y="12" width="32" height="32">
<path d="M44 12H12V44H44V12Z" fill="white"/>
</mask>
<g mask="url(#mask0_115_9219)">
<path d="M13.1509 29.0874V26.9121H21.0676V29.0874H13.1509ZM22.3038 23.8301L19.5096 21.0359L21.0372 19.5083L23.8313 22.3026L22.3038 23.8301ZM26.9132 21.0663V13.1497H29.0885V21.0663H26.9132ZM33.698 23.8301L32.1705 22.3026L34.9646 19.5083L36.4922 21.0359L33.698 23.8301ZM34.9342 29.0874V26.9121H42.8509V29.0874H34.9342ZM28.0022 31.4874C27.0304 31.4874 26.2058 31.1493 25.5288 30.4731C24.8517 29.797 24.5132 28.973 24.5132 28.0011C24.5132 27.0291 24.8513 26.2046 25.5274 25.5275C26.2034 24.8505 27.0276 24.5121 27.9994 24.5121C28.9714 24.5121 29.796 24.8501 30.473 25.5262C31.15 26.2023 31.4885 27.0263 31.4885 27.9983C31.4885 28.9702 31.1505 29.7947 30.4744 30.4718C29.7982 31.1489 28.9742 31.4874 28.0022 31.4874ZM35.1313 36.6577L32.1705 33.6967L33.698 32.1693L36.6589 35.1301L35.1313 36.6577ZM20.8705 36.6577L19.3429 35.1301L22.3038 32.1693L23.8313 33.6967L20.8705 36.6577ZM26.9132 42.8497V34.933H29.0885V42.8497H26.9132Z" fill="#F4D4C1"/>
</g>
<defs>
<linearGradient id="paint0_linear_115_9219" x1="28" y1="0" x2="28" y2="56" gradientUnits="userSpaceOnUse">
<stop stop-color="#FAD3BE"/>
<stop offset="1" stop-color="#FAD3BE" stop-opacity="0"/>
</linearGradient>
</defs>
</svg>
