<svg width="664" height="145" viewBox="0 0 664 145" fill="none" xmlns="http://www.w3.org/2000/svg">
<g opacity="0.8" filter="url(#filter0_d_543_4108)">
<mask id="path-1-outside-1_543_4108" maskUnits="userSpaceOnUse" x="61" y="33.8359" width="542" height="119" fill="black">
<rect fill="white" x="61" y="33.8359" width="542" height="119"/>
<path d="M93.7821 121.761H93.909C99.7451 121.761 100.633 120.873 120.806 96.6403L121.44 96.7672L112.813 135.083H112.305L107.357 126.836H61.8103V126.328L73.2288 117.321V44.6227L61.8103 35.6148V35.1073H99.872V35.6148L88.4535 44.6227V115.417C88.4535 120.239 89.7222 121.507 93.7821 121.761ZM165.114 126.836V120.112C160.42 125.313 154.584 128.232 147.352 128.232C136.06 128.232 130.351 121 130.351 110.089V71.2659L120.201 64.0342V63.3998H143.799V107.171C143.799 116.306 145.576 121.127 151.919 121.127C156.233 121.127 161.308 117.067 163.845 109.328V71.2659L153.696 64.0342V63.3998H177.294V118.97L187.444 126.202V126.836H165.114ZM212.92 63.3998V71.5196H213.174C217.995 65.176 223.45 62.0042 230.682 62.0042C241.974 62.0042 247.683 69.2359 247.683 80.1469V118.97L257.833 126.328V126.836H234.235V83.065C234.235 73.9302 232.458 69.1091 226.495 69.1091C221.801 69.1091 216.726 73.9302 214.189 82.1769V118.97L224.339 126.328V126.836H190.591V126.328L200.74 118.97V71.2659L190.591 63.9073V63.3998H212.92ZM207.718 117.955L205.815 121.38H207.718L206.196 124.298H206.45L208.733 120.873H206.703L207.972 117.955H207.718ZM314.915 37.7716L287.511 56.4218H286.877L292.586 37.2641H314.915V37.7716ZM321.893 91.3117C321.893 92.5804 321.767 93.5954 321.64 94.3566H271.271C273.682 107.551 286.242 115.671 299.183 115.671C308.064 115.671 314.281 113.514 320.625 108.566L321.132 108.693C316.819 122.649 306.542 128.739 292.967 128.739C273.428 128.739 261.629 114.529 261.629 96.006C261.629 77.4826 272.413 62.0042 292.84 62.0042C312.378 62.0042 321.893 75.8333 321.893 91.3117ZM270.891 88.5205H313.774C308.445 77.7364 299.818 70.124 288.526 70.124C278.123 70.124 271.398 77.9901 270.891 88.5205ZM276.854 112.88L274.951 116.306H276.854L275.331 119.224H275.585L277.869 115.798H275.839L277.108 112.88H276.854ZM326.77 69.3628V63.3998H335.397V57.5637C339.584 52.8694 344.532 45.6377 348.338 38.5328H348.846V63.3998H363.563V69.3628H348.846V108.82C348.846 118.843 349.226 122.395 353.033 122.395C356.966 122.395 358.615 114.402 360.391 100.827H360.899L364.832 122.142C360.772 126.836 355.824 128.739 350.115 128.739C338.062 128.739 335.397 120.619 335.397 110.977V69.3628H326.77ZM375.366 47.0333C375.366 41.0703 380.568 36.376 386.023 36.376C390.337 36.376 393.382 39.5478 393.382 43.8615C393.382 49.317 388.561 54.3919 382.725 54.3919C378.411 54.3919 375.366 51.2201 375.366 47.0333ZM385.008 42.2121L383.105 45.6377H385.008L383.486 48.5558H383.74L386.023 45.1302H383.993L385.262 42.2121H385.008ZM368.261 63.3998H391.86V118.97L402.009 126.328V126.836H368.261V126.328L378.411 118.97V71.2659L368.261 63.9073V63.3998ZM447.32 63.3998H469.649V63.9073L460.768 73.0421V143.71L470.918 151.069V151.576H447.32V118.462H446.812C446.812 118.462 441.864 128.485 429.684 128.485C414.713 128.485 407.101 112.372 407.101 96.2597C407.101 74.4377 418.393 62.0042 434.125 62.0042C439.327 62.0042 444.021 62.6386 447.32 63.3998ZM447.32 115.164V76.9751C443.513 72.154 437.931 69.6165 431.714 69.6165C422.199 69.6165 416.616 76.087 416.616 87.6324C416.616 103.999 426.893 115.798 441.103 115.798C444.148 115.798 447.32 115.164 447.32 115.164ZM515.252 126.836V120.112C510.557 125.313 504.721 128.232 497.49 128.232C486.198 128.232 480.489 121 480.489 110.089V71.2659L470.339 64.0342V63.3998H493.937V107.171C493.937 116.306 495.713 121.127 502.057 121.127C506.371 121.127 511.446 117.067 513.983 109.328V71.2659L503.833 64.0342V63.3998H527.431V118.97L537.581 126.202V126.836H515.252ZM601.657 91.3117C601.657 92.5804 601.53 93.5954 601.403 94.3566H551.035C553.445 107.551 566.006 115.671 578.947 115.671C587.828 115.671 594.044 113.514 600.388 108.566L600.895 108.693C596.582 122.649 586.305 128.739 572.73 128.739C553.191 128.739 541.392 114.529 541.392 96.006C541.392 77.4826 552.176 62.0042 572.603 62.0042C592.141 62.0042 601.657 75.8333 601.657 91.3117ZM550.654 88.5205H593.537C588.208 77.7364 579.581 70.124 568.289 70.124C557.886 70.124 551.162 77.9901 550.654 88.5205ZM556.617 112.88L554.714 116.306H556.617L555.095 119.224H555.348L557.632 115.798H555.602L556.871 112.88H556.617Z"/>
</mask>
<path d="M93.7821 121.761H93.909C99.7451 121.761 100.633 120.873 120.806 96.6403L121.44 96.7672L112.813 135.083H112.305L107.357 126.836H61.8103V126.328L73.2288 117.321V44.6227L61.8103 35.6148V35.1073H99.872V35.6148L88.4535 44.6227V115.417C88.4535 120.239 89.7222 121.507 93.7821 121.761ZM165.114 126.836V120.112C160.42 125.313 154.584 128.232 147.352 128.232C136.06 128.232 130.351 121 130.351 110.089V71.2659L120.201 64.0342V63.3998H143.799V107.171C143.799 116.306 145.576 121.127 151.919 121.127C156.233 121.127 161.308 117.067 163.845 109.328V71.2659L153.696 64.0342V63.3998H177.294V118.97L187.444 126.202V126.836H165.114ZM212.92 63.3998V71.5196H213.174C217.995 65.176 223.45 62.0042 230.682 62.0042C241.974 62.0042 247.683 69.2359 247.683 80.1469V118.97L257.833 126.328V126.836H234.235V83.065C234.235 73.9302 232.458 69.1091 226.495 69.1091C221.801 69.1091 216.726 73.9302 214.189 82.1769V118.97L224.339 126.328V126.836H190.591V126.328L200.74 118.97V71.2659L190.591 63.9073V63.3998H212.92ZM207.718 117.955L205.815 121.38H207.718L206.196 124.298H206.45L208.733 120.873H206.703L207.972 117.955H207.718ZM314.915 37.7716L287.511 56.4218H286.877L292.586 37.2641H314.915V37.7716ZM321.893 91.3117C321.893 92.5804 321.767 93.5954 321.64 94.3566H271.271C273.682 107.551 286.242 115.671 299.183 115.671C308.064 115.671 314.281 113.514 320.625 108.566L321.132 108.693C316.819 122.649 306.542 128.739 292.967 128.739C273.428 128.739 261.629 114.529 261.629 96.006C261.629 77.4826 272.413 62.0042 292.84 62.0042C312.378 62.0042 321.893 75.8333 321.893 91.3117ZM270.891 88.5205H313.774C308.445 77.7364 299.818 70.124 288.526 70.124C278.123 70.124 271.398 77.9901 270.891 88.5205ZM276.854 112.88L274.951 116.306H276.854L275.331 119.224H275.585L277.869 115.798H275.839L277.108 112.88H276.854ZM326.77 69.3628V63.3998H335.397V57.5637C339.584 52.8694 344.532 45.6377 348.338 38.5328H348.846V63.3998H363.563V69.3628H348.846V108.82C348.846 118.843 349.226 122.395 353.033 122.395C356.966 122.395 358.615 114.402 360.391 100.827H360.899L364.832 122.142C360.772 126.836 355.824 128.739 350.115 128.739C338.062 128.739 335.397 120.619 335.397 110.977V69.3628H326.77ZM375.366 47.0333C375.366 41.0703 380.568 36.376 386.023 36.376C390.337 36.376 393.382 39.5478 393.382 43.8615C393.382 49.317 388.561 54.3919 382.725 54.3919C378.411 54.3919 375.366 51.2201 375.366 47.0333ZM385.008 42.2121L383.105 45.6377H385.008L383.486 48.5558H383.74L386.023 45.1302H383.993L385.262 42.2121H385.008ZM368.261 63.3998H391.86V118.97L402.009 126.328V126.836H368.261V126.328L378.411 118.97V71.2659L368.261 63.9073V63.3998ZM447.32 63.3998H469.649V63.9073L460.768 73.0421V143.71L470.918 151.069V151.576H447.32V118.462H446.812C446.812 118.462 441.864 128.485 429.684 128.485C414.713 128.485 407.101 112.372 407.101 96.2597C407.101 74.4377 418.393 62.0042 434.125 62.0042C439.327 62.0042 444.021 62.6386 447.32 63.3998ZM447.32 115.164V76.9751C443.513 72.154 437.931 69.6165 431.714 69.6165C422.199 69.6165 416.616 76.087 416.616 87.6324C416.616 103.999 426.893 115.798 441.103 115.798C444.148 115.798 447.32 115.164 447.32 115.164ZM515.252 126.836V120.112C510.557 125.313 504.721 128.232 497.49 128.232C486.198 128.232 480.489 121 480.489 110.089V71.2659L470.339 64.0342V63.3998H493.937V107.171C493.937 116.306 495.713 121.127 502.057 121.127C506.371 121.127 511.446 117.067 513.983 109.328V71.2659L503.833 64.0342V63.3998H527.431V118.97L537.581 126.202V126.836H515.252ZM601.657 91.3117C601.657 92.5804 601.53 93.5954 601.403 94.3566H551.035C553.445 107.551 566.006 115.671 578.947 115.671C587.828 115.671 594.044 113.514 600.388 108.566L600.895 108.693C596.582 122.649 586.305 128.739 572.73 128.739C553.191 128.739 541.392 114.529 541.392 96.006C541.392 77.4826 552.176 62.0042 572.603 62.0042C592.141 62.0042 601.657 75.8333 601.657 91.3117ZM550.654 88.5205H593.537C588.208 77.7364 579.581 70.124 568.289 70.124C557.886 70.124 551.162 77.9901 550.654 88.5205ZM556.617 112.88L554.714 116.306H556.617L555.095 119.224H555.348L557.632 115.798H555.602L556.871 112.88H556.617Z" fill="url(#paint0_linear_543_4108)" fill-opacity="0.4"/>
<path d="M93.7821 121.761L93.7524 122.236L93.7672 122.237H93.7821V121.761ZM120.806 96.6403L120.899 96.1738L120.621 96.1183L120.44 96.3359L120.806 96.6403ZM121.44 96.7672L121.904 96.8717L122.011 96.3963L121.534 96.3007L121.44 96.7672ZM112.813 135.083V135.558H113.193L113.277 135.187L112.813 135.083ZM112.305 135.083L111.897 135.327L112.036 135.558H112.305V135.083ZM107.357 126.836L107.765 126.591L107.627 126.36H107.357V126.836ZM61.8103 126.836H61.3345V127.312H61.8103V126.836ZM61.8103 126.328L61.5156 125.955L61.3345 126.098V126.328H61.8103ZM73.2288 117.321L73.5235 117.694L73.7046 117.551V117.321H73.2288ZM73.2288 44.6227H73.7046V44.3921L73.5235 44.2492L73.2288 44.6227ZM61.8103 35.6148H61.3345V35.8454L61.5156 35.9883L61.8103 35.6148ZM61.8103 35.1073V34.6315H61.3345V35.1073H61.8103ZM99.872 35.1073H100.348V34.6315H99.872V35.1073ZM99.872 35.6148L100.167 35.9883L100.348 35.8454V35.6148H99.872ZM88.4535 44.6227L88.1588 44.2492L87.9777 44.3921V44.6227H88.4535ZM93.7821 122.237H93.909V121.285H93.7821V122.237ZM93.909 122.237C95.375 122.237 96.5997 122.183 97.9055 121.689C99.208 121.195 100.55 120.28 102.306 118.635C105.807 115.358 111.097 109.047 121.172 96.9447L120.44 96.3359C110.342 108.467 105.102 114.715 101.656 117.941C99.9397 119.547 98.7042 120.368 97.5684 120.799C96.4359 121.228 95.361 121.285 93.909 121.285V122.237ZM120.713 97.1069L121.347 97.2337L121.534 96.3007L120.899 96.1738L120.713 97.1069ZM120.976 96.6627L112.349 134.978L113.277 135.187L121.904 96.8717L120.976 96.6627ZM112.813 134.607H112.305V135.558H112.813V134.607ZM112.713 134.838L107.765 126.591L106.949 127.081L111.897 135.327L112.713 134.838ZM107.357 126.36H61.8103V127.312H107.357V126.36ZM62.2861 126.836V126.328H61.3345V126.836H62.2861ZM62.105 126.702L73.5235 117.694L72.9341 116.947L61.5156 125.955L62.105 126.702ZM73.7046 117.321V44.6227H72.753V117.321H73.7046ZM73.5235 44.2492L62.105 35.2413L61.5156 35.9883L72.9341 44.9962L73.5235 44.2492ZM62.2861 35.6148V35.1073H61.3345V35.6148H62.2861ZM61.8103 35.5831H99.872V34.6315H61.8103V35.5831ZM99.3962 35.1073V35.6148H100.348V35.1073H99.3962ZM99.5773 35.2413L88.1588 44.2492L88.7481 44.9962L100.167 35.9883L99.5773 35.2413ZM87.9777 44.6227V115.417H88.9292V44.6227H87.9777ZM87.9777 115.417C87.9777 117.837 88.2878 119.52 89.2358 120.614C90.1957 121.721 91.7049 122.108 93.7524 122.236L93.8118 121.286C91.7994 121.16 90.6442 120.786 89.9548 119.99C89.2535 119.181 88.9292 117.819 88.9292 115.417H87.9777ZM165.114 126.836H164.638V127.312H165.114V126.836ZM165.114 120.112H165.59V118.874L164.761 119.793L165.114 120.112ZM130.351 71.2659H130.827V71.0207L130.627 70.8784L130.351 71.2659ZM120.201 64.0342H119.725V64.2794L119.925 64.4216L120.201 64.0342ZM120.201 63.3998V62.924H119.725V63.3998H120.201ZM143.799 63.3998H144.275V62.924H143.799V63.3998ZM163.845 109.328L164.297 109.476L164.321 109.404V109.328H163.845ZM163.845 71.2659H164.321V71.0207L164.121 70.8784L163.845 71.2659ZM153.696 64.0342H153.22V64.2794L153.419 64.4216L153.696 64.0342ZM153.696 63.3998V62.924H153.22V63.3998H153.696ZM177.294 63.3998H177.77V62.924H177.294V63.3998ZM177.294 118.97H176.818V119.215L177.018 119.357L177.294 118.97ZM187.444 126.202H187.919V125.956L187.72 125.814L187.444 126.202ZM187.444 126.836V127.312H187.919V126.836H187.444ZM165.59 126.836V120.112H164.638V126.836H165.59ZM164.761 119.793C160.148 124.905 154.436 127.756 147.352 127.756V128.707C154.731 128.707 160.692 125.722 165.467 120.43L164.761 119.793ZM147.352 127.756C141.812 127.756 137.702 125.986 134.972 122.935C132.234 119.875 130.827 115.466 130.827 110.089H129.875C129.875 115.622 131.323 120.285 134.263 123.569C137.209 126.862 141.6 128.707 147.352 128.707V127.756ZM130.827 110.089V71.2659H129.875V110.089H130.827ZM130.627 70.8784L120.477 63.6467L119.925 64.4216L130.075 71.6534L130.627 70.8784ZM120.677 64.0342V63.3998H119.725V64.0342H120.677ZM120.201 63.8756H143.799V62.924H120.201V63.8756ZM143.324 63.3998V107.171H144.275V63.3998H143.324ZM143.324 107.171C143.324 111.745 143.764 115.338 145.06 117.796C145.714 119.038 146.591 119.999 147.741 120.645C148.888 121.29 150.274 121.602 151.919 121.602V120.651C150.393 120.651 149.178 120.361 148.207 119.816C147.24 119.272 146.484 118.457 145.901 117.352C144.723 115.116 144.275 111.731 144.275 107.171H143.324ZM151.919 121.602C156.527 121.602 161.729 117.311 164.297 109.476L163.393 109.179C160.887 116.823 155.939 120.651 151.919 120.651V121.602ZM164.321 109.328V71.2659H163.37V109.328H164.321ZM164.121 70.8784L153.972 63.6467L153.419 64.4216L163.569 71.6534L164.121 70.8784ZM154.171 64.0342V63.3998H153.22V64.0342H154.171ZM153.696 63.8756H177.294V62.924H153.696V63.8756ZM176.818 63.3998V118.97H177.77V63.3998H176.818ZM177.018 119.357L187.167 126.589L187.72 125.814L177.57 118.582L177.018 119.357ZM186.968 126.202V126.836H187.919V126.202H186.968ZM187.444 126.36H165.114V127.312H187.444V126.36ZM212.92 63.3998H213.396V62.924H212.92V63.3998ZM212.92 71.5196H212.444V71.9954H212.92V71.5196ZM213.174 71.5196V71.9954H213.41L213.553 71.8075L213.174 71.5196ZM247.683 118.97H247.207V119.213L247.404 119.355L247.683 118.97ZM257.833 126.328H258.309V126.086L258.112 125.943L257.833 126.328ZM257.833 126.836V127.312H258.309V126.836H257.833ZM234.235 126.836H233.759V127.312H234.235V126.836ZM214.189 82.1769L213.734 82.037L213.713 82.1054V82.1769H214.189ZM214.189 118.97H213.713V119.213L213.91 119.355L214.189 118.97ZM224.339 126.328H224.814V126.086L224.618 125.943L224.339 126.328ZM224.339 126.836V127.312H224.814V126.836H224.339ZM190.591 126.836H190.115V127.312H190.591V126.836ZM190.591 126.328L190.311 125.943L190.115 126.086V126.328H190.591ZM200.74 118.97L201.02 119.355L201.216 119.213V118.97H200.74ZM200.74 71.2659H201.216V71.0232L201.02 70.8807L200.74 71.2659ZM190.591 63.9073H190.115V64.15L190.311 64.2925L190.591 63.9073ZM190.591 63.3998V62.924H190.115V63.3998H190.591ZM207.718 117.955V117.479H207.438L207.302 117.724L207.718 117.955ZM205.815 121.38L205.399 121.149L205.007 121.856H205.815V121.38ZM207.718 121.38L208.14 121.601L208.503 120.905H207.718V121.38ZM206.196 124.298L205.774 124.078L205.411 124.774H206.196V124.298ZM206.45 124.298V124.774H206.704L206.845 124.562L206.45 124.298ZM208.733 120.873L209.129 121.137L209.622 120.397H208.733V120.873ZM206.703 120.873L206.267 120.683L205.978 121.349H206.703V120.873ZM207.972 117.955L208.408 118.145L208.698 117.479H207.972V117.955ZM212.444 63.3998V71.5196H213.396V63.3998H212.444ZM212.92 71.9954H213.174V71.0439H212.92V71.9954ZM213.553 71.8075C218.304 65.5562 223.629 62.48 230.682 62.48V61.5284C223.272 61.5284 217.686 64.7958 212.795 71.2318L213.553 71.8075ZM230.682 62.48C236.222 62.48 240.332 64.2501 243.062 67.3012C245.801 70.3605 247.207 74.7694 247.207 80.1469H248.159C248.159 74.6134 246.711 69.951 243.772 66.6667C240.825 63.3741 236.434 61.5284 230.682 61.5284V62.48ZM247.207 80.1469V118.97H248.159V80.1469H247.207ZM247.404 119.355L257.554 126.714L258.112 125.943L247.962 118.585L247.404 119.355ZM257.357 126.328V126.836H258.309V126.328H257.357ZM257.833 126.36H234.235V127.312H257.833V126.36ZM234.71 126.836V83.065H233.759V126.836H234.71ZM234.71 83.065C234.71 78.4891 234.27 74.9012 233.026 72.4464C232.397 71.207 231.559 70.2443 230.463 69.5956C229.368 68.948 228.051 68.6333 226.495 68.6333V69.5848C227.922 69.5848 229.062 69.8727 229.978 70.4146C230.892 70.9553 231.615 71.7688 232.177 72.8765C233.312 75.116 233.759 78.5062 233.759 83.065H234.71ZM226.495 68.6333C223.982 68.6333 221.424 69.9218 219.192 72.2189C216.957 74.5191 215.02 77.8565 213.734 82.037L214.644 82.3168C215.895 78.2506 217.764 75.054 219.875 72.882C221.988 70.7069 224.315 69.5848 226.495 69.5848V68.6333ZM213.713 82.1769V118.97H214.665V82.1769H213.713ZM213.91 119.355L224.059 126.714L224.618 125.943L214.468 118.585L213.91 119.355ZM223.863 126.328V126.836H224.814V126.328H223.863ZM224.339 126.36H190.591V127.312H224.339V126.36ZM191.066 126.836V126.328H190.115V126.836H191.066ZM190.87 126.714L201.02 119.355L200.461 118.585L190.311 125.943L190.87 126.714ZM201.216 118.97V71.2659H200.265V118.97H201.216ZM201.02 70.8807L190.87 63.5221L190.311 64.2925L200.461 71.6511L201.02 70.8807ZM191.066 63.9073V63.3998H190.115V63.9073H191.066ZM190.591 63.8756H212.92V62.924H190.591V63.8756ZM207.302 117.724L205.399 121.149L206.231 121.611L208.134 118.186L207.302 117.724ZM205.815 121.856H207.718V120.905H205.815V121.856ZM207.297 121.16L205.774 124.078L206.618 124.519L208.14 121.601L207.297 121.16ZM206.196 124.774H206.45V123.823H206.196V124.774ZM206.845 124.562L209.129 121.137L208.337 120.609L206.054 124.035L206.845 124.562ZM208.733 120.397H206.703V121.349H208.733V120.397ZM207.14 121.063L208.408 118.145L207.536 117.765L206.267 120.683L207.14 121.063ZM207.972 117.479H207.718V118.431H207.972V117.479ZM314.915 37.7716L315.183 38.1649L315.391 38.0233V37.7716H314.915ZM287.511 56.4218V56.8976H287.658L287.779 56.8152L287.511 56.4218ZM286.877 56.4218L286.421 56.286L286.238 56.8976H286.877V56.4218ZM292.586 37.2641V36.7884H292.231L292.13 37.1282L292.586 37.2641ZM314.915 37.2641H315.391V36.7884H314.915V37.2641ZM321.64 94.3566V94.8324H322.043L322.109 94.4349L321.64 94.3566ZM271.271 94.3566V93.8809H270.701L270.803 94.4421L271.271 94.3566ZM320.625 108.566L320.74 108.105L320.515 108.049L320.332 108.191L320.625 108.566ZM321.132 108.693L321.587 108.834L321.735 108.354L321.248 108.232L321.132 108.693ZM270.891 88.5205L270.416 88.4976L270.392 88.9963H270.891V88.5205ZM313.774 88.5205V88.9963H314.539L314.2 88.3098L313.774 88.5205ZM276.854 112.88V112.404H276.574L276.438 112.649L276.854 112.88ZM274.951 116.306L274.535 116.074L274.142 116.781H274.951V116.306ZM276.854 116.306L277.276 116.526L277.639 115.83H276.854V116.306ZM275.331 119.224L274.91 119.004L274.546 119.699H275.331V119.224ZM275.585 119.224V119.699H275.84L275.981 119.488L275.585 119.224ZM277.869 115.798L278.265 116.062L278.758 115.322H277.869V115.798ZM275.839 115.798L275.403 115.608L275.113 116.274H275.839V115.798ZM277.108 112.88L277.544 113.07L277.833 112.404H277.108V112.88ZM314.648 37.3783L287.243 56.0285L287.779 56.8152L315.183 38.1649L314.648 37.3783ZM287.511 55.9461H286.877V56.8976H287.511V55.9461ZM287.333 56.5577L293.042 37.4L292.13 37.1282L286.421 56.286L287.333 56.5577ZM292.586 37.7399H314.915V36.7884H292.586V37.7399ZM314.44 37.2641V37.7716H315.391V37.2641H314.44ZM321.418 91.3117C321.418 92.5477 321.294 93.5357 321.17 94.2784L322.109 94.4349C322.239 93.6551 322.369 92.6131 322.369 91.3117H321.418ZM321.64 93.8809H271.271V94.8324H321.64V93.8809ZM270.803 94.4421C273.265 107.915 286.069 116.147 299.183 116.147V115.195C286.415 115.195 274.099 107.188 271.739 94.2711L270.803 94.4421ZM299.183 116.147C308.165 116.147 314.486 113.958 320.917 108.941L320.332 108.191C314.076 113.071 307.964 115.195 299.183 115.195V116.147ZM320.509 109.028L321.017 109.155L321.248 108.232L320.74 108.105L320.509 109.028ZM320.678 108.553C318.548 115.443 314.958 120.359 310.255 123.556C305.547 126.757 299.684 128.263 292.967 128.263V129.215C299.824 129.215 305.887 127.676 310.79 124.343C315.697 121.007 319.403 115.899 321.587 108.834L320.678 108.553ZM292.967 128.263C283.32 128.263 275.616 124.759 270.321 118.997C265.022 113.23 262.105 105.168 262.105 96.006H261.153C261.153 105.368 264.136 113.672 269.621 119.641C275.11 125.614 283.075 129.215 292.967 129.215V128.263ZM262.105 96.006C262.105 86.8323 264.775 78.4486 269.937 72.3667C275.091 66.2946 282.758 62.48 292.84 62.48V61.5284C282.495 61.5284 274.557 65.453 269.212 71.751C263.875 78.0391 261.153 86.6563 261.153 96.006H262.105ZM292.84 62.48C302.488 62.48 309.617 65.89 314.339 71.1707C319.068 76.4596 321.418 83.6663 321.418 91.3117H322.369C322.369 83.4787 319.961 76.0316 315.048 70.5364C310.127 65.0329 302.73 61.5284 292.84 61.5284V62.48ZM270.891 88.9963H313.774V88.0447H270.891V88.9963ZM314.2 88.3098C308.827 77.4347 300.067 69.6483 288.526 69.6483V70.5998C299.569 70.5998 308.063 78.0381 313.347 88.7313L314.2 88.3098ZM288.526 69.6483C283.196 69.6483 278.786 71.6669 275.649 75.0498C272.516 78.4275 270.674 83.1389 270.416 88.4976L271.366 88.5434C271.615 83.3717 273.389 78.8849 276.346 75.6969C279.298 72.5142 283.452 70.5998 288.526 70.5998V69.6483ZM276.438 112.649L274.535 116.074L275.367 116.537L277.27 113.111L276.438 112.649ZM274.951 116.781H276.854V115.83H274.951V116.781ZM276.432 116.085L274.91 119.004L275.753 119.444L277.276 116.526L276.432 116.085ZM275.331 119.699H275.585V118.748H275.331V119.699ZM275.981 119.488L278.265 116.062L277.473 115.534L275.189 118.96L275.981 119.488ZM277.869 115.322H275.839V116.274H277.869V115.322ZM276.275 115.988L277.544 113.07L276.671 112.69L275.403 115.608L276.275 115.988ZM277.108 112.404H276.854V113.356H277.108V112.404ZM326.77 69.3628H326.294V69.8386H326.77V69.3628ZM326.77 63.3998V62.924H326.294V63.3998H326.77ZM335.397 63.3998V63.8756H335.873V63.3998H335.397ZM335.397 57.5637L335.042 57.247L334.922 57.3823V57.5637H335.397ZM348.338 38.5328V38.0571H348.053L347.919 38.3082L348.338 38.5328ZM348.846 38.5328H349.322V38.0571H348.846V38.5328ZM348.846 63.3998H348.37V63.8756H348.846V63.3998ZM363.563 63.3998H364.039V62.924H363.563V63.3998ZM363.563 69.3628V69.8386H364.039V69.3628H363.563ZM348.846 69.3628V68.887H348.37V69.3628H348.846ZM360.391 100.827V100.351H359.974L359.919 100.765L360.391 100.827ZM360.899 100.827L361.367 100.741L361.295 100.351H360.899V100.827ZM364.832 122.142L365.192 122.453L365.341 122.28L365.3 122.055L364.832 122.142ZM335.397 69.3628H335.873V68.887H335.397V69.3628ZM327.246 69.3628V63.3998H326.294V69.3628H327.246ZM326.77 63.8756H335.397V62.924H326.77V63.8756ZM335.873 63.3998V57.5637H334.922V63.3998H335.873ZM335.752 57.8804C339.969 53.1526 344.938 45.8883 348.758 38.7575L347.919 38.3082C344.127 45.3871 339.199 52.5862 335.042 57.247L335.752 57.8804ZM348.338 39.0086H348.846V38.0571H348.338V39.0086ZM348.37 38.5328V63.3998H349.322V38.5328H348.37ZM348.846 63.8756H363.563V62.924H348.846V63.8756ZM363.087 63.3998V69.3628H364.039V63.3998H363.087ZM363.563 68.887H348.846V69.8386H363.563V68.887ZM348.37 69.3628V108.82H349.322V69.3628H348.37ZM348.37 108.82C348.37 113.811 348.462 117.275 349.052 119.489C349.35 120.606 349.79 121.468 350.463 122.045C351.145 122.63 352.005 122.871 353.033 122.871V121.92C352.157 121.92 351.542 121.717 351.082 121.323C350.614 120.921 350.245 120.267 349.972 119.244C349.42 117.176 349.322 113.853 349.322 108.82H348.37ZM353.033 122.871C354.207 122.871 355.174 122.264 355.97 121.223C356.756 120.195 357.407 118.708 357.976 116.841C359.115 113.102 359.975 107.672 360.863 100.889L359.919 100.765C359.031 107.558 358.178 112.912 357.066 116.563C356.509 118.391 355.898 119.751 355.214 120.645C354.539 121.527 353.825 121.92 353.033 121.92V122.871ZM360.391 101.303H360.899V100.351H360.391V101.303ZM360.431 100.913L364.364 122.228L365.3 122.055L361.367 100.741L360.431 100.913ZM364.472 121.83C360.512 126.409 355.701 128.263 350.115 128.263V129.215C355.947 129.215 361.032 127.262 365.192 122.453L364.472 121.83ZM350.115 128.263C344.208 128.263 340.696 126.283 338.631 123.209C336.54 120.095 335.873 115.773 335.873 110.977H334.922C334.922 115.823 335.587 120.383 337.841 123.739C340.122 127.135 343.968 129.215 350.115 129.215V128.263ZM335.873 110.977V69.3628H334.922V110.977H335.873ZM335.397 68.887H326.77V69.8386H335.397V68.887ZM385.008 42.2121V41.7364H384.728L384.593 41.9811L385.008 42.2121ZM383.105 45.6377L382.689 45.4066L382.297 46.1135H383.105V45.6377ZM385.008 45.6377L385.43 45.8578L385.793 45.1619H385.008V45.6377ZM383.486 48.5558L383.064 48.3357L382.701 49.0315H383.486V48.5558ZM383.74 48.5558V49.0315H383.994L384.136 48.8197L383.74 48.5558ZM386.023 45.1302L386.419 45.3941L386.912 44.6544H386.023V45.1302ZM383.993 45.1302L383.557 44.9405L383.268 45.606H383.993V45.1302ZM385.262 42.2121L385.698 42.4018L385.988 41.7364H385.262V42.2121ZM368.261 63.3998V62.924H367.785V63.3998H368.261ZM391.86 63.3998H392.335V62.924H391.86V63.3998ZM391.86 118.97H391.384V119.213L391.58 119.355L391.86 118.97ZM402.009 126.328H402.485V126.086L402.289 125.943L402.009 126.328ZM402.009 126.836V127.312H402.485V126.836H402.009ZM368.261 126.836H367.785V127.312H368.261V126.836ZM368.261 126.328L367.982 125.943L367.785 126.086V126.328H368.261ZM378.411 118.97L378.69 119.355L378.887 119.213V118.97H378.411ZM378.411 71.2659H378.887V71.0232L378.69 70.8807L378.411 71.2659ZM368.261 63.9073H367.785V64.15L367.982 64.2925L368.261 63.9073ZM375.842 47.0333C375.842 41.3475 380.816 36.8518 386.023 36.8518V35.9002C380.32 35.9002 374.89 40.7931 374.89 47.0333H375.842ZM386.023 36.8518C390.064 36.8518 392.906 39.7997 392.906 43.8615H393.858C393.858 39.2959 390.611 35.9002 386.023 35.9002V36.8518ZM392.906 43.8615C392.906 49.0579 388.294 53.9161 382.725 53.9161V54.8676C388.827 54.8676 393.858 49.5761 393.858 43.8615H392.906ZM382.725 53.9161C378.679 53.9161 375.842 50.9628 375.842 47.0333H374.89C374.89 51.4774 378.143 54.8676 382.725 54.8676V53.9161ZM384.593 41.9811L382.689 45.4066L383.521 45.8687L385.424 42.4432L384.593 41.9811ZM383.105 46.1135H385.008V45.1619H383.105V46.1135ZM384.587 45.4176L383.064 48.3357L383.908 48.7758L385.43 45.8578L384.587 45.4176ZM383.486 49.0315H383.74V48.08H383.486V49.0315ZM384.136 48.8197L386.419 45.3941L385.628 44.8663L383.344 48.2918L384.136 48.8197ZM386.023 44.6544H383.993V45.606H386.023V44.6544ZM384.43 45.3199L385.698 42.4018L384.826 42.0224L383.557 44.9405L384.43 45.3199ZM385.262 41.7364H385.008V42.6879H385.262V41.7364ZM368.261 63.8756H391.86V62.924H368.261V63.8756ZM391.384 63.3998V118.97H392.335V63.3998H391.384ZM391.58 119.355L401.73 126.714L402.289 125.943L392.139 118.585L391.58 119.355ZM401.534 126.328V126.836H402.485V126.328H401.534ZM402.009 126.36H368.261V127.312H402.009V126.36ZM368.737 126.836V126.328H367.785V126.836H368.737ZM368.541 126.714L378.69 119.355L378.132 118.585L367.982 125.943L368.541 126.714ZM378.887 118.97V71.2659H377.935V118.97H378.887ZM378.69 70.8807L368.541 63.5221L367.982 64.2925L378.132 71.6511L378.69 70.8807ZM368.737 63.9073V63.3998H367.785V63.9073H368.737ZM447.32 63.3998L447.213 63.8634L447.265 63.8756H447.32V63.3998ZM469.649 63.3998H470.125V62.924H469.649V63.3998ZM469.649 63.9073L469.99 64.2389L470.125 64.1005V63.9073H469.649ZM460.768 73.0421L460.427 72.7104L460.292 72.8489V73.0421H460.768ZM460.768 143.71H460.292V143.953L460.489 144.095L460.768 143.71ZM470.918 151.069H471.394V150.826L471.197 150.683L470.918 151.069ZM470.918 151.576V152.052H471.394V151.576H470.918ZM447.32 151.576H446.844V152.052H447.32V151.576ZM447.32 118.462H447.795V117.987H447.32V118.462ZM446.812 118.462V117.987H446.516L446.385 118.252L446.812 118.462ZM447.32 115.164L447.413 115.63L447.795 115.554V115.164H447.32ZM447.32 76.9751H447.795V76.81L447.693 76.6803L447.32 76.9751ZM447.32 63.8756H469.649V62.924H447.32V63.8756ZM469.173 63.3998V63.9073H470.125V63.3998H469.173ZM469.308 63.5756L460.427 72.7104L461.109 73.3737L469.99 64.2389L469.308 63.5756ZM460.292 73.0421V143.71H461.244V73.0421H460.292ZM460.489 144.095L470.639 151.454L471.197 150.683L461.047 143.325L460.489 144.095ZM470.442 151.069V151.576H471.394V151.069H470.442ZM470.918 151.1H447.32V152.052H470.918V151.1ZM447.795 151.576V118.462H446.844V151.576H447.795ZM447.32 117.987H446.812V118.938H447.32V117.987ZM446.812 118.462C446.385 118.252 446.386 118.252 446.386 118.251C446.386 118.251 446.386 118.251 446.386 118.251C446.386 118.251 446.386 118.252 446.385 118.252C446.385 118.253 446.384 118.254 446.383 118.256C446.382 118.259 446.379 118.266 446.374 118.274C446.366 118.291 446.352 118.316 446.334 118.351C446.297 118.419 446.241 118.522 446.164 118.654C446.011 118.918 445.777 119.299 445.458 119.757C444.82 120.673 443.844 121.898 442.496 123.122C439.803 125.566 435.631 128.01 429.684 128.01V128.961C435.918 128.961 440.309 126.393 443.135 123.826C444.547 122.544 445.569 121.263 446.239 120.3C446.574 119.819 446.822 119.416 446.987 119.132C447.07 118.99 447.131 118.877 447.173 118.799C447.194 118.76 447.21 118.73 447.221 118.708C447.226 118.698 447.23 118.689 447.233 118.684C447.235 118.681 447.236 118.678 447.237 118.676C447.237 118.676 447.238 118.675 447.238 118.674C447.238 118.674 447.238 118.674 447.238 118.674C447.239 118.673 447.239 118.673 446.812 118.462ZM429.684 128.01C422.399 128.01 416.891 124.1 413.182 118.163C409.466 112.214 407.577 104.25 407.577 96.2597H406.625C406.625 104.382 408.542 112.531 412.375 118.667C416.215 124.814 421.999 128.961 429.684 128.961V128.01ZM407.577 96.2597C407.577 85.4267 410.38 76.9797 415.081 71.2505C419.776 65.53 426.394 62.48 434.125 62.48V61.5284C426.124 61.5284 419.23 64.6952 414.346 70.6469C409.468 76.59 406.625 85.2707 406.625 96.2597H407.577ZM434.125 62.48C439.291 62.48 443.949 63.1103 447.213 63.8634L447.427 62.9362C444.093 62.1668 439.362 61.5284 434.125 61.5284V62.48ZM447.795 115.164V76.9751H446.844V115.164H447.795ZM447.693 76.6803C443.79 71.7371 438.066 69.1408 431.714 69.1408V70.0923C437.796 70.0923 443.236 72.5709 446.946 77.27L447.693 76.6803ZM431.714 69.1408C426.842 69.1408 422.924 70.8023 420.234 73.988C417.553 77.1622 416.141 81.7896 416.141 87.6324H417.092C417.092 81.9299 418.471 77.5494 420.961 74.6019C423.44 71.6661 427.071 70.0923 431.714 70.0923V69.1408ZM416.141 87.6324C416.141 104.197 426.57 116.274 441.103 116.274V115.322C427.216 115.322 417.092 103.801 417.092 87.6324H416.141ZM441.103 116.274C442.655 116.274 444.232 116.112 445.417 115.952C446.01 115.872 446.508 115.792 446.857 115.732C447.032 115.702 447.17 115.676 447.265 115.659C447.312 115.65 447.349 115.643 447.374 115.638C447.386 115.635 447.396 115.634 447.402 115.632C447.406 115.632 447.408 115.631 447.41 115.631C447.411 115.631 447.411 115.631 447.412 115.63C447.412 115.63 447.412 115.63 447.413 115.63C447.413 115.63 447.413 115.63 447.413 115.63C447.413 115.63 447.413 115.63 447.32 115.164C447.226 114.697 447.226 114.697 447.226 114.697C447.226 114.697 447.226 114.697 447.226 114.697C447.226 114.697 447.226 114.697 447.226 114.697C447.226 114.697 447.225 114.697 447.225 114.697C447.223 114.698 447.221 114.698 447.218 114.699C447.213 114.7 447.204 114.701 447.193 114.704C447.17 114.708 447.135 114.715 447.09 114.723C446.999 114.74 446.866 114.765 446.696 114.794C446.355 114.853 445.869 114.931 445.289 115.009C444.127 115.167 442.596 115.322 441.103 115.322V116.274ZM515.252 126.836H514.776V127.312H515.252V126.836ZM515.252 120.112H515.728V118.874L514.899 119.793L515.252 120.112ZM480.489 71.2659H480.965V71.0207L480.765 70.8784L480.489 71.2659ZM470.339 64.0342H469.863V64.2794L470.063 64.4216L470.339 64.0342ZM470.339 63.3998V62.924H469.863V63.3998H470.339ZM493.937 63.3998H494.413V62.924H493.937V63.3998ZM513.983 109.328L514.435 109.476L514.459 109.404V109.328H513.983ZM513.983 71.2659H514.459V71.0207L514.259 70.8784L513.983 71.2659ZM503.833 64.0342H503.357V64.2794L503.557 64.4216L503.833 64.0342ZM503.833 63.3998V62.924H503.357V63.3998H503.833ZM527.431 63.3998H527.907V62.924H527.431V63.3998ZM527.431 118.97H526.956V119.215L527.155 119.357L527.431 118.97ZM537.581 126.202H538.057V125.956L537.857 125.814L537.581 126.202ZM537.581 126.836V127.312H538.057V126.836H537.581ZM515.728 126.836V120.112H514.776V126.836H515.728ZM514.899 119.793C510.285 124.905 504.574 127.756 497.49 127.756V128.707C504.869 128.707 510.83 125.722 515.605 120.43L514.899 119.793ZM497.49 127.756C491.95 127.756 487.84 125.986 485.109 122.935C482.371 119.875 480.965 115.466 480.965 110.089H480.013C480.013 115.622 481.461 120.285 484.4 123.569C487.347 126.862 491.738 128.707 497.49 128.707V127.756ZM480.965 110.089V71.2659H480.013V110.089H480.965ZM480.765 70.8784L470.615 63.6467L470.063 64.4216L480.213 71.6534L480.765 70.8784ZM470.815 64.0342V63.3998H469.863V64.0342H470.815ZM470.339 63.8756H493.937V62.924H470.339V63.8756ZM493.461 63.3998V107.171H494.413V63.3998H493.461ZM493.461 107.171C493.461 111.745 493.902 115.338 495.197 117.796C495.852 119.038 496.729 119.999 497.879 120.645C499.026 121.29 500.411 121.602 502.057 121.602V120.651C500.531 120.651 499.316 120.361 498.345 119.816C497.378 119.272 496.622 118.457 496.039 117.352C494.861 115.116 494.413 111.731 494.413 107.171H493.461ZM502.057 121.602C506.665 121.602 511.866 117.311 514.435 109.476L513.531 109.179C511.025 116.823 506.077 120.651 502.057 120.651V121.602ZM514.459 109.328V71.2659H513.507V109.328H514.459ZM514.259 70.8784L504.109 63.6467L503.557 64.4216L513.707 71.6534L514.259 70.8784ZM504.309 64.0342V63.3998H503.357V64.0342H504.309ZM503.833 63.8756H527.431V62.924H503.833V63.8756ZM526.956 63.3998V118.97H527.907V63.3998H526.956ZM527.155 119.357L537.305 126.589L537.857 125.814L527.708 118.582L527.155 119.357ZM537.105 126.202V126.836H538.057V126.202H537.105ZM537.581 126.36H515.252V127.312H537.581V126.36ZM601.403 94.3566V94.8324H601.806L601.872 94.4349L601.403 94.3566ZM551.035 94.3566V93.8809H550.464L550.567 94.4421L551.035 94.3566ZM600.388 108.566L600.503 108.105L600.278 108.049L600.095 108.191L600.388 108.566ZM600.895 108.693L601.35 108.834L601.498 108.354L601.011 108.232L600.895 108.693ZM550.654 88.5205L550.179 88.4976L550.155 88.9963H550.654V88.5205ZM593.537 88.5205V88.9963H594.303L593.963 88.3098L593.537 88.5205ZM556.617 112.88V112.404H556.337L556.201 112.649L556.617 112.88ZM554.714 116.306L554.298 116.074L553.905 116.781H554.714V116.306ZM556.617 116.306L557.039 116.526L557.402 115.83H556.617V116.306ZM555.095 119.224L554.673 119.004L554.31 119.699H555.095V119.224ZM555.348 119.224V119.699H555.603L555.744 119.488L555.348 119.224ZM557.632 115.798L558.028 116.062L558.521 115.322H557.632V115.798ZM555.602 115.798L555.166 115.608L554.876 116.274H555.602V115.798ZM556.871 112.88L557.307 113.07L557.596 112.404H556.871V112.88ZM601.181 91.3117C601.181 92.5477 601.057 93.5357 600.934 94.2784L601.872 94.4349C602.002 93.6551 602.132 92.6131 602.132 91.3117H601.181ZM601.403 93.8809H551.035V94.8324H601.403V93.8809ZM550.567 94.4421C553.028 107.915 565.833 116.147 578.947 116.147V115.195C566.178 115.195 553.863 107.188 551.503 94.2711L550.567 94.4421ZM578.947 116.147C587.928 116.147 594.249 113.958 600.681 108.941L600.095 108.191C593.84 113.071 587.727 115.195 578.947 115.195V116.147ZM600.273 109.028L600.78 109.155L601.011 108.232L600.503 108.105L600.273 109.028ZM600.441 108.553C598.311 115.443 594.722 120.359 590.018 123.556C585.311 126.757 579.448 128.263 572.73 128.263V129.215C579.587 129.215 585.65 127.676 590.553 124.343C595.461 121.007 599.166 115.899 601.35 108.834L600.441 108.553ZM572.73 128.263C563.083 128.263 555.379 124.759 550.085 118.997C544.785 113.23 541.868 105.168 541.868 96.006H540.917C540.917 105.368 543.899 113.672 549.384 119.641C554.873 125.614 562.838 129.215 572.73 129.215V128.263ZM541.868 96.006C541.868 86.8323 544.539 78.4486 549.7 72.3667C554.854 66.2946 562.521 62.48 572.603 62.48V61.5284C562.259 61.5284 554.32 65.453 548.975 71.751C543.638 78.0391 540.917 86.6563 540.917 96.006H541.868ZM572.603 62.48C582.251 62.48 589.38 65.89 594.102 71.1707C598.831 76.4596 601.181 83.6663 601.181 91.3117H602.132C602.132 83.4787 599.725 76.0316 594.811 70.5364C589.891 65.0329 582.493 61.5284 572.603 61.5284V62.48ZM550.654 88.9963H593.537V88.0447H550.654V88.9963ZM593.963 88.3098C588.59 77.4347 579.83 69.6483 568.289 69.6483V70.5998C579.332 70.5998 587.827 78.0381 593.11 88.7313L593.963 88.3098ZM568.289 69.6483C562.959 69.6483 558.55 71.6669 555.412 75.0498C552.279 78.4275 550.437 83.1389 550.179 88.4976L551.129 88.5434C551.378 83.3717 553.152 78.8849 556.109 75.6969C559.062 72.5142 563.216 70.5998 568.289 70.5998V69.6483ZM556.201 112.649L554.298 116.074L555.13 116.537L557.033 113.111L556.201 112.649ZM554.714 116.781H556.617V115.83H554.714V116.781ZM556.195 116.085L554.673 119.004L555.516 119.444L557.039 116.526L556.195 116.085ZM555.095 119.699H555.348V118.748H555.095V119.699ZM555.744 119.488L558.028 116.062L557.236 115.534L554.952 118.96L555.744 119.488ZM557.632 115.322H555.602V116.274H557.632V115.322ZM556.038 115.988L557.307 113.07L556.434 112.69L555.166 115.608L556.038 115.988ZM556.871 112.404H556.617V113.356H556.871V112.404Z" fill="url(#paint1_linear_543_4108)" fill-opacity="0.7" mask="url(#path-1-outside-1_543_4108)"/>
</g>
<defs>
<filter id="filter0_d_543_4108" x="0.435791" y="-0.385881" width="662.595" height="239.219" filterUnits="userSpaceOnUse" color-interpolation-filters="sRGB">
<feFlood flood-opacity="0" result="BackgroundImageFix"/>
<feColorMatrix in="SourceAlpha" type="matrix" values="0 0 0 0 0 0 0 0 0 0 0 0 0 0 0 0 0 0 127 0" result="hardAlpha"/>
<feOffset dy="25.8819"/>
<feGaussianBlur stdDeviation="30.4493"/>
<feComposite in2="hardAlpha" operator="out"/>
<feColorMatrix type="matrix" values="0 0 0 0 0.0705882 0 0 0 0 0.0705882 0 0 0 0 0.0862745 0 0 0 1 0"/>
<feBlend mode="normal" in2="BackgroundImageFix" result="effect1_dropShadow_543_4108"/>
<feBlend mode="normal" in="SourceGraphic" in2="effect1_dropShadow_543_4108" result="shape"/>
</filter>
<linearGradient id="paint0_linear_543_4108" x1="331" y1="22.8359" x2="331" y2="174.836" gradientUnits="userSpaceOnUse">
<stop stop-color="#F4D4C1"/>
<stop offset="1" stop-color="#F4D4C1" stop-opacity="0"/>
</linearGradient>
<linearGradient id="paint1_linear_543_4108" x1="331" y1="22.8359" x2="331" y2="174.836" gradientUnits="userSpaceOnUse">
<stop stop-color="#F4D4C1" stop-opacity="0"/>
<stop offset="0.666258" stop-color="#F4D4C1"/>
</linearGradient>
</defs>
</svg>
