<svg width="81" height="80" viewBox="0 0 81 80" fill="none" xmlns="http://www.w3.org/2000/svg">
<mask id="path-1-inside-1_337_2035" fill="white">
<path d="M0.666626 18C0.666626 8.05888 8.7255 0 18.6666 0H62.6666C72.6077 0 80.6666 8.05887 80.6666 18V62C80.6666 71.9411 72.6077 80 62.6666 80H18.6666C8.7255 80 0.666626 71.9411 0.666626 62V18Z"/>
</mask>
<path d="M18.6666 1.5H62.6666V-1.5H18.6666V1.5ZM79.1666 18V62H82.1666V18H79.1666ZM62.6666 78.5H18.6666V81.5H62.6666V78.5ZM2.16663 62V18H-0.833374V62H2.16663ZM18.6666 78.5C9.55393 78.5 2.16663 71.1127 2.16663 62H-0.833374C-0.833374 72.7696 7.89708 81.5 18.6666 81.5V78.5ZM79.1666 62C79.1666 71.1127 71.7793 78.5 62.6666 78.5V81.5C73.4362 81.5 82.1666 72.7695 82.1666 62H79.1666ZM62.6666 1.5C71.7793 1.5 79.1666 8.8873 79.1666 18H82.1666C82.1666 7.23045 73.4362 -1.5 62.6666 -1.5V1.5ZM18.6666 -1.5C7.89707 -1.5 -0.833374 7.23045 -0.833374 18H2.16663C2.16663 8.8873 9.55393 1.5 18.6666 1.5V-1.5Z" fill="#606071" fill-opacity="0.5" mask="url(#path-1-inside-1_337_2035)"/>
</svg>
