<svg width="52" height="30" viewBox="0 0 52 30" fill="none" xmlns="http://www.w3.org/2000/svg">
<path fill-rule="evenodd" clip-rule="evenodd" d="M46.0797 1.03C43.6869 1.37804 40.9896 2.59681 38.9394 4.25646C37.7989 5.17971 36.481 6.62159 35.8262 7.66242V7.66242C35.6912 7.87718 35.6546 8.13953 35.7259 8.38303L35.7429 8.44117C35.9083 9.00644 36.243 9.66393 36.606 10.1364C36.8664 10.4753 36.8757 10.5039 36.7101 10.4553C36.0446 10.2598 34.7454 9.2506 34.405 8.66474C34.0696 8.08757 34.0284 7.78673 34.2231 7.33708C34.3879 6.9564 35.0021 6.09311 35.568 5.4465L35.5811 5.43149C35.7385 5.25167 35.7708 4.9942 35.6626 4.7811V4.7811C35.4204 4.30382 35.0252 3.13116 34.9003 2.51923V2.51923C34.8417 2.23199 34.5814 2.03113 34.2887 2.04727L33.9693 2.06489C31.0317 2.22693 28.5175 3.95006 27.2353 6.68022C26.3712 8.52 26.2082 10.5497 26.7601 12.5986C27.1495 14.0443 28.0305 15.531 29.1697 16.6651C29.7602 17.253 30.6356 17.9747 30.8661 18.0638C30.9152 18.0827 31.1606 17.9678 31.4114 17.8084C32.0352 17.4119 32.7648 17.0929 33.398 16.9395C34.0264 16.7873 35.5813 16.7602 35.8193 16.8972C35.9154 16.9526 35.9343 16.9887 35.8676 16.9902C35.6929 16.994 34.5323 17.6052 33.9193 18.0162C33.064 18.5897 31.6637 19.9701 31.3214 20.5773C31.279 20.6526 30.2559 20.1092 29.5162 19.6186C26.5817 17.6721 24.7859 14.647 24.4489 11.0823C24.4122 10.6948 24.394 9.85979 24.4082 9.22672L24.4273 8.38195C24.4314 8.20195 24.3125 8.04223 24.1389 7.99441V7.99441C23.9765 7.94963 23.4588 7.87143 22.9884 7.82055C21.4088 7.64966 19.4201 7.9512 17.6877 8.62419C15.7106 9.39229 14.2533 10.2975 11.2773 12.6063C8.41297 14.8284 7.32218 15.5096 5.83329 16.0059C4.31785 16.5111 2.67004 16.4626 1.19202 15.8694C0.914931 15.7582 0.674006 15.6814 0.656673 15.6987C0.603887 15.7511 1.0079 16.5728 1.27916 16.9645C1.69672 17.5676 2.57471 18.4356 3.205 18.8685C4.00585 19.4185 5.12698 19.9335 6.05562 20.1779C6.72593 20.3543 6.98947 20.3812 8.08649 20.3848C9.13 20.3883 9.46681 20.3594 10.0427 20.2172C11.3941 19.8837 12.6063 19.293 13.7088 18.4307C14.325 17.9487 14.35 17.9371 14.35 18.1346C14.35 18.8052 13.6944 20.3514 13.0475 21.2064C12.6258 21.7639 11.8998 22.4013 11.2174 22.8132V22.8132C10.9226 22.9912 10.7319 23.3005 10.7054 23.6438L10.6947 23.7826C10.6655 24.1598 10.6226 24.7151 10.5992 25.0165C10.5758 25.3178 10.4925 26.3218 10.4142 27.2475C10.3358 28.1732 10.2874 28.9569 10.3064 28.9893C10.3256 29.0216 12.1097 29.048 14.2712 29.048C16.4327 29.048 18.2161 29.0216 18.2343 28.9893C18.2526 28.9569 18.1873 28.1379 18.0893 27.1692C17.9912 26.2005 17.9341 25.3861 17.9623 25.3595C17.9904 25.3329 18.6426 24.8493 19.4115 24.2848L19.846 23.9658C20.4572 23.5172 21.2346 23.3599 21.972 23.5356V23.5356C23.831 23.9786 25.4813 24.3511 25.585 24.3511C25.6376 24.3511 25.8553 24.1309 26.0686 23.8618C26.282 23.5928 26.6308 23.2008 26.844 22.9909C27.232 22.6087 28.0334 22.0295 28.0925 22.0886C28.1097 22.1059 27.9498 22.7365 27.7371 23.49C27.5243 24.2434 27.3639 24.9194 27.3806 24.9921C27.3974 25.0649 27.9169 26.0072 28.5349 27.0862V27.0862C29.23 28.2995 30.5213 29.048 31.9196 29.048H33.5464C35.6847 29.048 37.4342 29.0279 37.4342 29.0035C37.4342 28.9791 37.0636 28.4695 36.6106 27.8712C35.2834 26.1184 34.7729 24.822 34.9667 23.6974C35.3258 21.6147 37.3325 20.266 40.0651 20.2709C41.9271 20.2743 43.346 20.7139 44.6429 21.6894C45.22 22.1233 45.2323 22.1245 45.8643 21.8006C47.4309 20.9979 48.6218 19.0593 48.6218 17.3117C48.6218 16.5234 48.4885 16.0041 48.0934 15.253L48.0458 15.1625C47.9079 14.9003 47.9467 14.58 48.1432 14.3582V14.3582C48.5186 13.9345 48.8721 13.2311 49.0225 12.6088C49.1518 12.0738 49.1514 10.8405 49.0218 10.2377V10.2377C48.979 10.0386 48.7352 9.96252 48.5867 10.102L48.2341 10.4334C47.0645 11.5327 46.1287 11.9735 44.82 12.0417C43.5079 12.1102 42.1691 11.6488 40.8614 10.6777C39.9352 9.98981 39.9655 10.0574 40.2262 9.26218C40.77 7.60308 41.9839 5.82014 44.2104 3.4107C44.7674 2.80793 45.542 2.03295 45.9318 1.68851C46.5833 1.11267 46.7486 0.929252 46.593 0.954381C46.5605 0.959626 46.3295 0.993678 46.0797 1.03ZM50.0793 5.10214C46.9915 5.42474 44.3586 6.55364 42.5219 8.34245C42.2124 8.64384 41.8581 9.02327 41.7345 9.1857C41.5201 9.46736 41.516 9.48787 41.6458 9.63034C41.8782 9.88554 43.1974 10.4943 43.7764 10.6136C44.6974 10.8035 44.6603 10.8181 45.3994 9.97604C46.9513 8.20797 49.2375 6.39598 51.0676 5.48345C51.499 5.26833 51.852 5.07505 51.852 5.05392C51.852 4.99763 50.8075 5.02605 50.0793 5.10214ZM37.8469 13.2115C37.8149 13.2891 37.7927 13.5547 37.7974 13.8019C37.8271 15.3358 39.6139 16.1817 40.8383 15.2416C41.0139 15.1067 41.2323 14.8667 41.3237 14.7082L41.355 14.6538C41.435 14.5151 41.4145 14.3403 41.3045 14.2239V14.2239C40.8513 13.7446 39.5377 13.2474 38.3984 13.124C37.9672 13.0772 37.8977 13.0883 37.8469 13.2115ZM38.8797 21.8789C37.9858 22.0944 37.0091 22.7809 36.6277 23.462V23.462C36.5562 23.5896 36.617 23.7508 36.755 23.7993L37.2185 23.9625C37.6188 24.1034 37.9709 24.2396 38.001 24.2653C38.031 24.2909 37.8662 24.7807 37.6346 25.3536L37.3803 25.9829C37.2873 26.2132 37.3928 26.4759 37.6193 26.5779V26.5779C37.8425 26.6783 39.0829 27.2751 40.3758 27.9042C41.6688 28.5333 42.7589 29.048 42.7985 29.048C42.838 29.048 42.8704 28.9886 42.8704 28.916C42.8704 28.8434 43.103 27.6076 43.3872 26.1696C43.9793 23.1748 43.9956 23.4421 43.1839 22.8358C42.58 22.3848 41.8662 22.0423 41.209 21.8884C40.6068 21.7473 39.4452 21.7426 38.8797 21.8789ZM20.9105 25.2861C20.5973 25.3154 20.3242 25.356 20.3036 25.3764C20.2832 25.3968 20.7895 26.2224 21.4289 27.2112V27.2112C22.1544 28.3333 23.3957 29.0152 24.7319 29.0257L25.2068 29.0294C26.6453 29.0408 27.8223 29.0306 27.8223 29.0068C27.8223 28.9142 27.4709 28.2836 27.1886 27.8696C26.3841 26.69 24.6829 25.6467 23.1247 25.3775C22.4545 25.2616 21.5644 25.2249 20.9105 25.2861Z" fill="white"/>
</svg>
