<svg width="31" height="44" viewBox="0 0 31 44" fill="none" xmlns="http://www.w3.org/2000/svg">
<path d="M15.515 9.28434C16.8011 5.70462 19.3713 0.171769 23.9239 0.00441649C28.5154 -0.167018 30.1046 4.68826 30.2295 8.33124C30.3988 13.2076 29.3592 17.7942 27.1105 22.0909C27.0791 22.1508 27.0839 22.2072 27.1248 22.2603C27.6041 22.8644 27.9761 23.3835 28.241 23.8175C31.0241 28.3911 30.7722 34.0771 27.4402 38.3078C21.3865 45.9918 9.30357 45.8346 3.35632 38.2099C-0.358659 33.4485 -0.00641151 26.8441 3.80073 22.2358C3.84442 22.1814 3.85056 22.1229 3.81916 22.0603C1.49474 17.603 0.343788 12.5273 0.745186 7.51489C0.865333 6.01551 1.25444 4.59097 1.91252 3.24127C3.66147 -0.344576 7.74713 -1.01807 10.7453 1.55957C13.0308 3.52699 14.491 6.47812 15.4269 9.2823C15.4556 9.36665 15.485 9.36733 15.515 9.28434ZM17.3049 20.3215C16.0857 20.1432 14.8665 20.1419 13.6473 20.3174C13.5776 20.3283 13.5456 20.299 13.551 20.2296C13.9524 15.6213 13.108 11.2592 11.0177 7.14345C10.3337 5.79442 9.15202 4.01068 7.73075 3.39229C5.84049 2.56981 4.66292 4.37804 4.27995 5.90871C3.91268 7.36726 3.7782 8.90609 3.8765 10.5252C4.13045 14.6478 5.40427 19.2255 7.9806 22.5093C8.02292 22.5624 8.01746 22.6113 7.96421 22.6562C7.45086 23.0916 7.07813 23.427 6.84603 23.6624C4.31067 26.236 3.34199 29.7749 4.35777 33.2199C5.65003 37.5996 9.9712 40.3752 14.4194 40.7569C18.7426 41.1304 23.246 39.1772 25.5438 35.4445C28.243 31.0606 26.8955 25.7074 22.9306 22.6848C22.8747 22.6426 22.8692 22.5943 22.9143 22.5399C25.8121 19.0398 27.0552 13.7151 27.0614 9.24964C27.0634 7.50876 26.6661 2.95554 23.9198 3.21678C22.2937 3.37188 20.7864 5.48828 20.0881 6.80262C17.9541 10.817 16.8871 15.6417 17.4319 20.2011C17.4428 20.2963 17.4005 20.3364 17.3049 20.3215Z" fill="white"/>
<path d="M8.73274 31.2341L6.89368 30.1708L12.2655 27.0646C12.2729 27.0603 12.2813 27.0582 12.2899 27.0584C12.2984 27.0585 12.3069 27.061 12.3143 27.0655C12.3217 27.0701 12.328 27.0765 12.3323 27.0842C12.3367 27.0919 12.339 27.1006 12.3392 27.1095L12.3412 29.0422C12.3412 29.117 12.3085 29.1735 12.2429 29.2116L8.73274 31.2341Z" fill="white"/>
<path d="M17.7972 29.6727L12.8924 35.6627C12.8838 35.6731 12.8723 35.6809 12.8594 35.6849C12.8464 35.689 12.8326 35.6892 12.8195 35.6855C12.8065 35.6818 12.7948 35.6744 12.7859 35.6642C12.777 35.6539 12.7713 35.6414 12.7695 35.628L12.4521 33.4381C12.4507 33.4283 12.4515 33.4183 12.4543 33.4088C12.4571 33.3993 12.4619 33.3905 12.4685 33.383L17.404 27.493C17.4128 27.4832 17.4241 27.476 17.4367 27.4724C17.4494 27.4687 17.4628 27.4687 17.4754 27.4723C17.4881 27.4759 17.4994 27.4831 17.5082 27.4929C17.5169 27.5027 17.5227 27.5147 17.5249 27.5277L17.8116 29.6196C17.8129 29.6289 17.8124 29.6385 17.8099 29.6476C17.8074 29.6567 17.8031 29.6653 17.7972 29.6727Z" fill="white"/>
<path d="M23.3962 30.3933L21.5141 31.4607L18.2906 29.8994C18.2612 29.8857 18.2358 29.8646 18.2168 29.8382C18.1978 29.8118 18.1859 29.7809 18.1821 29.7484L17.9117 27.6769C17.9106 27.6673 17.9121 27.6576 17.9162 27.6488C17.9202 27.64 17.9265 27.6324 17.9346 27.6269C17.9426 27.6215 17.9519 27.6183 17.9616 27.6178C17.9713 27.6172 17.981 27.6193 17.9896 27.6239L23.3962 30.3933Z" fill="white"/>
<path d="M6.89368 30.1708L8.73274 31.2341L12.0033 33.1586C12.0347 33.1763 12.0531 33.2029 12.0586 33.2382L12.3719 35.4342C12.3732 35.4434 12.3719 35.4527 12.3681 35.4611C12.3643 35.4695 12.3582 35.4767 12.3505 35.4818C12.3428 35.4869 12.3338 35.4898 12.3246 35.49C12.3153 35.4903 12.3062 35.4879 12.2982 35.4832L6.9674 32.4015C6.9462 32.389 6.92862 32.3712 6.91641 32.3497C6.9042 32.3282 6.89777 32.3039 6.89777 32.279L6.89368 30.1708Z" fill="white"/>
<path d="M23.3955 30.3932L23.4159 32.3218C23.4173 32.4007 23.3832 32.4606 23.3135 32.5014L17.5588 35.8138C17.5274 35.8328 17.5117 35.824 17.5117 35.7873L17.5096 33.7443C17.5096 33.709 17.5253 33.6824 17.5567 33.6647L21.5134 31.4606L23.3955 30.3932Z" fill="white"/>
</svg>
