<svg width="33" height="32" viewBox="0 0 33 32" fill="none" xmlns="http://www.w3.org/2000/svg">
<path d="M24.5087 19.7728C25.213 16.5731 22.5571 13.33 19.3395 13.4563C15.4999 13.4548 11.6602 13.4556 7.81982 13.4548C4.40448 13.4548 1.3444 11.2214 0.33678 7.90013C0.0970929 7.1083 -0.0215871 6.24937 0.00323485 5.40938C2.12939 5.40385 4.25942 5.4457 6.38403 5.40938C6.38868 3.59994 6.37472 1.80944 6.38946 0H14.2704L14.2689 5.40938H14.2929C14.2929 5.40938 18.0705 5.3928 19.9585 5.40938H19.9647H19.9717C31.818 5.97937 36.884 21.0249 27.8705 28.8642C21.6053 34.4102 11.4826 32.3284 7.80198 24.7575C6.28552 21.9446 6.30181 18.6897 6.39489 15.5729H14.2518C14.2518 15.8579 14.0943 18.5713 14.4194 20.0254C15.6969 25.134 22.8208 25.3267 24.3753 20.3025" fill="white"/>
</svg>
