<svg width="114" height="24" viewBox="0 0 114 24" fill="none" xmlns="http://www.w3.org/2000/svg">
<path d="M31.042 20.1282C27.464 20.1282 25.0695 18.5246 24.6017 15.6492L27.7943 14.8197C28.1521 16.7551 29.4457 17.3634 31.042 17.3634C32.6383 17.3634 33.409 16.7275 33.409 15.8704C33.409 15.0133 32.7209 14.6262 31.0971 14.3221L30.3264 14.1838C27.464 13.6585 25.0971 12.5802 25.0971 9.87064C25.0971 7.16109 27.2439 5.64042 30.4916 5.64042C33.5466 5.64042 35.6383 7.13344 36.2714 9.34532L33.0512 10.3407C32.7484 8.93059 31.8127 8.40527 30.4916 8.40527C29.1705 8.40527 28.4549 8.90294 28.4549 9.70475C28.4549 10.5895 29.2255 10.9489 30.4916 11.1701L31.2622 11.3084C34.3448 11.8613 36.7668 12.7461 36.7668 15.6215C36.7668 18.497 34.5099 20.1282 31.042 20.1282Z" fill="#E9E6E3"/>
<path d="M43.9617 20.1282C39.8608 20.1282 37.0809 17.3634 37.0809 13.0502V12.7184C37.0809 8.40527 39.8332 5.64042 43.9066 5.64042C47.925 5.64042 50.5396 8.51586 50.5396 12.7184V13.9073H40.6039C40.6864 15.7874 42.1452 17.0869 44.0718 17.0869C45.9984 17.0869 46.7965 16.0916 47.2644 15.0409L50.0993 16.5339C49.3286 17.9993 47.7048 20.1282 43.9617 20.1282ZM40.6314 11.3084H47.0167C46.8516 9.7324 45.6681 8.68175 43.8791 8.68175C42.0075 8.68175 40.8791 9.7324 40.6314 11.3084Z" fill="#E9E6E3"/>
<path d="M51.5621 19.7412V6.0275H54.9749V7.82465H55.4703C55.9107 6.8846 57.0116 5.80631 59.4612 5.80631C62.6538 5.80631 64.7731 8.15643 64.7731 11.5572V19.7412H61.3052V11.8337C61.3052 9.76005 60.2593 8.73705 58.3878 8.73705C56.2685 8.73705 55.03 10.2301 55.03 12.7737V19.7412H51.5621Z" fill="#E9E6E3"/>
<path d="M71.3109 19.7412C69.4943 19.7412 68.2833 18.5246 68.2833 16.6445V8.90294H64.8705V6.0275H68.2833V1.76963H71.7512V6.0275H75.4943V8.90294H71.7512V16.0363C71.7512 16.5892 72.0265 16.8657 72.5219 16.8657H75.1641V19.7412H71.3109Z" fill="#E9E6E3"/>
<path d="M78.3032 4.42388C77.0371 4.42388 76.0738 3.53913 76.0738 2.212C76.0738 0.884875 77.0371 0.00012207 78.3032 0.00012207C79.5692 0.00012207 80.5325 0.884875 80.5325 2.212C80.5325 3.53913 79.5692 4.42388 78.3032 4.42388ZM76.5692 19.7412V6.0275H80.0371V19.7412H76.5692Z" fill="#E9E6E3"/>
<path d="M81.8158 19.7412V6.0275H85.2286V7.82465H85.7241C86.1644 6.8846 87.2653 5.80631 89.7149 5.80631C92.9075 5.80631 95.0268 8.15643 95.0268 11.5572V19.7412H91.5589V11.8337C91.5589 9.76005 90.513 8.73705 88.6415 8.73705C86.5222 8.73705 85.2837 10.2301 85.2837 12.7737V19.7412H81.8158Z" fill="#E9E6E3"/>
<path d="M102.932 20.1282C98.8308 20.1282 96.051 17.3634 96.051 13.0502V12.7184C96.051 8.40527 98.8033 5.64042 102.877 5.64042C106.895 5.64042 109.51 8.51586 109.51 12.7184V13.9073H99.5739C99.6565 15.7874 101.115 17.0869 103.042 17.0869C104.968 17.0869 105.767 16.0916 106.234 15.0409L109.069 16.5339C108.299 17.9993 106.675 20.1282 102.932 20.1282ZM99.6014 11.3084H105.987C105.822 9.7324 104.638 8.68175 102.849 8.68175C100.978 8.68175 99.8491 9.7324 99.6014 11.3084Z" fill="#E9E6E3"/>
<path d="M110.532 19.7412V0.387201H114V19.7412H110.532Z" fill="#E9E6E3"/>
<path fill-rule="evenodd" clip-rule="evenodd" d="M16.8741 11.3232C21.0836 16.2789 17.601 23.9157 11.1159 23.9497L1.53446 24L1.5123 19.7425L11.0938 19.6921C13.9727 19.677 15.5187 16.2868 13.65 14.0868L8.941 8.54295L10.8873 4.27502L16.8741 11.3232Z" fill="#E9E6E3"/>
<path fill-rule="evenodd" clip-rule="evenodd" d="M1.83834 12.677C-2.37117 7.72119 1.11147 0.0844631 7.59652 0.0503998L17.178 7.62939e-05L17.2001 4.25766L7.61868 4.30799C4.73975 4.32311 3.1937 7.7133 5.06243 9.91333L9.77145 15.4572L7.82512 19.7251L1.83834 12.677Z" fill="#E9E6E3"/>
</svg>
