<svg width="1698" height="546" viewBox="0 0 1698 546" fill="none" xmlns="http://www.w3.org/2000/svg">
<circle opacity="0.7" cx="396.044" cy="114" r="1" fill="#E9E5E1"/>
<circle opacity="0.7" cx="626.044" cy="194" r="1" fill="#E9E5E1"/>
<circle cx="696.044" cy="104" r="1" fill="#E9E5E1"/>
<circle opacity="0.4" cx="1046.04" cy="64" r="1" fill="#E9E5E1"/>
<circle opacity="0.4" cx="966.044" cy="154" r="1" fill="#F4D4C1"/>
<circle opacity="0.4" cx="1217.04" cy="117" r="1" fill="#E9E5E1"/>
<circle opacity="0.4" cx="1317.04" cy="177" r="1" fill="#E9E5E1"/>
<circle opacity="0.7" cx="416.044" cy="144" r="0.5" fill="#F4D4C1"/>
<circle opacity="0.7" cx="526.044" cy="84" r="0.5" fill="#F4D4C1"/>
<circle opacity="0.7" cx="596.044" cy="154" r="0.5" fill="#E9E5E1"/>
<circle cx="647.044" cy="124" r="0.5" fill="#E9E5E1"/>
<circle cx="697.044" cy="74" r="0.5" fill="#E9E5E1"/>
<circle cx="817.044" cy="184" r="0.5" fill="#E9E5E1"/>
<circle cx="918.044" cy="153" r="0.5" fill="#E9E5E1"/>
<circle opacity="0.4" cx="978.044" cy="93" r="0.5" fill="#E9E5E1"/>
<circle opacity="0.4" cx="1048.04" cy="163" r="0.5" fill="#E9E5E1"/>
<circle opacity="0.4" cx="1119.04" cy="83" r="0.5" fill="#E9E5E1"/>
<circle opacity="0.4" cx="1109.04" cy="73" r="0.5" fill="#E9E5E1"/>
<circle opacity="0.4" cx="1190.04" cy="93" r="0.5" fill="#E9E5E1"/>
<circle opacity="0.4" cx="1270.04" cy="173" r="0.5" fill="#E9E5E1"/>
<circle opacity="0.4" cx="1320.04" cy="123" r="0.5" fill="#E9E5E1"/>
<circle opacity="0.4" cx="1341.04" cy="133" r="0.5" fill="#E9E5E1"/>
<circle opacity="0.4" cx="1281.04" cy="63" r="0.5" fill="#E9E5E1"/>
<circle cx="1" cy="1" r="1" transform="matrix(-1 0 0 1 237.044 16.75)" fill="#E9E5E1"/>
<circle opacity="0.7" cx="1" cy="1" r="1" transform="matrix(-1 0 0 1 381.044 223.5)" fill="#E9E5E1"/>
<circle opacity="0.7" cx="1" cy="1" r="1" transform="matrix(-1 0 0 1 137.044 124.25)" fill="#E9E5E1"/>
<circle opacity="0.7" cx="1" cy="1" r="1" transform="matrix(-1 0 0 1 37.0439 184.25)" fill="#E9E5E1"/>
<circle opacity="0.7" cx="0.5" cy="0.5" r="0.5" transform="matrix(-1 0 0 1 368.544 163)" fill="#E9E5E1"/>
<circle opacity="0.7" cx="0.5" cy="0.5" r="0.5" transform="matrix(-1 0 0 1 298.544 233)" fill="#E9E5E1"/>
<circle opacity="0.7" cx="0.5" cy="0.5" r="0.5" transform="matrix(-1 0 0 1 163.544 36.25)" fill="#E9E5E1"/>
<circle opacity="0.7" cx="0.5" cy="0.5" r="0.5" transform="matrix(-1 0 0 1 173.544 26.25)" fill="#E9E5E1"/>
<circle opacity="0.7" cx="0.5" cy="0.5" r="0.5" transform="matrix(-1 0 0 1 163.544 100.75)" fill="#E9E5E1"/>
<circle opacity="0.7" cx="0.5" cy="0.5" r="0.5" transform="matrix(-1 0 0 1 83.5439 180.75)" fill="#E9E5E1"/>
<circle opacity="0.7" cx="0.5" cy="0.5" r="0.5" transform="matrix(-1 0 0 1 33.5439 130.75)" fill="#E9E5E1"/>
<circle opacity="0.7" cx="0.5" cy="0.5" r="0.5" transform="matrix(-1 0 0 1 12.5439 140.75)" fill="#E9E5E1"/>
<circle cx="0.5" cy="0.5" r="0.5" transform="matrix(-1 0 0 1 1.54395 16.25)" fill="#E9E5E1"/>
<circle cx="1" cy="1" r="1" transform="matrix(-1 0 0 1 1617.04 40)" fill="#E9E5E1"/>
<circle cx="1" cy="1" r="1" transform="matrix(-1 0 0 1 1697.04 130)" fill="#E9E5E1"/>
<circle opacity="0.4" cx="1" cy="1" r="1" transform="matrix(-1 0 0 1 1446.04 93)" fill="#E9E5E1"/>
<circle opacity="0.4" cx="1" cy="1" r="1" transform="matrix(-1 0 0 1 1346.04 153)" fill="#E9E5E1"/>
<circle cx="0.5" cy="0.5" r="0.5" transform="matrix(-1 0 0 1 1684.54 69.5)" fill="#E9E5E1"/>
<circle cx="0.5" cy="0.5" r="0.5" transform="matrix(-1 0 0 1 1614.54 139.5)" fill="#E9E5E1"/>
<circle opacity="0.4" cx="0.5" cy="0.5" r="0.5" transform="matrix(-1 0 0 1 1543.54 59.5)" fill="#E9E5E1"/>
<circle opacity="0.4" cx="0.5" cy="0.5" r="0.5" transform="matrix(-1 0 0 1 1553.54 49.5)" fill="#E9E5E1"/>
<circle opacity="0.4" cx="0.5" cy="0.5" r="0.5" transform="matrix(-1 0 0 1 1472.54 69.5)" fill="#E9E5E1"/>
<circle opacity="0.4" cx="0.5" cy="0.5" r="0.5" transform="matrix(-1 0 0 1 1392.54 149.5)" fill="#E9E5E1"/>
<circle opacity="0.4" cx="0.5" cy="0.5" r="0.5" transform="matrix(-1 0 0 1 1342.54 99.5)" fill="#E9E5E1"/>
<circle opacity="0.4" cx="0.5" cy="0.5" r="0.5" transform="matrix(-1 0 0 1 1321.54 109.5)" fill="#F4D4C1"/>
<circle opacity="0.4" cx="0.5" cy="0.5" r="0.5" transform="matrix(-1 0 0 1 1381.54 39.5)" fill="#E9E5E1"/>
<circle opacity="0.7" cx="531.044" cy="183" r="0.5" fill="#E9E5E1"/>
<circle opacity="0.7" cx="421.044" cy="123" r="0.5" fill="#E9E5E1"/>
<circle opacity="0.7" cx="415.044" cy="171.75" r="0.5" fill="#E9E5E1"/>
<circle opacity="0.7" cx="535.818" cy="243" r="0.5" transform="rotate(180 535.818 243)" fill="#E9E5E1"/>
<circle opacity="0.7" cx="0.5" cy="0.5" r="0.5" transform="matrix(1 0 0 -1 583.318 224)" fill="#E9E5E1"/>
<circle opacity="0.7" cx="536.818" cy="215.25" r="0.5" transform="rotate(180 536.818 215.25)" fill="#E9E5E1"/>
<circle cx="1" cy="1" r="1" transform="matrix(-1 0 0 1 423.044 13)" fill="#E9E5E1"/>
<circle opacity="0.7" cx="1" cy="1" r="1" transform="matrix(-1 0 0 1 257.044 209.75)" fill="#E9E5E1"/>
<circle cx="1" cy="1" r="1" transform="matrix(-1 0 0 1 123.044 3)" fill="#E9E5E1"/>
<circle opacity="0.7" cx="0.5" cy="0.5" r="0.5" transform="matrix(-1 0 0 1 402.544 43.5)" fill="#F4D4C1"/>
<circle opacity="0.7" cx="0.5" cy="0.5" r="0.5" transform="matrix(-1 0 0 1 286.544 170.25)" fill="#E9E5E1"/>
<circle cx="0.5" cy="0.5" r="0.5" transform="matrix(-1 0 0 1 171.544 23.5)" fill="#E9E5E1"/>
<circle opacity="0.7" cx="0.5" cy="0.5" r="0.5" transform="matrix(-1 0 0 1 351.544 199.25)" fill="#E9E5E1"/>
<circle opacity="0.4" cx="960.044" cy="82.625" r="1" fill="#E9E5E1"/>
<circle cx="1" cy="1" r="1" transform="matrix(-1 0 0 1 881.044 75.375)" fill="#E9E5E1"/>
<circle opacity="0.7" cx="1" cy="1" r="1" transform="matrix(-1 0 0 1 630.044 38.375)" fill="#F4D4C1"/>
<circle opacity="0.7" cx="1" cy="1" r="1" transform="matrix(-1 0 0 1 530.044 98.375)" fill="#E9E5E1"/>
<circle cx="0.5" cy="0.5" r="0.5" transform="matrix(-1 0 0 1 467.544 84.875)" fill="#E9E5E1"/>
<circle opacity="0.7" cx="0.5" cy="0.5" r="0.5" transform="matrix(-1 0 0 1 576.544 94.875)" fill="#E9E5E1"/>
<circle opacity="0.7" cx="1492.04" cy="274.5" r="1" fill="#E9E5E1"/>
<circle opacity="0.7" cx="1392.04" cy="164.5" r="0.5" fill="#E9E5E1"/>
<circle opacity="0.7" cx="1462.04" cy="234.5" r="0.5" fill="#E9E5E1"/>
<circle cx="1513.04" cy="204.5" r="0.5" fill="#E9E5E1"/>
<circle opacity="0.7" cx="1397.04" cy="263.5" r="0.5" fill="#E9E5E1"/>
<circle opacity="0.7" cx="1" cy="1" r="1" transform="matrix(-1 0 0 1 1396.04 178.875)" fill="#E9E5E1"/>
<circle opacity="0.7" cx="0.5" cy="0.5" r="0.5" transform="matrix(-1 0 0 1 1442.54 175.375)" fill="#F4D4C1"/>
<circle opacity="0.7" cx="1167.54" cy="160.625" r="0.5" fill="#F4D4C1"/>
<circle opacity="0.7" cx="1" cy="1" r="1" transform="matrix(-1 0 0 1 1171.54 175)" fill="#E9E5E1"/>
<circle opacity="0.7" cx="0.5" cy="0.5" r="0.5" transform="matrix(-1 0 0 1 1218.04 171.5)" fill="#E9E5E1"/>
<circle opacity="0.7" cx="212.044" cy="127.625" r="0.5" fill="#E9E5E1"/>
<circle opacity="0.7" cx="1" cy="1" r="1" transform="matrix(-1 0 0 1 216.044 142)" fill="#E9E5E1"/>
<circle opacity="0.7" cx="0.5" cy="0.5" r="0.5" transform="matrix(-1 0 0 1 262.544 138.5)" fill="#E9E5E1"/>
<circle opacity="0.7" cx="713.544" cy="170.75" r="0.5" fill="#E9E5E1"/>
<circle opacity="0.7" cx="783.544" cy="240.75" r="0.5" fill="#E9E5E1"/>
<circle opacity="0.7" cx="1" cy="1" r="1" transform="matrix(-1 0 0 1 717.544 185.125)" fill="#E9E5E1"/>
<circle opacity="0.7" cx="0.5" cy="0.5" r="0.5" transform="matrix(-1 0 0 1 764.044 181.625)" fill="#E9E5E1"/>
<circle opacity="0.7" cx="713.544" cy="170.75" r="0.5" fill="#E9E5E1"/>
<circle opacity="0.7" cx="783.544" cy="240.75" r="0.5" fill="#E9E5E1"/>
<circle opacity="0.7" cx="1" cy="1" r="1" transform="matrix(-1 0 0 1 717.544 185.125)" fill="#E9E5E1"/>
<circle opacity="0.7" cx="0.5" cy="0.5" r="0.5" transform="matrix(-1 0 0 1 764.044 181.625)" fill="#F4D4C1"/>
<circle opacity="0.7" cx="0.5" cy="0.5" r="0.5" transform="matrix(-1 0 0 1 526.544 44.875)" fill="#E9E5E1"/>
<circle cx="915.044" cy="23.625" r="0.5" fill="#E9E5E1"/>
<circle cx="1" cy="1" r="1" transform="matrix(-1 0 0 1 757.044 61.625)" fill="#E9E5E1"/>
<circle cx="0.5" cy="0.5" r="0.5" transform="matrix(-1 0 0 1 786.544 22.125)" fill="#E9E5E1"/>
<circle cx="0.5" cy="0.5" r="0.5" transform="matrix(-1 0 0 1 851.544 51.125)" fill="#E9E5E1"/>
<circle opacity="0.4" cx="1576.04" cy="88.125" r="1" fill="#F4D4C1"/>
<circle opacity="0.4" cx="1596.04" cy="118.125" r="0.5" fill="#E9E5E1"/>
<circle opacity="0.4" cx="1" cy="1" r="1" transform="matrix(-1 0 0 1 1497.04 80.875)" fill="#E9E5E1"/>
<circle opacity="0.4" cx="1" cy="1" r="1" transform="matrix(-1 0 0 1 1246.04 43.875)" fill="#E9E5E1"/>
<circle opacity="0.4" cx="0.5" cy="0.5" r="0.5" transform="matrix(-1 0 0 1 1484.54 20.375)" fill="#E9E5E1"/>
<circle opacity="0.4" cx="0.5" cy="0.5" r="0.5" transform="matrix(-1 0 0 1 1414.54 90.375)" fill="#E9E5E1"/>
<circle opacity="0.4" cx="0.5" cy="0.5" r="0.5" transform="matrix(-1 0 0 1 1272.54 20.375)" fill="#E9E5E1"/>
<circle opacity="0.4" cx="0.5" cy="0.5" r="0.5" transform="matrix(-1 0 0 1 1192.54 100.375)" fill="#F4D4C1"/>
<circle cx="1601.04" cy="97.125" r="0.5" fill="#E9E5E1"/>
<circle opacity="0.4" cx="1531.04" cy="29.125" r="0.5" fill="#E9E5E1"/>
<circle opacity="0.4" cx="1" cy="1" r="1" transform="matrix(-1 0 0 1 1373.04 67.125)" fill="#F4D4C1"/>
<circle opacity="0.4" cx="1" cy="1" r="1" transform="matrix(-1 0 0 1 1006.54 186)" fill="#E9E5E1"/>
<circle opacity="0.4" cx="1" cy="1" r="1" transform="matrix(-1 0 0 1 906.544 246)" fill="#E9E5E1"/>
<circle opacity="0.4" cx="0.5" cy="0.5" r="0.5" transform="matrix(-1 0 0 1 1104.04 152.5)" fill="#E9E5E1"/>
<circle opacity="0.4" cx="0.5" cy="0.5" r="0.5" transform="matrix(-1 0 0 1 1033.04 162.5)" fill="#E9E5E1"/>
<circle opacity="0.4" cx="0.5" cy="0.5" r="0.5" transform="matrix(-1 0 0 1 953.044 242.5)" fill="#E9E5E1"/>
<circle opacity="0.4" cx="1136.54" cy="181.125" r="1" fill="#E9E5E1"/>
<circle opacity="0.4" cx="1156.54" cy="211.125" r="0.5" fill="#E9E5E1"/>
<circle opacity="0.4" cx="1" cy="1" r="1" transform="matrix(-1 0 0 1 1057.54 173.875)" fill="#E9E5E1"/>
<circle opacity="0.4" cx="0.5" cy="0.5" r="0.5" transform="matrix(-1 0 0 1 975.044 183.375)" fill="#E9E5E1"/>
<circle opacity="0.4" cx="1" cy="1" r="1" transform="matrix(-1 0 0 1 933.544 160.125)" fill="#E9E5E1"/>
<circle opacity="0.4" cx="0.5" cy="0.5" r="0.5" transform="matrix(-1 0 0 1 1402.54 27.625)" fill="#E9E5E1"/>
<circle opacity="0.4" cx="0.5" cy="0.5" r="0.5" transform="matrix(-1 0 0 1 1467.54 56.625)" fill="#E9E5E1"/>
<circle cx="0.5" cy="0.5" r="0.5" transform="matrix(-1 0 0 1 397.544 22.5)" fill="#E9E5E1"/>
<circle opacity="0.7" cx="1301.54" cy="386" r="1" transform="rotate(180 1301.54 386)" fill="#E9E5E1"/>
<circle opacity="0.7" cx="1071.54" cy="306" r="1" transform="rotate(180 1071.54 306)" fill="#E9E5E1"/>
<circle cx="1001.54" cy="396" r="1" transform="rotate(180 1001.54 396)" fill="#E9E5E1"/>
<circle opacity="0.4" cx="651.544" cy="436" r="1" transform="rotate(180 651.544 436)" fill="#E9E5E1"/>
<circle opacity="0.4" cx="731.544" cy="346" r="1" transform="rotate(180 731.544 346)" fill="#F4D4C1"/>
<circle opacity="0.4" cx="480.544" cy="383" r="1" transform="rotate(180 480.544 383)" fill="#E9E5E1"/>
<circle opacity="0.4" cx="380.544" cy="323" r="1" transform="rotate(180 380.544 323)" fill="#E9E5E1"/>
<circle opacity="0.7" cx="1281.54" cy="356" r="0.5" transform="rotate(180 1281.54 356)" fill="#F4D4C1"/>
<circle opacity="0.7" cx="1171.54" cy="416" r="0.5" transform="rotate(180 1171.54 416)" fill="#F4D4C1"/>
<circle opacity="0.7" cx="1101.54" cy="346" r="0.5" transform="rotate(180 1101.54 346)" fill="#E9E5E1"/>
<circle cx="1050.54" cy="376" r="0.5" transform="rotate(180 1050.54 376)" fill="#E9E5E1"/>
<circle cx="1000.54" cy="426" r="0.5" transform="rotate(180 1000.54 426)" fill="#E9E5E1"/>
<circle cx="880.544" cy="316" r="0.5" transform="rotate(180 880.544 316)" fill="#E9E5E1"/>
<circle cx="779.544" cy="347" r="0.5" transform="rotate(180 779.544 347)" fill="#E9E5E1"/>
<circle opacity="0.4" cx="719.544" cy="407" r="0.5" transform="rotate(180 719.544 407)" fill="#E9E5E1"/>
<circle opacity="0.4" cx="649.544" cy="337" r="0.5" transform="rotate(180 649.544 337)" fill="#E9E5E1"/>
<circle opacity="0.4" cx="578.544" cy="417" r="0.5" transform="rotate(180 578.544 417)" fill="#E9E5E1"/>
<circle opacity="0.4" cx="588.544" cy="427" r="0.5" transform="rotate(180 588.544 427)" fill="#E9E5E1"/>
<circle opacity="0.4" cx="507.544" cy="407" r="0.5" transform="rotate(180 507.544 407)" fill="#E9E5E1"/>
<circle opacity="0.4" cx="427.544" cy="327" r="0.5" transform="rotate(180 427.544 327)" fill="#E9E5E1"/>
<circle opacity="0.4" cx="377.544" cy="377" r="0.5" transform="rotate(180 377.544 377)" fill="#E9E5E1"/>
<circle opacity="0.4" cx="356.544" cy="367" r="0.5" transform="rotate(180 356.544 367)" fill="#E9E5E1"/>
<circle opacity="0.4" cx="416.544" cy="437" r="0.5" transform="rotate(180 416.544 437)" fill="#E9E5E1"/>
<circle cx="1" cy="1" r="1" transform="matrix(1 0 0 -1 1460.54 483.25)" fill="#E9E5E1"/>
<circle opacity="0.7" cx="1" cy="1" r="1" transform="matrix(1 0 0 -1 1316.54 276.5)" fill="#E9E5E1"/>
<circle opacity="0.7" cx="1" cy="1" r="1" transform="matrix(1 0 0 -1 1560.54 375.75)" fill="#E9E5E1"/>
<circle opacity="0.7" cx="1" cy="1" r="1" transform="matrix(1 0 0 -1 1660.54 315.75)" fill="#E9E5E1"/>
<circle opacity="0.7" cx="0.5" cy="0.5" r="0.5" transform="matrix(1 0 0 -1 1329.04 337)" fill="#E9E5E1"/>
<circle opacity="0.7" cx="0.5" cy="0.5" r="0.5" transform="matrix(1 0 0 -1 1399.04 267)" fill="#E9E5E1"/>
<circle opacity="0.7" cx="0.5" cy="0.5" r="0.5" transform="matrix(1 0 0 -1 1534.04 463.75)" fill="#E9E5E1"/>
<circle opacity="0.7" cx="0.5" cy="0.5" r="0.5" transform="matrix(1 0 0 -1 1524.04 473.75)" fill="#E9E5E1"/>
<circle opacity="0.7" cx="0.5" cy="0.5" r="0.5" transform="matrix(1 0 0 -1 1534.04 399.25)" fill="#E9E5E1"/>
<circle opacity="0.7" cx="0.5" cy="0.5" r="0.5" transform="matrix(1 0 0 -1 1614.04 319.25)" fill="#E9E5E1"/>
<circle opacity="0.7" cx="0.5" cy="0.5" r="0.5" transform="matrix(1 0 0 -1 1664.04 369.25)" fill="#E9E5E1"/>
<circle opacity="0.7" cx="0.5" cy="0.5" r="0.5" transform="matrix(1 0 0 -1 1685.04 359.25)" fill="#E9E5E1"/>
<circle cx="0.5" cy="0.5" r="0.5" transform="matrix(1 0 0 -1 1696.04 483.75)" fill="#E9E5E1"/>
<circle cx="1" cy="1" r="1" transform="matrix(1 0 0 -1 80.5439 460)" fill="#E9E5E1"/>
<circle cx="1" cy="1" r="1" transform="matrix(1 0 0 -1 0.543945 370)" fill="#E9E5E1"/>
<circle opacity="0.4" cx="1" cy="1" r="1" transform="matrix(1 0 0 -1 251.544 407)" fill="#E9E5E1"/>
<circle opacity="0.4" cx="1" cy="1" r="1" transform="matrix(1 0 0 -1 351.544 347)" fill="#E9E5E1"/>
<circle cx="0.5" cy="0.5" r="0.5" transform="matrix(1 0 0 -1 13.0439 430.5)" fill="#E9E5E1"/>
<circle cx="0.5" cy="0.5" r="0.5" transform="matrix(1 0 0 -1 83.0439 360.5)" fill="#E9E5E1"/>
<circle opacity="0.4" cx="0.5" cy="0.5" r="0.5" transform="matrix(1 0 0 -1 154.044 440.5)" fill="#E9E5E1"/>
<circle opacity="0.4" cx="0.5" cy="0.5" r="0.5" transform="matrix(1 0 0 -1 144.044 450.5)" fill="#E9E5E1"/>
<circle opacity="0.4" cx="0.5" cy="0.5" r="0.5" transform="matrix(1 0 0 -1 225.044 430.5)" fill="#E9E5E1"/>
<circle opacity="0.4" cx="0.5" cy="0.5" r="0.5" transform="matrix(1 0 0 -1 305.044 350.5)" fill="#E9E5E1"/>
<circle opacity="0.4" cx="0.5" cy="0.5" r="0.5" transform="matrix(1 0 0 -1 355.044 400.5)" fill="#E9E5E1"/>
<circle opacity="0.4" cx="0.5" cy="0.5" r="0.5" transform="matrix(1 0 0 -1 376.044 390.5)" fill="#F4D4C1"/>
<circle opacity="0.4" cx="0.5" cy="0.5" r="0.5" transform="matrix(1 0 0 -1 316.044 460.5)" fill="#E9E5E1"/>
<circle opacity="0.7" cx="1166.54" cy="317" r="0.5" transform="rotate(180 1166.54 317)" fill="#E9E5E1"/>
<circle opacity="0.7" cx="1276.54" cy="377" r="0.5" transform="rotate(180 1276.54 377)" fill="#E9E5E1"/>
<circle opacity="0.7" cx="1282.54" cy="328.25" r="0.5" transform="rotate(180 1282.54 328.25)" fill="#E9E5E1"/>
<circle opacity="0.7" cx="1161.77" cy="257" r="0.5" fill="#E9E5E1"/>
<circle opacity="0.7" cx="0.5" cy="0.5" r="0.5" transform="matrix(-1 0 0 1 1114.27 276)" fill="#E9E5E1"/>
<circle opacity="0.7" cx="1160.77" cy="284.75" r="0.5" fill="#E9E5E1"/>
<circle cx="1" cy="1" r="1" transform="matrix(1 0 0 -1 1274.54 487)" fill="#E9E5E1"/>
<circle opacity="0.7" cx="1" cy="1" r="1" transform="matrix(1 0 0 -1 1440.54 290.25)" fill="#E9E5E1"/>
<circle cx="1" cy="1" r="1" transform="matrix(1 0 0 -1 1574.54 497)" fill="#E9E5E1"/>
<circle opacity="0.7" cx="0.5" cy="0.5" r="0.5" transform="matrix(1 0 0 -1 1295.04 456.5)" fill="#F4D4C1"/>
<circle cx="0.5" cy="0.5" r="0.5" transform="matrix(1 0 0 -1 1405.04 516.5)" fill="#E9E5E1"/>
<circle opacity="0.7" cx="0.5" cy="0.5" r="0.5" transform="matrix(1 0 0 -1 1411.04 329.75)" fill="#E9E5E1"/>
<circle cx="0.5" cy="0.5" r="0.5" transform="matrix(1 0 0 -1 1526.04 476.5)" fill="#E9E5E1"/>
<circle cx="0.5" cy="0.5" r="0.5" transform="matrix(1 0 0 -1 1576.04 526.5)" fill="#E9E5E1"/>
<circle opacity="0.7" cx="0.5" cy="0.5" r="0.5" transform="matrix(1 0 0 -1 1346.04 300.75)" fill="#E9E5E1"/>
<circle opacity="0.4" cx="737.544" cy="417.375" r="1" transform="rotate(180 737.544 417.375)" fill="#E9E5E1"/>
<circle cx="1" cy="1" r="1" transform="matrix(1 0 0 -1 816.544 424.625)" fill="#E9E5E1"/>
<circle opacity="0.7" cx="1" cy="1" r="1" transform="matrix(1 0 0 -1 1067.54 461.625)" fill="#F4D4C1"/>
<circle opacity="0.7" cx="1" cy="1" r="1" transform="matrix(1 0 0 -1 1167.54 401.625)" fill="#E9E5E1"/>
<circle cx="0.5" cy="0.5" r="0.5" transform="matrix(1 0 0 -1 1230.04 415.125)" fill="#E9E5E1"/>
<circle opacity="0.7" cx="0.5" cy="0.5" r="0.5" transform="matrix(1 0 0 -1 1121.04 405.125)" fill="#E9E5E1"/>
<circle opacity="0.7" cx="205.544" cy="225.5" r="1" transform="rotate(180 205.544 225.5)" fill="#E9E5E1"/>
<circle opacity="0.7" cx="305.544" cy="335.5" r="0.5" transform="rotate(180 305.544 335.5)" fill="#E9E5E1"/>
<circle opacity="0.7" cx="235.544" cy="265.5" r="0.5" transform="rotate(180 235.544 265.5)" fill="#E9E5E1"/>
<circle cx="184.544" cy="295.5" r="0.5" transform="rotate(180 184.544 295.5)" fill="#E9E5E1"/>
<circle opacity="0.7" cx="300.544" cy="236.5" r="0.5" transform="rotate(180 300.544 236.5)" fill="#E9E5E1"/>
<circle opacity="0.7" cx="1" cy="1" r="1" transform="matrix(1 0 0 -1 301.544 321.125)" fill="#E9E5E1"/>
<circle opacity="0.7" cx="0.5" cy="0.5" r="0.5" transform="matrix(1 0 0 -1 255.044 324.625)" fill="#F4D4C1"/>
<circle opacity="0.7" cx="530.044" cy="339.375" r="0.5" transform="rotate(180 530.044 339.375)" fill="#F4D4C1"/>
<circle opacity="0.7" cx="1" cy="1" r="1" transform="matrix(1 0 0 -1 526.044 325)" fill="#E9E5E1"/>
<circle opacity="0.7" cx="0.5" cy="0.5" r="0.5" transform="matrix(1 0 0 -1 479.544 328.5)" fill="#E9E5E1"/>
<circle opacity="0.7" cx="1485.54" cy="372.375" r="0.5" transform="rotate(180 1485.54 372.375)" fill="#E9E5E1"/>
<circle opacity="0.7" cx="1" cy="1" r="1" transform="matrix(1 0 0 -1 1481.54 358)" fill="#E9E5E1"/>
<circle opacity="0.7" cx="0.5" cy="0.5" r="0.5" transform="matrix(1 0 0 -1 1435.04 361.5)" fill="#E9E5E1"/>
<circle opacity="0.7" cx="984.044" cy="329.25" r="0.5" transform="rotate(180 984.044 329.25)" fill="#E9E5E1"/>
<circle opacity="0.7" cx="914.044" cy="259.25" r="0.5" transform="rotate(180 914.044 259.25)" fill="#E9E5E1"/>
<circle opacity="0.7" cx="1" cy="1" r="1" transform="matrix(1 0 0 -1 980.044 314.875)" fill="#E9E5E1"/>
<circle opacity="0.7" cx="0.5" cy="0.5" r="0.5" transform="matrix(1 0 0 -1 933.544 318.375)" fill="#E9E5E1"/>
<circle opacity="0.7" cx="984.044" cy="329.25" r="0.5" transform="rotate(180 984.044 329.25)" fill="#E9E5E1"/>
<circle opacity="0.7" cx="914.044" cy="259.25" r="0.5" transform="rotate(180 914.044 259.25)" fill="#E9E5E1"/>
<circle opacity="0.7" cx="1" cy="1" r="1" transform="matrix(1 0 0 -1 980.044 314.875)" fill="#E9E5E1"/>
<circle opacity="0.7" cx="0.5" cy="0.5" r="0.5" transform="matrix(1 0 0 -1 933.544 318.375)" fill="#F4D4C1"/>
<circle opacity="0.7" cx="0.5" cy="0.5" r="0.5" transform="matrix(1 0 0 -1 1171.04 455.125)" fill="#E9E5E1"/>
<circle cx="782.544" cy="476.375" r="0.5" transform="rotate(180 782.544 476.375)" fill="#E9E5E1"/>
<circle cx="1" cy="1" r="1" transform="matrix(1 0 0 -1 940.544 438.375)" fill="#E9E5E1"/>
<circle cx="0.5" cy="0.5" r="0.5" transform="matrix(1 0 0 -1 911.044 477.875)" fill="#E9E5E1"/>
<circle cx="0.5" cy="0.5" r="0.5" transform="matrix(1 0 0 -1 846.044 448.875)" fill="#E9E5E1"/>
<circle opacity="0.4" cx="121.544" cy="411.875" r="1" transform="rotate(180 121.544 411.875)" fill="#F4D4C1"/>
<circle opacity="0.4" cx="101.544" cy="381.875" r="0.5" transform="rotate(180 101.544 381.875)" fill="#E9E5E1"/>
<circle opacity="0.4" cx="1" cy="1" r="1" transform="matrix(1 0 0 -1 200.544 419.125)" fill="#E9E5E1"/>
<circle opacity="0.4" cx="1" cy="1" r="1" transform="matrix(1 0 0 -1 451.544 456.125)" fill="#E9E5E1"/>
<circle opacity="0.4" cx="0.5" cy="0.5" r="0.5" transform="matrix(1 0 0 -1 213.044 479.625)" fill="#E9E5E1"/>
<circle opacity="0.4" cx="0.5" cy="0.5" r="0.5" transform="matrix(1 0 0 -1 283.044 409.625)" fill="#E9E5E1"/>
<circle opacity="0.4" cx="0.5" cy="0.5" r="0.5" transform="matrix(1 0 0 -1 425.044 479.625)" fill="#E9E5E1"/>
<circle opacity="0.4" cx="0.5" cy="0.5" r="0.5" transform="matrix(1 0 0 -1 505.044 399.625)" fill="#F4D4C1"/>
<circle cx="96.5439" cy="402.875" r="0.5" transform="rotate(180 96.5439 402.875)" fill="#E9E5E1"/>
<circle opacity="0.4" cx="166.544" cy="470.875" r="0.5" transform="rotate(180 166.544 470.875)" fill="#E9E5E1"/>
<circle opacity="0.4" cx="1" cy="1" r="1" transform="matrix(1 0 0 -1 324.544 432.875)" fill="#F4D4C1"/>
<circle opacity="0.4" cx="1" cy="1" r="1" transform="matrix(1 0 0 -1 691.044 314)" fill="#E9E5E1"/>
<circle opacity="0.4" cx="1" cy="1" r="1" transform="matrix(1 0 0 -1 791.044 254)" fill="#E9E5E1"/>
<circle opacity="0.4" cx="0.5" cy="0.5" r="0.5" transform="matrix(1 0 0 -1 593.544 347.5)" fill="#E9E5E1"/>
<circle opacity="0.4" cx="0.5" cy="0.5" r="0.5" transform="matrix(1 0 0 -1 664.544 337.5)" fill="#E9E5E1"/>
<circle opacity="0.4" cx="0.5" cy="0.5" r="0.5" transform="matrix(1 0 0 -1 744.544 257.5)" fill="#E9E5E1"/>
<circle opacity="0.4" cx="561.044" cy="318.875" r="1" transform="rotate(180 561.044 318.875)" fill="#E9E5E1"/>
<circle opacity="0.4" cx="541.044" cy="288.875" r="0.5" transform="rotate(180 541.044 288.875)" fill="#E9E5E1"/>
<circle opacity="0.4" cx="1" cy="1" r="1" transform="matrix(1 0 0 -1 640.044 326.125)" fill="#E9E5E1"/>
<circle opacity="0.4" cx="0.5" cy="0.5" r="0.5" transform="matrix(1 0 0 -1 722.544 316.625)" fill="#E9E5E1"/>
<circle opacity="0.4" cx="1" cy="1" r="1" transform="matrix(1 0 0 -1 764.044 339.875)" fill="#E9E5E1"/>
<circle opacity="0.4" cx="0.5" cy="0.5" r="0.5" transform="matrix(1 0 0 -1 295.044 472.375)" fill="#E9E5E1"/>
<circle opacity="0.4" cx="0.5" cy="0.5" r="0.5" transform="matrix(1 0 0 -1 230.044 443.375)" fill="#E9E5E1"/>
<circle cx="0.5" cy="0.5" r="0.5" transform="matrix(1 0 0 -1 1300.04 477.5)" fill="#E9E5E1"/>
<circle cx="0.5" cy="0.5" r="0.5" transform="matrix(1 0 0 -1 1230.04 545.5)" fill="#E9E5E1"/>
<path d="M1315.59 66.586L1317 64L1318.41 66.586L1321 68.0008L1318.41 69.414L1317 72L1315.59 69.414L1313 68.0008L1315.59 66.586Z" fill="#E0DEDC"/>
<path d="M1535.94 249.94L1537 248L1538.06 249.94L1540 251.001L1538.06 252.06L1537 254L1535.94 252.06L1534 251.001L1535.94 249.94Z" fill="#E0DEDC"/>
<path d="M165.232 181.233L167.001 178L168.768 181.233L172 183.001L168.768 184.767L167.001 188L165.232 184.767L162 183.001L165.232 181.233Z" fill="#E0DEDC"/>
<circle cx="0.5" cy="0.5" r="0.5" transform="matrix(-1 0 0 1 292.544 53.5)" fill="#E9E5E1"/>
<circle cx="0.5" cy="0.5" r="0.5" transform="matrix(-1 0 0 1 121.544 43.5)" fill="#E9E5E1"/>
<circle cx="0.5" cy="0.5" r="0.5" transform="matrix(-1 0 0 1 467.544 34.5)" fill="#E9E5E1"/>
</svg>
