<svg width="142" height="24" viewBox="0 0 142 24" fill="none" xmlns="http://www.w3.org/2000/svg">
<path d="M18.9644 14.5044C19.4873 12.1572 17.5156 9.77825 15.1271 9.87091C12.2767 9.86975 9.42627 9.87033 6.57531 9.86975C4.0399 9.86975 1.76823 8.23145 1.02021 5.79514C0.84228 5.21429 0.754177 4.58422 0.772604 3.96805C2.35097 3.964 3.93222 3.99469 5.50943 3.96805C5.51289 2.64074 5.50252 1.32732 5.51346 0H11.364L11.3628 3.96805H11.3807C11.3807 3.96805 14.185 3.95589 15.5866 3.96805H15.5912H15.5964C24.3905 4.38617 28.1513 15.4228 21.4601 21.1734C16.8091 25.2416 9.29441 23.7145 6.56206 18.1609C5.4363 16.0975 5.44839 13.7098 5.5175 11.4235H11.3501C11.3501 11.6326 11.2332 13.623 11.4745 14.6897C12.4229 18.4371 17.7114 18.5784 18.8654 14.8929" fill="#E9E6E3"/>
<path d="M26.1671 10.5525C26.1596 10.5479 26.1527 10.5432 26.1451 10.5392C26.1527 10.5438 26.1596 10.5485 26.1671 10.5525Z" fill="#E9E6E3"/>
<path d="M36.3714 17.5927V6.85777H31.9674V4.45563H43.4813V6.85777H39.0773V17.5927H36.3714Z" fill="#E9E6E3"/>
<path d="M47.811 17.7804C47.0647 17.7804 46.4019 17.6142 45.8238 17.2829C45.245 16.9517 44.7942 16.4884 44.4705 15.8942C44.1469 15.3001 43.9851 14.6271 43.9851 13.8766V7.81451H46.5228V13.5008C46.5228 14.1268 46.7065 14.6266 47.0733 15.0024C47.4401 15.3777 47.9348 15.5653 48.5567 15.5653C48.9793 15.5653 49.3623 15.4779 49.7043 15.3024C50.0464 15.1275 50.3297 14.8895 50.5537 14.5895V7.81451H53.1104V17.5922H50.5537V16.804C49.8074 17.4549 48.893 17.7798 47.8104 17.7798L47.811 17.7804Z" fill="#E9E6E3"/>
<path d="M55.0877 17.5928V7.81509H57.6628V8.90381C57.9611 8.47875 58.3314 8.15329 58.7731 7.92801C59.2147 7.70274 59.7088 7.59039 60.2564 7.59039C60.7418 7.60313 61.096 7.67205 61.32 7.79656V10.0672C61.1207 9.9798 60.9123 9.91436 60.6946 9.87034C60.477 9.82691 60.2495 9.8049 60.0134 9.8049C59.5159 9.8049 59.0615 9.92999 58.651 10.1802C58.2404 10.4303 57.9104 10.7871 57.6617 11.2498V17.5933H55.0865L55.0877 17.5928Z" fill="#E9E6E3"/>
<path d="M62.7212 17.5928V4.45567L65.2779 4.02423V8.60324C66.0489 7.99055 66.9576 7.68362 68.0022 7.68362C68.9229 7.67146 69.7562 7.88978 70.503 8.34033C71.2499 8.79088 71.8436 9.39431 72.2852 10.1512C72.7269 10.9081 72.9474 11.7623 72.9474 12.7132C72.9474 13.6641 72.7234 14.4992 72.2754 15.256C71.8274 16.0129 71.224 16.6135 70.465 17.0577C69.7061 17.5018 68.8602 17.7236 67.9273 17.7236C67.4298 17.7236 66.957 17.6547 66.509 17.5175C66.061 17.3796 65.6383 17.1798 65.2399 16.9169V17.5928H62.7206H62.7212ZM67.5916 15.5473C68.1265 15.5473 68.6085 15.4251 69.0381 15.1813C69.4671 14.9375 69.8062 14.5964 70.055 14.1586C70.3038 13.7208 70.4282 13.239 70.4282 12.7138C70.4282 12.1885 70.3038 11.6939 70.055 11.2689C69.8057 10.8438 69.4671 10.5056 69.0381 10.2554C68.6091 10.0053 68.1265 9.88018 67.5916 9.88018C67.1188 9.88018 66.6835 9.95836 66.2856 10.1147C65.8871 10.2711 65.5514 10.5056 65.2779 10.8183V14.6283C65.5514 14.9161 65.8906 15.1414 66.2948 15.3041C66.699 15.4668 67.1315 15.5479 67.5916 15.5479V15.5473Z" fill="#E9E6E3"/>
<path d="M79.255 17.7804C78.2847 17.7804 77.4077 17.5551 76.624 17.1045C75.8403 16.654 75.2178 16.0442 74.7577 15.2746C74.297 14.5049 74.0673 13.6513 74.0673 12.7126C74.0673 11.7739 74.2976 10.9017 74.7577 10.1321C75.2178 9.36244 75.8403 8.75612 76.624 8.31136C77.4077 7.86718 78.2847 7.64539 79.255 7.64539C80.2253 7.64539 81.1213 7.86776 81.905 8.31136C82.6887 8.75554 83.3106 9.36244 83.7713 10.1321C84.2314 10.9017 84.4617 11.7617 84.4617 12.7126C84.4617 13.6635 84.2314 14.5049 83.7713 15.2746C83.3106 16.0442 82.6887 16.654 81.905 17.1045C81.1213 17.5551 80.2379 17.7804 79.255 17.7804ZM79.255 15.5473C79.7652 15.5473 80.2253 15.4193 80.6358 15.1628C81.0464 14.9062 81.37 14.5657 81.6061 14.1401C81.8422 13.715 81.9608 13.2332 81.9608 12.6952C81.9608 12.1572 81.8393 11.6945 81.5969 11.2689C81.3545 10.8438 81.0309 10.5056 80.6266 10.2554C80.2224 10.0053 79.7709 9.88017 79.2734 9.88017C78.7759 9.88017 78.3031 10.0053 77.8925 10.2554C77.482 10.5056 77.1583 10.8438 76.9223 11.2689C76.6856 11.6945 76.5675 12.17 76.5675 12.6952C76.5675 13.2205 76.6856 13.715 76.9223 14.1401C77.1583 14.5657 77.4791 14.9068 77.8833 15.1628C78.2876 15.4193 78.7448 15.5473 79.255 15.5473Z" fill="#E9E6E3"/>
<path d="M86.1785 17.5928V4.45569H92.318C93.2014 4.45569 93.9724 4.60568 94.6317 4.90624C95.2911 5.20679 95.8076 5.62896 96.1807 6.17332C96.5539 6.71769 96.7405 7.34602 96.7405 8.05948C96.7405 8.64786 96.5971 9.176 96.3115 9.64508C96.0253 10.1142 95.621 10.5114 95.0987 10.8369C95.7454 11.112 96.2585 11.5098 96.6385 12.0287C97.018 12.5482 97.2075 13.1331 97.2075 13.7834C97.2075 14.5467 97.0146 15.2132 96.6287 15.7819C96.2429 16.3512 95.708 16.7953 95.0239 17.1144C94.3398 17.4335 93.5434 17.5928 92.6353 17.5928H86.1785ZM88.8843 9.84198H92.1499C92.7344 9.84198 93.195 9.69836 93.5307 9.41054C93.8665 9.12273 94.0346 8.74109 94.0346 8.26564C94.0346 7.7902 93.8665 7.41146 93.5307 7.13001C93.195 6.84857 92.7344 6.70784 92.1499 6.70784H88.8843V9.84198ZM88.8843 15.3406H92.4113C93.0459 15.3406 93.5463 15.1877 93.9137 14.8808C94.2805 14.5745 94.4642 14.1644 94.4642 13.6514C94.4642 13.1383 94.2805 12.7254 93.9137 12.4126C93.5463 12.0999 93.0459 11.9436 92.4113 11.9436H88.8843V15.3406Z" fill="#E9E6E3"/>
<path d="M103.458 17.7804C102.487 17.7804 101.61 17.5551 100.827 17.1045C100.043 16.654 99.4205 16.0442 98.9604 15.2746C98.4998 14.5049 98.27 13.6513 98.27 12.7126C98.27 11.7739 98.5004 10.9017 98.9604 10.1321C99.4205 9.36244 100.043 8.75612 100.827 8.31136C101.61 7.86718 102.487 7.64539 103.458 7.64539C104.428 7.64539 105.324 7.86776 106.108 8.31136C106.891 8.75554 107.513 9.36244 107.974 10.1321C108.434 10.9017 108.664 11.7617 108.664 12.7126C108.664 13.6635 108.434 14.5049 107.974 15.2746C107.513 16.0442 106.891 16.654 106.108 17.1045C105.324 17.5551 104.441 17.7804 103.458 17.7804ZM103.458 15.5473C103.968 15.5473 104.428 15.4193 104.839 15.1628C105.249 14.9062 105.573 14.5657 105.809 14.1401C106.045 13.715 106.164 13.2332 106.164 12.6952C106.164 12.1572 106.042 11.6945 105.8 11.2689C105.557 10.8438 105.234 10.5056 104.829 10.2554C104.425 10.0053 103.974 9.88017 103.476 9.88017C102.979 9.88017 102.506 10.0053 102.095 10.2554C101.685 10.5056 101.361 10.8438 101.125 11.2689C100.888 11.6945 100.77 12.17 100.77 12.6952C100.77 13.2205 100.888 13.715 101.125 14.1401C101.361 14.5657 101.682 14.9068 102.086 15.1628C102.49 15.4193 102.948 15.5473 103.458 15.5473Z" fill="#E9E6E3"/>
<path d="M114.953 17.7804C113.983 17.7804 113.106 17.5551 112.322 17.1045C111.539 16.654 110.916 16.0442 110.456 15.2746C109.996 14.5049 109.766 13.6513 109.766 12.7126C109.766 11.7739 109.996 10.9017 110.456 10.1321C110.916 9.36244 111.539 8.75612 112.322 8.31136C113.106 7.86718 113.983 7.64539 114.953 7.64539C115.924 7.64539 116.82 7.86776 117.603 8.31136C118.387 8.75554 119.009 9.36244 119.47 10.1321C119.93 10.9017 120.16 11.7617 120.16 12.7126C120.16 13.6635 119.93 14.5049 119.47 15.2746C119.009 16.0442 118.387 16.654 117.603 17.1045C116.82 17.5551 115.936 17.7804 114.953 17.7804ZM114.953 15.5473C115.464 15.5473 115.924 15.4193 116.334 15.1628C116.745 14.9062 117.069 14.5657 117.305 14.1401C117.541 13.715 117.659 13.2332 117.659 12.6952C117.659 12.1572 117.538 11.6945 117.295 11.2689C117.053 10.8438 116.729 10.5056 116.325 10.2554C115.921 10.0053 115.469 9.88017 114.972 9.88017C114.474 9.88017 114.002 10.0053 113.591 10.2554C113.18 10.5056 112.857 10.8438 112.621 11.2689C112.384 11.6945 112.266 12.17 112.266 12.6952C112.266 13.2205 112.384 13.715 112.621 14.1401C112.857 14.5657 113.178 14.9068 113.582 15.1628C113.986 15.4193 114.443 15.5473 114.953 15.5473Z" fill="#E9E6E3"/>
<path d="M125.329 17.7804C124.459 17.7804 123.64 17.6645 122.875 17.4329C122.11 17.2013 121.448 16.8729 120.888 16.4478L122.157 14.7215C122.717 15.0968 123.255 15.3782 123.771 15.5659C124.287 15.7535 124.8 15.8473 125.311 15.8473C125.883 15.8473 126.341 15.7506 126.683 15.5566C127.025 15.3626 127.196 15.1095 127.196 14.7968C127.196 14.5466 127.099 14.3463 126.907 14.1963C126.714 14.0463 126.406 13.9397 125.983 13.8772L124.117 13.5957C123.158 13.4457 122.428 13.1295 121.924 12.6477C121.42 12.1665 121.168 11.5312 121.168 10.743C121.168 10.1049 121.333 9.55471 121.663 9.09142C121.992 8.62871 122.462 8.27198 123.072 8.02181C123.681 7.77163 124.391 7.64655 125.199 7.64655C125.921 7.64655 126.62 7.74673 127.299 7.9471C127.976 8.14747 128.615 8.45382 129.212 8.86673L127.98 10.5369C127.445 10.1993 126.932 9.95487 126.44 9.80488C125.948 9.6549 125.461 9.57961 124.975 9.57961C124.527 9.57961 124.16 9.66706 123.874 9.84253C123.588 10.018 123.445 10.2491 123.445 10.5369C123.445 10.7998 123.545 11.006 123.744 11.1559C123.943 11.3059 124.279 11.4189 124.752 11.4936L126.618 11.7565C127.588 11.8943 128.328 12.207 128.839 12.6946C129.349 13.1828 129.604 13.8019 129.604 14.5524C129.604 15.1784 129.417 15.7321 129.044 16.2133C128.671 16.6951 128.164 17.0768 127.523 17.3582C126.882 17.6396 126.152 17.7804 125.331 17.7804H125.329Z" fill="#E9E6E3"/>
<path d="M135.276 17.7427C134.206 17.7427 133.394 17.496 132.841 17.0015C132.287 16.5075 132.01 15.7847 132.01 14.8339V9.97281H130.013V7.81447H132.01V5.31852L134.548 4.73651V7.81447H137.347V9.97281H134.548V14.308C134.548 14.7586 134.651 15.0806 134.856 15.2746C135.061 15.4686 135.407 15.5653 135.892 15.5653C136.153 15.5653 136.387 15.5496 136.592 15.5184C136.797 15.4871 137.024 15.4338 137.273 15.3591V17.4613C137.011 17.5487 136.688 17.6176 136.303 17.6674C135.917 17.7172 135.575 17.7427 135.276 17.7427H135.276Z" fill="#E9E6E3"/>
<path d="M140.101 16.417H139.664V17.6113H139.37V16.417H138.939V16.1778H140.101V16.417Z" fill="#E9E6E3"/>
<path d="M140.653 16.1778L141.02 17.2175L141.384 16.1778H141.77V17.6114H141.475V17.2195L141.505 16.5431L141.12 17.6114H140.918L140.534 16.5441L140.563 17.2195V17.6114H140.269V16.1778H140.653H140.653Z" fill="#E9E6E3"/>
</svg>
